<svg width="347" height="274" viewBox="0 0 347 274" fill="none" xmlns="http://www.w3.org/2000/svg">
<g clip-path="url(#clip0)">
<path opacity="0.1" d="M115.363 273.846C132.262 273.846 145.961 271.393 145.961 268.368C145.961 265.342 132.262 262.889 115.363 262.889C98.4645 262.889 84.7654 265.342 84.7654 268.368C84.7654 271.393 98.4645 273.846 115.363 273.846Z" fill="#3161DF"/>
<path opacity="0.1" d="M281.688 274C302.775 274 319.869 271.547 319.869 268.522C319.869 265.496 302.775 263.043 281.688 263.043C260.601 263.043 243.507 265.496 243.507 268.522C243.507 271.547 260.601 274 281.688 274Z" fill="#3161DF"/>
<path opacity="0.1" d="M4.34596 118.388H36.2154V166.81H6.6791C6.6006 167.308 6.52523 167.808 6.44359 168.309H36.2154V207.361C36.162 207.343 36.1149 207.322 36.0647 207.301C35.2231 206.93 34.3878 206.538 33.5526 206.118L33.0187 205.848C32.1814 205.407 31.344 204.94 30.5066 204.448C30.2146 204.277 29.9225 204.098 29.6336 203.916C24.9849 201.013 20.7618 197.335 17.1107 193.008C17.0039 192.893 16.9035 192.77 16.7967 192.658C16.288 192.042 15.7887 191.419 15.3051 190.782L14.7713 190.082C14.1998 189.301 13.6471 188.5 13.1101 187.688C13.0316 187.569 12.9563 187.45 12.8746 187.338C10.6908 183.962 8.87753 180.307 7.47356 176.451C7.4296 176.335 7.39192 176.209 7.35109 176.101C6.91985 174.864 6.53779 173.615 6.20494 172.355C6.06049 171.827 5.92232 171.305 5.803 170.756C5.75903 170.595 5.72135 170.437 5.68681 170.279C3.9032 162.519 3.69281 154.457 3.69281 146.451C3.69281 145.517 3.69281 144.579 3.69281 143.651C3.69281 140.413 3.72735 137.154 3.77759 133.899C3.77759 133.055 3.809 132.215 3.8247 131.368C3.86866 129.218 3.93146 127.069 4.01311 124.92C4.03195 124.321 4.05707 123.726 4.08533 123.131C4.08533 122.788 4.10103 122.445 4.13243 122.102C4.2078 120.856 4.2706 119.62 4.34596 118.388Z" fill="#3161DF"/>
<path opacity="0.1" d="M36.2154 64.4726H18.7341C21.5758 59.5144 24.6807 54.7499 28.0321 50.2045C30.629 46.648 33.3704 43.1825 36.2154 39.843V64.4726Z" fill="#3161DF"/>
<path opacity="0.1" d="M36.2154 65.9709V116.89H4.44641C4.44641 116.742 4.46839 116.592 4.47781 116.445C4.50607 116.042 4.53433 115.64 4.56574 115.241C4.60028 114.772 4.63796 114.299 4.67878 113.841C4.7196 113.382 4.76357 112.822 4.81067 112.314C4.85777 111.807 4.90173 111.292 4.95512 110.785C5.0085 110.277 5.0556 109.769 5.11212 109.265C5.16865 108.761 5.21889 108.25 5.27855 107.746C5.32566 107.326 5.3759 106.91 5.42614 106.489C5.49836 105.898 5.57373 105.303 5.65537 104.715C5.65537 104.627 5.67735 104.536 5.68991 104.452C6.26305 100.147 7.04399 95.8796 8.02933 91.6682C9.06074 87.2505 10.3778 82.9219 11.9702 78.7163C13.6627 74.3167 15.6443 70.0625 17.8988 65.9884L36.2154 65.9709Z" fill="#3161DF"/>
<path opacity="0.1" d="M43.824 118.384V166.811H111.893V118.384H43.824ZM43.824 168.305V209.892C44.2134 209.983 44.5997 210.07 44.9828 210.144C45.504 210.256 46.0221 210.357 46.5528 210.445C46.6533 210.462 46.7569 210.48 46.8668 210.49C47.0741 210.529 47.2876 210.56 47.4949 210.592C48.0193 210.672 48.5406 210.739 49.065 210.791C49.313 210.819 49.5642 210.844 49.8155 210.865L50.4215 210.917C50.7512 210.945 51.0778 210.966 51.4012 210.977C51.6022 210.977 51.8032 210.998 52.0104 211.005C52.1674 211.005 52.3244 211.005 52.4877 211.005C52.651 211.005 52.8834 211.005 53.0812 211.005C53.3513 211.005 53.6213 211.005 53.8882 211.005H54.2494C54.5194 211.005 54.7895 211.005 55.0564 210.977H55.0752C55.2605 210.977 55.4489 210.977 55.6373 210.949C55.6896 210.952 55.742 210.952 55.7943 210.949C55.9513 210.949 56.1083 210.949 56.2591 210.924H56.369L57.4209 210.833C57.7663 210.798 58.1149 210.753 58.4666 210.711L59.1825 210.616C62.0953 210.161 64.9757 209.478 67.8023 208.572C74.1517 206.598 80.3629 203.836 86.7092 201.812C94.9144 199.204 103.98 197.923 111.909 201.112V168.305H43.824ZM111.893 64.4728V0.00368002C104.441 -0.0863267 97.0086 0.88535 89.7771 2.89511C72.5408 7.72234 57.0755 18.1924 43.824 31.5644V64.4693H47.2405V65.9641H43.824V116.89H111.893V65.9676H61.2676V64.4728H111.893ZM199.325 42.6961C195.06 42.528 190.821 41.0228 186.987 38.6985C179.655 34.2528 173.798 27.3883 167.254 21.5949C153.657 9.52861 136.795 2.24752 119.496 0.441245V64.4728H216.668L216.91 64.1893L199.325 42.6961ZM208.177 40.9458L217.563 52.4275V37.9354C214.419 38.3694 211.665 39.4021 208.189 40.9318L208.177 40.9458ZM217.563 220.218V168.305H197.563C197.51 168.085 197.456 167.861 197.393 167.637C197.453 167.861 197.503 168.085 197.56 168.305H119.508V205.848C120.249 206.461 120.981 207.105 121.706 207.76C122.488 208.46 123.261 209.198 124.036 209.923L124.818 210.644C125.192 210.994 125.569 211.344 125.949 211.673C126.702 212.355 127.463 213.027 128.231 213.69C128.611 214.04 129.001 214.355 129.387 214.684C135.519 219.91 141.987 224.626 148.74 228.794C150.253 229.728 151.781 230.639 153.321 231.528C154.348 232.113 155.381 232.694 156.418 233.258C157.975 234.105 159.545 234.921 161.128 235.708C175.719 243.009 191.148 248.02 206.974 250.596C210.489 251.174 214.017 251.629 217.56 251.961V220.215H217.874L217.563 220.218ZM119.508 65.9676V116.89H217.575V65.9676H119.508ZM119.508 118.384V166.811H217.575V118.384H119.508ZM225.187 37.8724V54.0378L237.167 39.3846C233.198 38.6705 229.204 38.1606 225.187 37.8548V37.8724ZM225.187 118.402V166.811H320.569V118.384L225.187 118.402ZM320.221 224.062L320.557 168.305H225.187V252.517C231.331 252.805 237.484 252.723 243.62 252.272H243.726C246.657 252.067 249.575 251.768 252.478 251.376H252.544C268.035 249.367 283.182 244.861 297.511 238.001L320.221 224.062ZM338.961 126.359C338.603 125.417 338.23 124.482 337.85 123.558C337.14 121.808 336.389 120.107 335.617 118.405H328.175V166.811H346.991C346.981 153.103 343.869 139.1 338.971 126.341L338.961 126.359ZM328.175 168.323V216.28C333.475 210.616 337.953 204.137 341.178 196.73C345.056 187.81 346.83 178.152 346.975 168.316L328.175 168.323ZM328.175 104.291V116.893H334.92C332.879 112.555 330.631 108.342 328.184 104.274L328.175 104.291ZM263.488 47.3728C262.991 47.1627 262.495 46.9492 261.996 46.7427C256.73 44.5749 251.349 42.7722 245.884 41.3449L227.552 63.7727L227.2 64.1893L227.435 64.4763H292.682C283.595 57.5035 273.798 51.7563 263.497 47.3553L263.488 47.3728ZM294.594 65.9851H226.525L225.187 67.3503V116.89H236.912H236.931H320.582V92.8936C313.015 82.6916 304.281 73.6392 294.603 65.9676L294.594 65.9851Z" fill="#3161DF"/>
<path opacity="0.1" d="M36.2154 91.6542V116.89H4.44641C4.44641 116.742 4.46839 116.592 4.47781 116.445C4.50607 116.042 4.53433 115.64 4.56574 115.241C4.60028 114.772 4.63796 114.299 4.67878 113.841C4.7196 113.382 4.76357 112.822 4.81067 112.314C4.85777 111.807 4.90173 111.292 4.95512 110.785C5.0085 110.277 5.0556 109.769 5.11212 109.265C5.16865 108.761 5.21889 108.25 5.27855 107.746C5.32566 107.326 5.3759 106.91 5.42614 106.489C5.49836 105.898 5.57373 105.303 5.65537 104.715C5.65537 104.627 5.67735 104.536 5.68991 104.452C6.26305 100.147 7.04399 95.8796 8.02933 91.6682L36.2154 91.6542Z" fill="#3161DF"/>
<path opacity="0.1" d="M4.34596 118.388H36.2154V166.81H6.6791C6.6006 167.308 6.52523 167.808 6.44359 168.309H36.2154V207.361C36.162 207.343 36.1149 207.322 36.0647 207.301C35.2231 206.93 34.3878 206.538 33.5526 206.118L33.0187 205.848C32.1814 205.407 31.344 204.94 30.5066 204.448C30.2146 204.277 29.9225 204.098 29.6336 203.916C24.9849 201.013 20.7618 197.335 17.1107 193.008C17.0039 192.893 16.9035 192.77 16.7967 192.658C16.288 192.042 15.7887 191.419 15.3051 190.782L14.7713 190.082C14.1998 189.301 13.6471 188.5 13.1101 187.688C13.0316 187.569 12.9563 187.45 12.8746 187.338C10.6908 183.962 8.87753 180.307 7.47356 176.451C7.4296 176.335 7.39192 176.209 7.35109 176.101C6.91985 174.864 6.53779 173.615 6.20494 172.355C6.06049 171.827 5.92232 171.305 5.803 170.756C5.75903 170.595 5.72135 170.437 5.68681 170.279C3.9032 162.519 3.69281 154.457 3.69281 146.451C3.69281 145.517 3.69281 144.579 3.69281 143.651C3.69281 140.413 3.72735 137.154 3.77759 133.899C3.77759 133.055 3.809 132.215 3.8247 131.368C3.86866 129.218 3.93146 127.069 4.01311 124.92C4.03195 124.321 4.05707 123.726 4.08533 123.131C4.08533 122.788 4.10103 122.445 4.13243 122.102C4.2078 120.856 4.2706 119.62 4.34596 118.388Z" fill="#3161DF"/>
<path opacity="0.1" d="M67.7866 73.259V116.889H43.824V73.259H47.2405V58.4868H61.2645V73.259H67.7866Z" fill="#3161DF"/>
<path opacity="0.1" d="M67.7866 118.384H43.8272V166.807H67.7866V118.384Z" fill="#3161DF"/>
<path opacity="0.1" d="M43.824 168.309H67.7866V208.565C64.96 209.47 62.0796 210.152 59.1668 210.606L58.4509 210.704C58.0992 210.749 57.7506 210.788 57.4052 210.826C57.0598 210.865 56.7018 210.893 56.3533 210.917H56.2434C56.0926 210.917 55.9293 210.938 55.7818 210.942H55.6216C55.4332 210.942 55.2448 210.963 55.0564 210.97C54.7895 210.987 54.5226 210.991 54.2494 210.994C54.1332 210.994 54.0233 210.994 53.9071 210.994C53.637 210.994 53.3701 210.994 53.1001 210.994H52.5066C52.3464 210.994 52.1926 210.994 52.0261 210.994L51.4201 210.97C51.1061 210.97 50.7669 210.931 50.4403 210.907L49.8374 210.858L49.0869 210.781C48.5594 210.728 48.035 210.662 47.5169 210.581L46.8888 210.483L46.5748 210.434C46.0504 210.343 45.5323 210.245 45.0047 210.133C44.6185 210.059 44.2354 209.968 43.846 209.881L43.824 168.309Z" fill="#3161DF"/>
<path opacity="0.1" d="M217.575 68.1062H197.817V116.886H217.575V68.1062Z" fill="#3161DF"/>
<path opacity="0.1" d="M217.578 118.384V166.81H119.508V145.923H171.745V158.245H197.817V118.384H217.578Z" fill="#3161DF"/>
<path opacity="0.1" d="M217.889 220.228H217.575V251.996C214.037 251.662 210.51 251.208 206.993 250.634C191.159 248.05 175.723 243.029 161.128 235.715C156.914 233.6 152.785 231.292 148.743 228.791C141.991 224.62 135.521 219.904 129.387 214.68C127.846 213.364 126.325 212.017 124.824 210.641C123.785 209.685 122.752 208.705 121.706 207.753C120.981 207.098 120.249 206.454 119.508 205.838V168.309H197.557C197.503 168.085 197.45 167.861 197.393 167.64C197.453 167.861 197.51 168.085 197.563 168.309H217.575V220.207C217.682 220.211 217.786 220.221 217.889 220.228Z" fill="#3161DF"/>
<path opacity="0.1" d="M269.105 64.4726H256.231V60.013H262.002V46.7285C262.503 46.9315 263.001 47.1404 263.497 47.3551V60.013H269.105V64.4726Z" fill="#3161DF"/>
<path opacity="0.1" d="M300.124 116.89H236.919C236.919 116.89 236.919 116.89 236.941 116.907L236.912 116.89H225.187V68.1097H228.509V104.165H243.692V82.8119H256.234V65.9709H269.108V82.8259H281.65V104.179H300.124V116.89Z" fill="#3161DF"/>
<path opacity="0.1" d="M225.187 118.384V166.81H300.124V118.384H225.187ZM320.466 223.813L320.569 185.482H300.124V168.33H225.187V252.517C231.331 252.805 237.484 252.723 243.62 252.272H243.727C246.657 252.067 249.575 251.768 252.478 251.376H252.544C268.035 249.366 283.182 244.861 297.511 238.001" fill="#3161DF"/>
<path opacity="0.1" d="M329.506 168.309H346.987C346.834 178.142 345.063 187.8 341.188 196.719C337.963 204.13 333.482 210.609 328.187 216.269V185.465H329.506V168.309Z" fill="#3161DF"/>
<path opacity="0.1" d="M346.997 166.81H329.506V126.341H338.971C343.869 139.1 346.981 153.102 346.997 166.81Z" fill="#3161DF"/>
<path opacity="0.1" d="M217.578 81.6672H206.993V96.961H217.578V81.6672Z" fill="#3161DF"/>
<path opacity="0.1" d="M217.578 113.368H206.993V116.89H217.578V113.368Z" fill="#3161DF"/>
<path opacity="0.1" d="M217.578 118.384H206.993V128.658H217.578V118.384Z" fill="#3161DF"/>
<path opacity="0.1" d="M217.578 145.069H206.993V160.363H217.578V145.069Z" fill="#3161DF"/>
<path opacity="0.1" d="M217.578 176.769H206.993V192.063H217.578V176.769Z" fill="#3161DF"/>
<path opacity="0.1" d="M217.575 220.207C217.682 220.207 217.786 220.207 217.889 220.228H217.575V223.781H206.993V208.47H217.575V220.207Z" fill="#3161DF"/>
<path opacity="0.1" d="M217.575 240.164V251.978C214.037 251.644 210.51 251.191 206.993 250.617V240.164H217.575Z" fill="#3161DF"/>
<path opacity="0.1" d="M164.874 165.687H119.508V166.81H164.874V165.687Z" fill="#3161DF"/>
<path opacity="0.1" d="M164.874 168.305H119.508V172.611H164.874V168.305Z" fill="#3161DF"/>
<path opacity="0.1" d="M164.874 186.725H119.508V193.649H164.874V186.725Z" fill="#3161DF"/>
<path opacity="0.1" d="M164.871 207.763V214.687H129.387C127.846 213.376 126.324 212.029 124.821 210.648C123.782 209.692 122.752 208.712 121.703 207.763H164.871Z" fill="#3161DF"/>
<path opacity="0.1" d="M164.871 228.798V235.715H161.125C156.915 233.598 152.788 231.289 148.743 228.787L164.871 228.798Z" fill="#3161DF"/>
<path opacity="0.1" d="M252.553 123.078H243.623V133.034H252.553V123.078Z" fill="#3161DF"/>
<path opacity="0.1" d="M59.1889 76.693H50.2582V86.6485H59.1889V76.693Z" fill="#3161DF"/>
<path opacity="0.1" d="M59.1889 99.8174H50.2582V109.773H59.1889V99.8174Z" fill="#3161DF"/>
<path opacity="0.1" d="M59.1889 122.942H50.2582V132.897H59.1889V122.942Z" fill="#3161DF"/>
<path opacity="0.1" d="M59.1889 146.063H50.2582V156.018H59.1889V146.063Z" fill="#3161DF"/>
<path opacity="0.1" d="M59.1889 169.187H50.2582V179.143H59.1889V169.187Z" fill="#3161DF"/>
<path opacity="0.1" d="M59.1889 192.312H50.2582V202.267H59.1889V192.312Z" fill="#3161DF"/>
<path opacity="0.1" d="M286.646 123.078H277.716V133.034H286.646V123.078Z" fill="#3161DF"/>
<path opacity="0.1" d="M252.553 147.635H243.623V157.59H252.553V147.635Z" fill="#3161DF"/>
<path opacity="0.1" d="M286.646 147.635H277.716V157.59H286.646V147.635Z" fill="#3161DF"/>
<path opacity="0.1" d="M252.553 172.187H243.623V182.143H252.553V172.187Z" fill="#3161DF"/>
<path opacity="0.1" d="M286.646 172.187H277.716V182.143H286.646V172.187Z" fill="#3161DF"/>
<path opacity="0.1" d="M252.553 196.743H243.623V206.699H252.553V196.743Z" fill="#3161DF"/>
<path opacity="0.1" d="M286.646 196.743H277.716V206.699H286.646V196.743Z" fill="#3161DF"/>
<path opacity="0.1" d="M252.553 221.3H243.623V231.255H252.553V221.3Z" fill="#3161DF"/>
<path opacity="0.1" d="M286.646 221.3H277.716V231.255H286.646V221.3Z" fill="#3161DF"/>
<path opacity="0.1" d="M243.623 252.272V245.852H252.55V251.359L243.623 252.272Z" fill="#3161DF"/>
<path opacity="0.1" d="M5.65228 104.445V110.14H36.2154V104.445H5.65228ZM8.69824 109.783H6.20495V104.795H8.71708L8.69824 109.783ZM11.741 109.783H9.22892V104.795H11.741V109.783ZM14.7776 109.783H12.2655V104.795H14.7776V109.783ZM17.8204 109.783H15.3114V104.795H17.8235L17.8204 109.783ZM20.8601 109.783H18.3479V104.795H20.8601V109.783ZM23.9029 109.783H21.3907V104.795H23.9029V109.783ZM26.9457 109.783H24.4336V104.795H26.9457V109.783ZM29.9854 109.783H27.4732V104.795H29.9854V109.783ZM33.025 109.783H30.5129V104.795H33.025V109.783ZM36.0647 109.783H33.5526V104.795H36.0647V109.783Z" fill="#3161DF"/>
<path opacity="0.1" d="M5.65228 121.017V126.712H36.2154V121.017H5.65228ZM8.69824 126.351H6.20495V121.377H8.71708L8.69824 126.351ZM11.741 126.351H9.22892V121.377H11.741V126.351ZM14.7776 126.351H12.2655V121.377H14.7776V126.351ZM17.8204 126.351H15.3114V121.377H17.8235L17.8204 126.351ZM20.8601 126.351H18.3479V121.377H20.8601V126.351ZM23.9029 126.351H21.3907V121.377H23.9029V126.351ZM26.9457 126.351H24.4336V121.377H26.9457V126.351ZM29.9854 126.351H27.4732V121.377H29.9854V126.351ZM33.025 126.351H30.5129V121.377H33.025V126.351ZM36.0647 126.351H33.5526V121.377H36.0647V126.351Z" fill="#3161DF"/>
<path opacity="0.1" d="M5.65228 137.595V143.301H36.2154V137.595H5.65228ZM8.69824 142.93H6.20495V137.952H8.71708L8.69824 142.93ZM11.741 142.93H9.22892V137.952H11.741V142.93ZM14.7776 142.93H12.2655V137.952H14.7776V142.93ZM17.8204 142.93H15.3114V137.952H17.8235L17.8204 142.93ZM20.8601 142.93H18.3479V137.952H20.8601V142.93ZM23.9029 142.93H21.3907V137.952H23.9029V142.93ZM26.9457 142.93H24.4336V137.952H26.9457V142.93ZM29.9854 142.93H27.4732V137.952H29.9854V142.93ZM33.025 142.93H30.5129V137.952H33.025V142.93ZM36.0647 142.93H33.5526V137.952H36.0647V142.93Z" fill="#3161DF"/>
<path opacity="0.1" d="M5.65228 154.174V159.862H36.2154V154.174H5.65228ZM8.69824 159.508H6.20495V154.527H8.71708L8.69824 159.508ZM11.741 159.508H9.22892V154.527H11.741V159.508ZM14.7776 159.508H12.2655V154.527H14.7776V159.508ZM17.8204 159.508H15.3114V154.527H17.8235L17.8204 159.508ZM20.8601 159.508H18.3479V154.527H20.8601V159.508ZM23.9029 159.508H21.3907V154.527H23.9029V159.508ZM26.9457 159.508H24.4336V154.527H26.9457V159.508ZM29.9854 159.508H27.4732V154.527H29.9854V159.508ZM33.025 159.508H30.5129V154.527H33.025V159.508ZM36.0647 159.508H33.5526V154.527H36.0647V159.508Z" fill="#3161DF"/>
<path opacity="0.1" d="M5.78412 170.749C5.90658 171.284 6.04475 171.82 6.1892 172.348V171.106H8.70132V176.083H7.35734C7.39816 176.199 7.43898 176.325 7.4798 176.433H36.2154V170.749H5.78412ZM11.7504 176.083H9.23829V171.106H11.7504V176.083ZM14.787 176.083H12.2748V171.106H14.787V176.083ZM17.8298 176.083H15.3114V171.106H17.8235L17.8298 176.083ZM20.8694 176.083H18.3573V171.106H20.8694V176.083ZM23.9122 176.083H21.4001V171.106H23.9122V176.083ZM26.9551 176.083H24.4429V171.106H26.9551V176.083ZM29.9947 176.083H27.4826V171.106H29.9947V176.083ZM33.0344 176.083H30.5223V171.106H33.0344V176.083ZM36.0741 176.083H33.562V171.106H36.0741V176.083Z" fill="#3161DF"/>
<path opacity="0.1" d="M12.8809 187.327C12.9594 187.439 13.0348 187.565 13.1164 187.677H14.7776V190.068C14.9566 190.306 15.1324 190.544 15.3145 190.768V187.663H17.8267V192.658H16.8093C16.9097 192.774 17.0071 192.896 17.1233 193.008H36.2248V187.327H12.8809ZM20.8601 192.658H18.3479V187.684H20.8601V192.658ZM23.9029 192.658H21.3907V187.684H23.9029V192.658ZM26.9457 192.658H24.4336V187.684H26.9457V192.658ZM29.9854 192.658H27.4732V187.684H29.9854V192.658ZM33.025 192.658H30.5129V187.684H33.025V192.658ZM36.0647 192.658H33.5526V187.684H36.0647V192.658Z" fill="#3161DF"/>
<path opacity="0.1" d="M29.6462 203.902C29.932 204.084 30.224 204.252 30.5192 204.434V204.259H33.0313V205.834L33.5652 206.111V204.259H36.0773V207.287C36.1255 207.314 36.176 207.335 36.228 207.35V203.902H29.6462Z" fill="#3161DF"/>
<path opacity="0.1" d="M236.919 116.889H236.938H236.919ZM217.575 220.204H217.889H217.575ZM197.393 167.637C197.453 167.861 197.503 168.085 197.56 168.305C197.51 168.085 197.456 167.861 197.393 167.637ZM236.919 116.879H236.938H236.919ZM47.2531 64.4621V65.9569H61.2802V64.4621H47.2531ZM217.575 220.204H217.889H217.575ZM197.393 167.637C197.453 167.861 197.503 168.085 197.56 168.305C197.51 168.085 197.456 167.861 197.393 167.637ZM236.919 116.879H236.938H236.919ZM217.575 220.193H217.889H217.575ZM197.393 167.637C197.453 167.861 197.503 168.085 197.56 168.305C197.51 168.085 197.456 167.861 197.393 167.637Z" fill="#3161DF"/>
<path d="M144.95 132.904C144.95 132.904 143.712 132.712 143.712 130.703C143.712 128.693 142.827 124.941 142.827 124.941C142.827 124.923 142.061 118.405 141.003 117.369C139.944 116.333 138.585 110.249 138.585 110.249C138.585 110.249 138.352 106.948 137.878 106.237C137.404 105.527 136.763 103.787 135.818 101.305C134.873 98.8233 130.932 97.1045 130.932 97.1045C130.932 97.1045 123.807 92.4978 121.788 90.9961C121.604 90.8727 121.433 90.7284 121.276 90.5656C120.924 90.051 119.392 90.0405 119.392 90.0405C119.232 88.9133 119.078 87.6181 119.028 86.4454C119.028 86.3194 119.028 86.1934 119.012 86.0674C121.263 84.5838 122.959 82.2446 123.788 79.4794C123.826 79.3464 123.857 79.2064 123.892 79.0733C124.027 79.0238 124.151 78.9434 124.256 78.8373C124.362 78.7312 124.446 78.6018 124.504 78.4573C124.686 78.0057 124.689 77.4771 124.915 77.057C125.179 76.56 125.682 76.2939 126.077 75.9194C127.076 74.9742 127.333 73.3815 127.286 71.9323C127.255 70.7596 127.085 69.5764 127.151 68.4107L127.17 68.1167C127.189 67.9417 127.211 67.7667 127.239 67.5986C127.393 66.7305 127.729 65.9114 127.917 65.0502C128.106 64.1891 128.125 63.2195 127.685 62.4774C127.041 61.3887 125.701 61.1717 124.523 61.0596C123.188 60.9336 121.995 61.0981 121.141 59.8625C120.741 59.2166 120.292 58.6111 119.797 58.0527C119.621 57.8707 117.913 56.7085 117.913 56.6315C116.246 55.7707 114.356 55.6091 112.59 56.1764C111.705 56.4635 110.87 56.9325 109.971 57.1671C108.034 57.6781 105.804 57.1251 104.159 58.3607C103.242 59.0608 102.693 60.174 102.178 61.2592C101.759 62.153 101.334 63.0456 100.903 63.9371C100.209 65.4038 99.5022 66.895 99.2101 68.5193C99.1487 68.8727 99.111 69.2307 99.0971 69.5904V69.6079C99.0971 69.7374 99.0971 69.867 99.0971 69.9965V70.161C99.0971 70.2835 99.0971 70.4025 99.1159 70.5111C99.1348 70.6196 99.1316 70.6546 99.1411 70.7281C99.1505 70.8016 99.1662 70.9661 99.185 71.0781C99.2039 71.1902 99.2416 71.3862 99.2792 71.5402C99.2949 71.6067 99.3169 71.6697 99.3358 71.7327C99.3672 71.8518 99.4048 71.9673 99.4457 72.0828C99.4676 72.1423 99.4896 72.2053 99.5147 72.2648C99.5618 72.3873 99.6184 72.5064 99.6749 72.6149C99.7 72.6639 99.7189 72.7094 99.744 72.7549C99.8316 72.9177 99.9281 73.0743 100.033 73.224C100.705 74.1586 101.694 74.7537 102.426 75.6288C102.426 75.6638 102.426 75.6988 102.426 75.7303C102.426 75.8284 102.426 75.9229 102.426 76.0209C102.464 77.9726 102.93 79.8842 103.783 81.5894C104.636 83.2946 105.849 84.7417 107.318 85.8048C107.318 85.9379 107.334 86.0744 107.34 86.2074C107.401 87.2465 107.39 88.2893 107.305 89.3264C107.178 89.1585 107.018 89.0248 106.837 88.9351C106.657 88.8454 106.46 88.8021 106.263 88.8083C106.128 88.801 105.993 88.8139 105.861 88.8468L105.833 88.8223V88.8538C105.142 89.0428 104.291 89.8445 103.478 92.1233C103.478 92.1233 101.003 95.2318 99.1191 95.1022C97.235 94.9727 92.4651 98.3367 92.4651 98.3367C92.4651 98.3367 87.8114 101.704 86.8128 105.135C86.2547 107.08 85.5855 108.984 84.8094 110.834L79.0566 124.048L77.9952 134.532C77.9952 134.532 78.5824 139.195 78.4663 139.905C78.3501 140.616 80.881 147.026 80.881 147.026C80.881 147.026 89.2433 163.404 92.6598 164.245L92.9047 164.052C93.0509 164.137 93.2059 164.202 93.3663 164.245L94.0697 163.692C94.1119 164.308 94.0941 164.928 94.0163 165.54C93.5453 167.157 94.1922 177.711 95.0149 179.78C95.8376 181.849 95.5456 208.974 95.5456 208.974L95.4294 211.369C95.4294 211.369 95.4294 211.446 95.4577 211.579L95.4294 212.146L95.5142 212.195C95.6022 212.954 95.5736 213.725 95.4294 214.474C95.1342 215.524 95.0149 218.492 95.0149 218.492C95.0149 218.492 92.6629 235.253 93.7777 238.62C94.8924 241.988 95.8408 245.677 95.8408 245.677C95.8408 245.677 97.0183 249.878 95.8973 250.596C94.7762 251.313 91.589 252.517 92.2453 254.268C92.8419 255.885 95.106 260.218 95.442 260.852L95.4137 261.185L94.9521 266.761C95.0268 267.497 95.206 268.216 95.4828 268.889C95.9883 270.104 96.9712 271.364 98.8396 271.228C99.1536 271.203 99.5179 271.161 99.8696 271.109C103.289 270.598 107.5 268.896 107.5 268.896C107.282 268.741 107.081 268.557 106.904 268.347C106.735 268.165 106.602 267.947 106.512 267.707C106.422 267.466 106.377 267.207 106.379 266.946C106.429 265.931 104.724 261.094 104.3 259.903C104.234 259.732 104.2 259.634 104.2 259.634C104.2 259.634 108.087 255.104 107.441 251.089C107.441 251.089 103.138 248.289 104.555 246.752C105.971 245.215 108.502 240.801 108.502 240.801C108.502 240.801 108.618 224.296 108.502 221.832C108.381 220.121 108.453 218.401 108.719 216.71C108.766 216.455 108.822 216.206 108.882 215.961C110.84 216.287 112.818 216.455 114.798 216.462C115.52 216.462 116.255 216.462 116.996 216.413C116.996 216.646 117.005 216.898 117.024 217.169C117.188 221.258 117.492 228.427 117.74 231.091C118.092 234.91 120.036 245.201 120.036 245.201C120.036 245.201 116.327 247.855 120.683 254.394C120.683 254.394 120.683 256.763 120.394 257.107C120.085 258.228 119.837 259.369 119.649 260.523C119.467 261.755 119.392 263.001 119.687 263.649C120.394 265.196 124.633 265.07 124.633 265.07L124.736 265.049C125.537 264.957 126.346 265.043 127.116 265.302C127.886 265.561 128.603 265.988 129.224 266.558C130.835 268 136.949 267.367 140.258 266.908C141.555 266.726 142.422 266.558 142.422 266.558C142.464 266.394 142.479 266.223 142.466 266.054C142.431 265.147 141.794 263.159 137.473 261.384C137.473 261.384 133.41 258.339 133.466 255.685H133.381H132.91C133.253 255.664 133.472 255.685 133.472 255.685C133.472 255.685 131.88 249.209 132.53 248.684C133.18 248.159 131.233 240.983 131.233 240.983C131.233 240.983 130.119 228.941 130.059 228.098C130.062 227.374 130.16 226.654 130.351 225.962L130.059 219.36C130.059 219.36 130.003 217.165 130.059 216.451C130.05 215.832 130.004 215.213 129.924 214.6C129.896 214.355 129.868 214.099 129.836 213.847C131.359 213.416 132.348 213.017 132.348 213.017L132.172 190.036C133.466 187.236 133.705 181.093 133.699 176.734C133.699 173.934 133.585 171.862 133.585 171.862L135.353 168.645C135.353 168.645 135.762 164.794 135.115 163.951C134.829 163.569 134.958 163.173 135.193 162.848C135.316 162.74 135.445 162.641 135.579 162.554C135.579 162.554 135.561 162.522 135.539 162.477C135.662 162.362 135.793 162.258 135.931 162.165C135.931 162.165 135.303 161.08 135.865 160.622C136.393 161.021 136.864 161.322 137.222 161.567C137.197 161.822 137.172 161.969 137.172 161.969L137.322 161.619C137.668 161.836 137.878 161.969 137.878 161.969C137.878 161.969 140.648 155.819 140.588 154.912C140.528 154.006 142.472 150.186 142.472 150.186C142.472 150.186 142.708 148.181 143.769 147.341C144.83 146.5 144.592 140.413 144.592 140.413C144.592 140.413 144.887 137.242 145.593 135.946C146.3 134.651 144.95 132.904 144.95 132.904ZM91.9564 130.205L92.0098 131.672C91.6958 131.109 91.4697 130.703 91.4697 130.703L91.9564 130.205Z" fill="url(#paint0_linear)"/>
<path d="M138.029 159.312L137.35 162.533C137.35 162.533 131.918 159.442 130.938 155.514C129.959 151.587 132.577 150.095 132.577 150.095L137.639 152.486L138.029 159.312Z" fill="white"/>
<path opacity="0.1" d="M138.029 159.312L137.35 162.533C137.35 162.533 131.918 159.442 130.938 155.514C129.959 151.587 132.577 150.095 132.577 150.095L137.639 152.486L138.029 159.312Z" fill="black"/>
<path d="M107.541 268.917C107.541 268.917 102.517 270.976 99.0626 271.235C97.2287 271.371 96.2647 270.118 95.7686 268.91C95.4975 268.239 95.3227 267.524 95.2504 266.792L95.6995 261.244L95.9381 258.29L103.277 256.165L104.316 259.707L104.413 259.977C104.831 261.16 106.505 265.973 106.455 266.978C106.452 267.235 106.497 267.49 106.586 267.728C106.674 267.965 106.805 268.181 106.97 268.361C107.138 268.573 107.33 268.76 107.541 268.917Z" fill="white"/>
<path d="M141.86 266.096C141.872 266.264 141.857 266.434 141.816 266.596C141.816 266.596 131.07 268.595 128.872 266.596C128.252 266.012 127.53 265.579 126.751 265.325C125.973 265.071 125.155 265.001 124.35 265.119C124.35 265.119 120.193 265.245 119.499 263.719C119.21 263.078 119.285 261.836 119.464 260.61C119.647 259.462 119.89 258.328 120.193 257.211L120.359 257.064L121.348 256.179L132.929 255.797H133.017C132.961 258.437 136.949 261.465 136.949 261.465C141.185 263.215 141.81 265.193 141.86 266.096Z" fill="white"/>
<path opacity="0.1" d="M141.86 266.096C141.871 266.264 141.855 266.434 141.813 266.596C141.813 266.596 131.07 268.595 128.872 266.596C128.253 266.013 127.531 265.58 126.753 265.326C125.975 265.071 125.157 265.001 124.353 265.119C124.353 265.119 120.193 265.245 119.502 263.719C119.213 263.075 119.285 261.836 119.464 260.611C121.066 260.789 123.593 261.234 124.586 262.294C126.087 263.908 128.63 265.518 130.191 265.644C131.412 265.732 138.72 265.991 141.86 266.096Z" fill="black"/>
<path opacity="0.1" d="M107.541 268.917C107.541 268.917 102.517 270.976 99.0626 271.235C97.2288 271.371 96.2647 270.118 95.7717 268.907C97.0498 269.386 98.824 269.89 99.7566 269.428C100.862 268.882 104.781 268.529 106.979 268.378C107.146 268.582 107.335 268.763 107.541 268.917Z" fill="black"/>
<path d="M114.996 103.045C110.851 101.249 105.519 95.3158 106.85 92.5433C107.146 91.8437 107.322 91.0886 107.368 90.317C107.454 89.2695 107.466 88.2162 107.406 87.1665C107.313 85.4475 107.127 83.7361 106.85 82.0418C106.85 82.0418 119.791 82.3673 119.037 84.4921C118.817 85.1152 118.783 86.1969 118.842 87.4081C118.902 88.6193 119.059 89.988 119.222 91.1466C119.448 92.7359 119.675 93.9471 119.675 93.9471C119.675 93.9471 118.883 95.1827 118.418 95.2493C117.954 95.3158 120.943 105.604 114.996 103.045Z" fill="#CF6F80"/>
<path opacity="0.1" d="M104.404 259.977L104.307 260.096C100.438 254.88 95.7591 261.381 95.7591 261.381L95.6901 261.244L95.9287 258.29L103.267 256.165L104.307 259.707L104.404 259.977Z" fill="black"/>
<path opacity="0.1" d="M133.02 256.165C133.02 256.165 130.194 256.098 128.687 257.583C127.179 259.067 119.894 257.905 120.208 257.583C120.301 257.423 120.357 257.24 120.372 257.05L121.361 256.165L132.942 255.783C132.986 256.018 133.02 256.165 133.02 256.165Z" fill="black"/>
<path d="M109.218 215.205C109.007 215.785 108.848 216.387 108.741 217.001C108.479 218.683 108.406 220.395 108.524 222.098C108.64 224.548 108.524 240.969 108.524 240.969C108.524 240.969 106.04 245.348 104.655 246.892C103.27 248.436 107.481 251.208 107.481 251.208C108.109 255.199 104.303 259.707 104.303 259.707C100.435 254.492 95.756 260.996 95.756 260.996C95.756 260.996 93.2124 256.095 92.5781 254.345C91.9438 252.594 95.062 251.383 96.1579 250.673C97.2538 249.962 96.1045 245.772 96.1045 245.772C96.1045 245.772 95.1782 242.1 94.0791 238.75C92.9801 235.4 95.2912 218.723 95.2912 218.723C95.2912 218.723 95.4106 215.762 95.6963 214.729C95.8405 213.984 95.8692 213.217 95.7811 212.461C95.7623 212.205 95.7403 211.992 95.7246 211.848C95.7089 211.705 95.6963 211.638 95.6963 211.638L95.7403 211.554L97.3104 208.292C97.3104 208.292 109.971 213.15 109.218 215.205Z" fill="#3161DF"/>
<path d="M133.02 255.78C133.02 255.78 130.194 255.713 128.687 257.18C127.18 258.647 119.894 257.502 120.208 257.18C120.522 256.858 120.497 254.474 120.497 254.474C116.224 247.97 119.869 245.331 119.869 245.331C119.869 245.331 117.96 235.092 117.615 231.294C117.373 228.64 117.074 221.51 116.914 217.439C116.845 215.688 116.804 214.484 116.804 214.484L120.296 213.7L120.745 213.598L129.167 211.715C129.167 211.715 129.4 213.465 129.557 214.897C129.635 215.508 129.679 216.125 129.688 216.742C129.632 217.442 129.688 219.633 129.688 219.633L129.974 226.204C129.788 226.893 129.691 227.609 129.688 228.329C129.745 229.165 130.841 241.144 130.841 241.144C130.841 241.144 132.747 248.292 132.097 248.807C131.447 249.321 133.02 255.78 133.02 255.78Z" fill="#3161DF"/>
<path opacity="0.1" d="M119.037 84.4921C118.817 85.1152 118.783 86.1969 118.842 87.4081C117.109 88.5716 115.116 89.1665 113.093 89.1244C111.07 89.0823 109.099 88.4049 107.406 87.17C107.313 85.4498 107.127 83.7373 106.85 82.0418C106.85 82.0418 119.791 82.3603 119.037 84.4921Z" fill="black"/>
<path d="M124.039 76.756C124.042 78.0174 123.864 79.2712 123.512 80.4701C122.725 83.1562 121.112 85.4459 118.957 86.9344C116.803 88.4228 114.245 89.0143 111.737 88.6042C109.229 88.1941 106.932 86.8088 105.252 84.6932C103.571 82.5776 102.616 79.8679 102.554 77.043C102.554 76.945 102.554 76.854 102.554 76.756C102.53 75.1659 102.79 73.5864 103.319 72.1094C103.848 70.6325 104.635 69.2877 105.636 68.1537C106.636 67.0196 107.828 66.1188 109.144 65.504C110.46 64.8891 111.872 64.5724 113.298 64.5724C114.725 64.5724 116.137 64.8891 117.453 65.504C118.769 66.1188 119.961 67.0196 120.961 68.1537C121.962 69.2877 122.749 70.6325 123.278 72.1094C123.807 73.5864 124.067 75.1659 124.043 76.756H124.039Z" fill="#CF6F80"/>
<path opacity="0.1" d="M114.996 103.045C110.851 101.249 105.519 95.3158 106.85 92.5433C107.146 91.8437 107.322 91.0886 107.368 90.317L113.043 95.5153L116.553 98.7253L119.222 91.1501C119.448 92.7394 119.675 93.9506 119.675 93.9506C119.675 93.9506 118.883 95.1862 118.418 95.2528C117.954 95.3193 120.943 105.604 114.996 103.045Z" fill="black"/>
<path d="M129.67 126.019L124.931 214.757L118.751 215.209L102.749 163.755L105.374 102.667L105.927 89.7604L113.043 96.2749L116.556 99.4849L119.304 91.6892L124.413 96.653L129.67 126.019Z" fill="#3161DF"/>
<path opacity="0.1" d="M109.218 215.205C109.007 215.785 108.848 216.387 108.741 217.001C104.244 216.227 99.8765 214.706 95.7842 212.489L95.6995 212.44L95.7277 211.876L95.7434 211.582L97.3135 208.32C97.3135 208.32 109.971 213.15 109.218 215.205Z" fill="black"/>
<path opacity="0.1" d="M120.369 217.015C119.219 217.233 118.06 217.38 116.895 217.456C116.826 215.706 116.786 214.502 116.786 214.502L120.277 213.717L120.369 217.015Z" fill="black"/>
<path opacity="0.1" d="M129.538 214.915C127.305 215.562 123.857 216.29 120.77 215.835L120.727 213.616L129.148 211.733C129.148 211.733 129.381 213.465 129.538 214.915Z" fill="black"/>
<path opacity="0.1" d="M120.714 216.241C107.839 218.692 96.048 211.666 96.048 211.666L96.1611 209.286C96.1611 209.286 96.4531 182.3 95.6429 180.231C94.8328 178.163 94.2016 167.672 94.6601 166.061C95.1185 164.451 92.9863 140.304 92.9863 140.304L92.6409 130.503L79.9987 124.794L85.6509 111.66C86.4144 109.818 87.071 107.924 87.6167 105.989C88.5996 102.579 93.1622 99.2293 93.1622 99.2293C93.1622 99.2293 97.841 95.8828 99.6906 96.0089C101.54 96.1349 103.964 93.0474 103.964 93.0474C105.754 87.9612 107.375 90.2645 107.375 90.2645C107.375 90.506 107.375 90.2645 107.287 91.0171C106.659 96.6005 117.442 114.243 117.596 114.555L118.623 142.44L119.662 177.729L120.714 216.241Z" fill="black"/>
<path d="M120.369 216.241C107.494 218.692 95.6994 211.666 95.6994 211.666L95.8156 209.286C95.8156 209.286 96.1076 182.3 95.2943 180.231C94.481 178.163 93.853 167.672 94.3146 166.061C94.7762 164.451 92.6409 140.305 92.6409 140.305L92.2924 130.503L79.6438 124.773L85.2961 111.639C86.0579 109.797 86.7144 107.902 87.2618 105.968C88.2416 102.558 92.8073 99.2084 92.8073 99.2084C92.8073 99.2084 97.4862 95.8619 99.3326 95.9879C101.179 96.1139 103.606 93.0265 103.606 93.0265C105.399 87.9402 107.375 90.2435 107.375 90.2435C107.375 90.4851 107.186 90.5936 107.287 90.9961C108.668 96.4115 117.096 114.222 117.25 114.534L118.29 142.419L119.329 177.708L120.369 216.241Z" fill="white"/>
<path opacity="0.1" d="M116.899 115.328C115.514 114.684 108.178 105.348 108.178 105.348V103.223C107.912 102.523 106.326 102.95 105.038 103.44L105.591 90.5341L106.219 91.1151C107.594 96.527 116.739 115.017 116.899 115.328Z" fill="black"/>
<path d="M117.247 114.555C115.859 113.911 108.524 104.575 108.524 104.575V102.45C108.257 101.75 106.671 102.177 105.384 102.667L105.94 89.7604L106.568 90.3415C107.946 95.7533 117.093 114.247 117.247 114.555Z" fill="white"/>
<path opacity="0.1" d="M96.048 161.115C96.2207 161.115 105.001 160.086 105.001 160.086C105.001 160.086 110.317 171.739 109.968 174.575C109.62 177.41 108.989 179.92 106.85 179.475C104.712 179.031 95.3414 179.825 95.3414 179.825L96.048 161.115Z" fill="black"/>
<path d="M95.6995 160.341C95.8722 160.341 104.652 159.312 104.652 159.312C104.652 159.312 109.965 170.969 109.62 173.801C109.274 176.633 108.637 179.146 106.502 178.702C104.366 178.257 94.9929 179.052 94.9929 179.052L95.6995 160.341Z" fill="white"/>
<path d="M102.316 154.87C102.316 154.87 110.373 159.697 110.546 161.171C110.719 162.645 106.445 160.527 105.522 160.271C104.914 160.108 104.296 160.001 103.672 159.949L97.5145 160.135L102.316 154.87Z" fill="#CF6F80"/>
<path opacity="0.1" d="M114.65 115.93C115.119 115.93 115.498 115.507 115.498 114.985C115.498 114.463 115.119 114.04 114.65 114.04C114.182 114.04 113.802 114.463 113.802 114.985C113.802 115.507 114.182 115.93 114.65 115.93Z" fill="black"/>
<path d="M114.65 115.545C115.119 115.545 115.498 115.122 115.498 114.6C115.498 114.078 115.119 113.655 114.65 113.655C114.182 113.655 113.802 114.078 113.802 114.6C113.802 115.122 114.182 115.545 114.65 115.545Z" fill="#3F3D56"/>
<path opacity="0.1" d="M116.211 156.844C116.679 156.844 117.059 156.421 117.059 155.899C117.059 155.377 116.679 154.954 116.211 154.954C115.743 154.954 115.363 155.377 115.363 155.899C115.363 156.421 115.743 156.844 116.211 156.844Z" fill="black"/>
<path d="M116.211 156.456C116.679 156.456 117.059 156.033 117.059 155.511C117.059 154.989 116.679 154.566 116.211 154.566C115.743 154.566 115.363 154.989 115.363 155.511C115.363 156.033 115.743 156.456 116.211 156.456Z" fill="#3F3D56"/>
<path opacity="0.1" d="M115.495 136.387C115.963 136.387 116.343 135.964 116.343 135.442C116.343 134.92 115.963 134.497 115.495 134.497C115.027 134.497 114.647 134.92 114.647 135.442C114.647 135.964 115.027 136.387 115.495 136.387Z" fill="black"/>
<path d="M115.495 136.002C115.963 136.002 116.343 135.579 116.343 135.057C116.343 134.535 115.963 134.112 115.495 134.112C115.027 134.112 114.647 134.535 114.647 135.057C114.647 135.579 115.027 136.002 115.495 136.002Z" fill="#3F3D56"/>
<path d="M135.039 159.753C135.039 159.753 135.617 160.72 135.039 161.171C134.462 161.623 135.096 162.715 135.096 162.715C135.096 162.715 133.655 163.657 134.289 164.504C134.923 165.351 134.521 169.177 134.521 169.177L132.788 172.376C132.788 172.376 132.891 174.438 132.898 177.225C132.898 181.572 132.669 187.684 131.4 190.471L131.576 213.332C131.576 213.332 125.506 215.804 120.425 215.051L119.671 178.366C119.671 178.366 120.77 157.562 121.176 153.571C121.413 151.5 121.509 149.411 121.464 147.323C121.464 147.323 121.292 141.078 120.711 138.18C120.711 138.18 120.083 125.623 120.02 122.147C119.992 120.485 120.07 115.633 120.158 111.019C120.255 105.975 120.365 101.218 120.365 101.218L119.219 91.1081C119.219 91.1081 120.365 90.9786 120.711 91.4932C120.866 91.6543 121.034 91.7985 121.213 91.9238C123.192 93.415 130.182 98.0007 130.182 98.0007C130.182 98.0007 134.05 99.7159 134.977 102.173C135.903 104.631 136.547 106.374 136.996 107.074C137.445 107.774 137.69 111.065 137.69 111.065C137.69 111.065 139.021 117.121 140.06 118.146C141.1 119.172 141.86 125.697 141.86 125.697L132.675 133.748C132.675 133.748 131.868 147.141 131.695 147.659C131.522 148.177 135.039 159.753 135.039 159.753Z" fill="white"/>
<path d="M135.388 159.753C135.388 159.753 135.963 160.72 135.388 161.171C134.813 161.623 135.441 162.715 135.441 162.715C135.441 162.715 134.009 163.667 134.637 164.514C135.265 165.361 134.87 169.187 134.87 169.187L133.136 172.387C133.136 172.387 133.24 174.449 133.249 177.235C133.249 181.583 133.02 187.695 131.752 190.481L131.924 213.343C131.924 213.343 125.845 215.814 120.77 215.062L120.02 178.376C120.02 178.376 121.119 157.573 121.524 153.582C121.761 151.51 121.857 149.421 121.81 147.334C121.81 147.334 121.637 141.089 121.059 138.19C121.059 138.19 120.431 125.634 120.365 122.158C120.337 120.495 120.419 115.643 120.504 111.03C120.601 105.985 120.711 101.228 120.711 101.228L119.197 90.9821C119.197 90.9821 120.711 90.9821 121.059 91.5037C121.213 91.6667 121.381 91.811 121.562 91.9342C123.54 93.4255 130.533 98.0111 130.533 98.0111C130.533 98.0111 134.399 99.7264 135.325 102.184C136.251 104.641 136.895 106.384 137.347 107.084C137.8 107.785 138.038 111.075 138.038 111.075C138.038 111.075 139.37 117.131 140.409 118.157C141.448 119.182 142.199 125.693 142.199 125.693L133.014 133.744C133.014 133.744 132.207 147.137 132.031 147.656C131.855 148.174 135.388 159.753 135.388 159.753Z" fill="white"/>
<path opacity="0.1" d="M124.388 104.2L125.217 106.896L120.852 111.796C120.949 106.755 121.059 101.995 121.059 101.995L119.546 91.7487C119.546 91.7487 121.059 91.7487 121.408 92.2703C121.561 92.4329 121.729 92.5761 121.91 92.6974L125.622 104.634L124.388 104.2Z" fill="black"/>
<path d="M124.039 103.426L124.872 106.122L120.507 111.023C120.604 105.978 120.714 101.221 120.714 101.221L119.197 90.9751C119.197 90.9751 120.714 90.9751 121.059 91.4967C121.213 91.6587 121.382 91.803 121.562 91.9272L125.277 103.861L124.039 103.426Z" fill="white"/>
<path opacity="0.1" d="M124.039 76.756C124.042 78.0174 123.864 79.2712 123.512 80.4701C123.453 80.4804 123.392 80.4773 123.334 80.4611C123.275 80.4449 123.221 80.4158 123.173 80.3756C123.091 77.2251 121.7 74.2671 119.989 71.7503C119.508 70.9903 118.926 70.3174 118.261 69.755C117.59 69.1928 116.755 68.9295 115.919 69.0163C114.977 69.1599 114.145 69.874 113.193 69.965C111.937 70.0805 110.813 69.1109 109.566 69.0619C109.06 69.0672 108.56 69.193 108.1 69.4309C107.64 69.6687 107.231 70.0131 106.9 70.4411C106.245 71.3047 105.759 72.3109 105.472 73.3955C104.978 75.0402 104.709 76.7584 104.674 78.4923C104.658 79.4724 104.574 80.7011 103.757 81.0582C103.819 80.3373 103.745 79.6101 103.541 78.9226C103.338 78.235 103.008 77.6022 102.573 77.0641L102.554 77.0431C102.554 76.945 102.554 76.854 102.554 76.756C102.53 75.1659 102.79 73.5864 103.319 72.1094C103.848 70.6325 104.635 69.2878 105.636 68.1537C106.636 67.0196 107.828 66.1188 109.144 65.504C110.46 64.8891 111.872 64.5724 113.298 64.5724C114.725 64.5724 116.137 64.8891 117.453 65.504C118.769 66.1188 119.961 67.0196 120.961 68.1537C121.962 69.2878 122.749 70.6325 123.278 72.1094C123.807 73.5864 124.067 75.1659 124.043 76.756H124.039Z" fill="black"/>
<path d="M117.746 57.7376C116.115 56.882 114.259 56.7202 112.528 57.2826C111.658 57.5696 110.838 58.0352 109.956 58.2697C108.072 58.7773 105.874 58.2277 104.256 59.4564C103.358 60.1565 102.818 61.2627 102.316 62.3373L101.06 65.0047C100.375 66.4645 99.6843 67.9487 99.3985 69.5554C99.1128 71.1621 99.2855 72.9614 100.199 74.2531C100.865 75.1948 101.848 75.7863 102.57 76.672C103.003 77.2107 103.331 77.8432 103.534 78.5299C103.737 79.2166 103.811 79.9426 103.751 80.6626C104.57 80.3125 104.649 79.0803 104.668 78.1002C104.703 76.3663 104.972 74.6481 105.465 73.0034C105.752 71.9185 106.239 70.9122 106.894 70.049C107.225 69.6213 107.634 69.2772 108.094 69.0394C108.554 68.8016 109.053 68.6756 109.56 68.6698C110.816 68.7188 111.943 69.6849 113.187 69.5694C114.129 69.4819 114.964 68.7643 115.913 68.6243C116.749 68.5361 117.584 68.7995 118.255 69.3629C118.919 69.9244 119.501 70.5976 119.979 71.3582C121.694 73.8751 123.085 76.826 123.166 79.9835C123.521 80.274 124.033 79.896 124.209 79.4479C124.385 78.9998 124.391 78.4747 124.614 78.0477C124.871 77.5541 125.364 77.2916 125.751 76.9205C126.73 75.9789 126.975 74.3931 126.938 72.9544C126.9 71.5157 126.649 70.056 126.894 68.6418C127.041 67.7736 127.374 66.9615 127.556 66.1039C127.738 65.2463 127.76 64.2836 127.33 63.545C126.702 62.4599 125.38 62.2463 124.228 62.1448C122.918 62.0188 121.747 62.1798 120.912 60.9511C120.52 60.31 120.078 59.7079 119.593 59.1519C119.426 58.9698 117.746 57.8147 117.746 57.7376Z" fill="#512E4E"/>
<path opacity="0.1" d="M83.6161 131.557L80.3346 124.794L79.2952 135.229C79.2952 135.229 79.873 139.863 79.7568 140.574C79.6406 141.285 82.1245 147.656 82.1245 147.656C82.1245 147.656 90.3297 163.947 93.6803 164.787L105.001 155.77L101.999 151.52C101.999 151.52 100.959 151.069 100.699 151.52C100.699 151.52 95.1247 140.83 94.547 140.056C93.9692 139.282 94.0822 137.739 94.0822 137.739C94.0822 137.739 93.2155 136.709 93.5044 135.743C93.7933 134.777 91.8307 131.427 91.8307 131.427L93.6206 129.561L83.6161 131.557Z" fill="black"/>
<path d="M80.5073 124.024L79.6406 124.794L78.6013 135.229C78.6013 135.229 79.179 139.863 79.0629 140.574C78.9467 141.285 81.4337 147.656 81.4337 147.656C81.4337 147.656 89.6358 163.947 92.9863 164.787L104.31 155.77L101.305 151.52C101.305 151.52 100.265 151.069 100.005 151.52C100.005 151.52 94.4308 140.83 93.853 140.056C93.2752 139.282 93.3914 137.739 93.3914 137.739C93.3914 137.739 92.5247 136.709 92.8136 135.743C93.1025 134.777 91.1368 131.427 91.1368 131.427L92.9267 129.561L80.5073 124.024Z" fill="white"/>
<path opacity="0.1" d="M134.289 164.903C134.917 165.753 134.521 169.572 134.521 169.572L132.788 172.772C132.788 172.772 132.891 174.837 132.898 177.62L129.984 178.635C129.72 178.727 129.441 178.747 129.169 178.694C128.898 178.641 128.641 178.516 128.421 178.33C128.202 178.144 128.025 177.902 127.906 177.625C127.787 177.347 127.73 177.042 127.739 176.734L128.241 158.668L135.039 161.567C134.462 162.015 135.096 163.114 135.096 163.114C135.096 163.114 133.655 164.052 134.289 164.903Z" fill="black"/>
<path d="M134.637 164.514C135.265 165.365 134.87 169.187 134.87 169.187L133.136 172.387C133.136 172.387 133.24 174.449 133.249 177.235L130.282 178.268C130.024 178.357 129.751 178.376 129.485 178.324C129.219 178.272 128.968 178.15 128.753 177.968C128.538 177.785 128.365 177.549 128.249 177.277C128.132 177.005 128.076 176.706 128.084 176.405L128.589 158.283L135.391 161.182C134.81 161.63 135.444 162.725 135.444 162.725C135.444 162.725 134.009 163.667 134.637 164.514Z" fill="white"/>
<path d="M136.889 155.903C136.889 155.903 136.427 159.19 135.272 159.382C134.116 159.575 133.598 164.7 132.446 164.518C131.293 164.336 132.056 159.753 132.097 158.864C132.138 157.975 130.841 154.293 131.811 153.456C132.782 152.619 135.853 153.456 135.853 153.456L136.889 155.903Z" fill="#CF6F80"/>
<path opacity="0.1" d="M139.348 130.591L141.527 125.69C141.527 125.69 142.394 129.425 142.394 131.42C142.394 133.415 143.606 133.612 143.606 133.612C143.606 133.612 144.934 135.362 144.234 136.636C143.533 137.91 143.251 141.082 143.251 141.082C143.251 141.082 143.48 147.134 142.441 147.971C141.401 148.807 141.185 150.806 141.185 150.806C141.185 150.806 139.275 154.604 139.335 155.507C139.395 156.41 136.678 162.526 136.678 162.526C136.678 162.526 138.007 154.926 130.266 151.643C130.266 151.643 130.207 149.063 130.784 148.356C131.362 147.649 132.263 147.327 131.698 143.753C131.133 140.178 131.535 135.908 131.535 135.05C131.535 134.193 133.268 128.844 133.268 128.844L139.348 130.591Z" fill="black"/>
<path d="M140.29 124.99L142.193 125.69C142.193 125.69 143.062 129.425 143.062 131.42C143.062 133.415 144.275 133.612 144.275 133.612C144.275 133.612 145.603 135.362 144.903 136.636C144.202 137.91 143.923 141.082 143.923 141.082C143.923 141.082 144.152 147.134 143.113 147.971C142.073 148.807 141.841 150.806 141.841 150.806C141.841 150.806 139.935 154.604 139.995 155.507C140.054 156.41 137.335 162.526 137.335 162.526C137.335 162.526 138.666 154.926 130.923 151.643C130.923 151.643 130.866 149.063 131.444 148.356C132.022 147.649 132.923 147.327 132.358 143.753C131.792 140.178 132.194 135.908 132.194 135.05C132.194 134.193 133.928 128.844 133.928 128.844L140.29 124.99Z" fill="white"/>
<path opacity="0.1" d="M98.2587 252.013C98.2587 252.013 101.292 249.888 103.283 251.432C105.274 252.976 98.2587 252.013 98.2587 252.013Z" fill="black"/>
<path opacity="0.1" d="M121.829 245.443C121.829 245.443 124.514 245.058 126.768 247.764C129.023 250.469 121.829 245.443 121.829 245.443Z" fill="black"/>
<g opacity="0.1">
<path opacity="0.1" d="M125.757 76.1539C125.371 76.525 124.875 76.791 124.617 77.2846C124.397 77.7082 124.391 78.2298 124.215 78.6848C124.039 79.1399 123.527 79.5109 123.173 79.2239C123.091 76.0734 121.697 73.1155 119.985 70.5951C119.507 69.8345 118.925 69.1614 118.261 68.5998C117.589 68.0365 116.753 67.7731 115.916 67.8612C114.974 68.0047 114.145 68.7188 113.193 68.8063C111.937 68.9254 110.81 67.9557 109.563 67.9067C109.057 67.9123 108.557 68.0386 108.098 68.2771C107.638 68.5155 107.23 68.8607 106.9 69.2894C106.245 70.1513 105.758 71.1565 105.472 72.2404C104.978 73.8851 104.709 75.6032 104.674 77.3371C104.655 78.3138 104.573 79.5319 103.763 79.896C103.782 80.1546 103.782 80.4145 103.763 80.6731C104.58 80.3231 104.661 79.0909 104.68 78.1107C104.715 76.3768 104.984 74.6587 105.478 73.014C105.764 71.929 106.251 70.9227 106.907 70.0595C107.237 69.632 107.646 69.2878 108.105 69.05C108.564 68.8122 109.063 68.6862 109.569 68.6803C110.826 68.7293 111.956 69.6955 113.199 69.5799C114.142 69.4924 114.977 68.7748 115.922 68.6348C116.759 68.5467 117.596 68.8101 118.268 69.3734C118.932 69.935 119.513 70.6081 119.992 71.3687C121.703 73.8856 123.097 76.8365 123.179 79.994C123.534 80.2846 124.046 79.9065 124.221 79.4584C124.397 79.0104 124.404 78.4853 124.623 78.0582C124.881 77.5647 125.377 77.3021 125.763 76.9311C126.743 75.9894 126.988 74.4037 126.95 72.965C126.95 72.9195 126.95 72.8739 126.95 72.8319C126.891 74.0781 126.592 75.3488 125.757 76.1539Z" fill="black"/>
<path opacity="0.1" d="M102.576 75.9054C101.854 75.0197 100.868 74.4281 100.206 73.49C99.6476 72.6595 99.329 71.6598 99.2918 70.6231C99.1929 71.9186 99.5175 73.2103 100.206 74.2601C100.868 75.2018 101.854 75.7933 102.576 76.679C103.27 77.5453 103.686 78.6434 103.76 79.8015C103.808 79.0966 103.728 78.3883 103.525 77.7188C103.321 77.0493 102.999 76.4325 102.576 75.9054Z" fill="black"/>
<path opacity="0.1" d="M127.563 65.3373C127.377 66.1949 127.048 67.0105 126.897 67.8752C126.808 68.4529 126.775 69.0398 126.8 69.6254C126.81 69.2918 126.843 68.9595 126.897 68.6313C127.048 67.7631 127.377 66.951 127.563 66.0934C127.671 65.6204 127.706 65.1303 127.666 64.6442C127.647 64.8777 127.612 65.1093 127.563 65.3373Z" fill="black"/>
</g>
<path opacity="0.1" d="M41.6793 266.246C58.5779 266.246 72.277 263.794 72.277 260.768C72.277 257.742 58.5779 255.29 41.6793 255.29C24.7807 255.29 11.0816 257.742 11.0816 260.768C11.0816 263.794 24.7807 266.246 41.6793 266.246Z" fill="#3161DF"/>
<path d="M42.6653 155.822H40.6965V205.239H42.6653V155.822Z" fill="#535461"/>
<path d="M55.0375 205.089L54.915 207.315L54.7392 210.465L54.667 211.775L54.4943 214.925L54.4189 216.234L54.243 219.385L52.2585 255.115C52.1722 256.652 51.5637 258.095 50.5568 259.15C49.5499 260.204 48.2203 260.792 46.8385 260.792H36.52C35.1386 260.792 33.8093 260.204 32.8029 259.149C31.7965 258.094 31.1887 256.652 31.1032 255.115L29.1281 219.36L28.9522 216.21L28.88 214.901L28.7041 211.75L28.6319 210.441L28.4561 207.29L28.3305 205.064C28.3087 204.636 28.3656 204.207 28.4978 203.804C28.6301 203.401 28.8348 203.032 29.0994 202.72C29.364 202.408 29.683 202.16 30.0368 201.991C30.3905 201.822 30.7716 201.734 31.1566 201.735H52.2616C52.6451 201.739 53.024 201.83 53.3746 202.003C53.7253 202.177 54.0404 202.428 54.3006 202.742C54.5607 203.057 54.7603 203.427 54.887 203.83C55.0138 204.234 55.065 204.662 55.0375 205.089Z" fill="#3F3D56"/>
<path d="M54.9151 207.315L54.7392 210.455H28.6194L28.4435 207.315H54.9151Z" fill="#9D9CB5"/>
<path d="M54.667 211.764L54.4943 214.908H28.8675L28.6917 211.764H54.667Z" fill="#9D9CB5"/>
<path d="M54.4189 216.22L54.2462 219.36H29.1155L28.9397 216.22H54.4189Z" fill="#9D9CB5"/>
<path d="M25.4375 174.344C36.9022 183.592 41.6878 198.056 41.6878 198.056C41.6878 198.056 27.8711 197.528 16.4033 188.279C4.93542 179.031 0.159241 164.57 0.159241 164.57C0.159241 164.57 13.9697 165.095 25.4375 174.344Z" fill="#3161DF"/>
<path d="M0.149902 164.57C0.149902 164.57 14.4941 173.444 19.0945 180.792C23.6948 188.139 41.6879 198.056 41.6879 198.056" stroke="#535461" stroke-width="2" stroke-miterlimit="10"/>
<path d="M32.8398 155.714C39.0793 160.744 41.6887 168.617 41.6887 168.617C41.6887 168.617 34.168 168.33 27.9254 163.299C21.6828 158.269 19.0796 150.393 19.0796 150.393C19.0796 150.393 26.5971 150.68 32.8398 155.714Z" fill="#3161DF"/>
<path d="M19.0796 150.393C19.0796 150.393 26.886 155.224 29.3887 159.221C31.8914 163.219 41.6887 168.617 41.6887 168.617" stroke="#535461" stroke-width="2" stroke-miterlimit="10"/>
<path d="M50.7481 168.218C43.5791 177 42.0624 188.479 42.0624 188.479C42.0624 188.479 52.1705 185.713 59.3332 176.927C66.496 168.141 68.0189 156.666 68.0189 156.666C68.0189 156.666 57.917 159.435 50.7481 168.218Z" fill="#3161DF"/>
<path d="M68.0252 156.669C68.0252 156.669 58.6864 165.673 56.3124 171.876C53.9385 178.079 42.0624 188.479 42.0624 188.479" stroke="#535461" stroke-width="2" stroke-miterlimit="10"/>
<path d="M313.912 165.127C313.912 165.127 308.728 136.373 310.712 132.796C310.712 132.796 310.785 129.47 310.665 125.231C310.665 125.07 310.665 124.909 310.665 124.745C311.014 125.004 311.378 125.238 311.755 125.445C313.583 126.492 315.683 126.794 317.69 126.299L316.12 124.349C315.743 123.884 315.35 123.379 315.269 122.763C315.187 122.147 315.413 121.598 315.608 121.048C317.099 116.847 317.178 111.565 314.305 108.359C311.877 105.663 311.287 102.184 308.652 99.7229C306.728 97.9202 305.669 95.2773 304.671 92.7219C303.826 90.5621 302.975 88.3847 302.491 86.0954C302.115 84.3066 301.964 82.4548 301.446 80.7081C300.928 78.9613 299.957 77.2636 298.441 76.4829C297.901 76.2064 297.301 76.0489 296.808 75.6813C296.161 75.1947 295.771 74.4036 295.304 73.7105C292.927 70.21 284.966 72.2718 281.198 73.693C280.174 74.0509 279.225 74.6368 278.41 75.4153L278.444 75.3523C278.472 75.2998 278.507 75.2473 278.538 75.1948C278.126 75.5665 277.77 76.0098 277.483 76.5074C276.934 77.4771 276.704 78.6078 276.246 79.6579C275.693 80.9006 272.619 84.3696 273.941 85.7663C274.034 85.8601 274.14 85.9359 274.255 85.9904C274.751 86.2206 275.298 86.2815 275.825 86.1654L275.769 86.3159C275.317 87.5482 275.086 88.8669 275.087 90.198C275.087 95.9494 279.342 100.612 284.596 100.612C285.583 100.613 286.565 100.444 287.507 100.111C287.529 100.244 287.547 100.378 287.569 100.511C287.569 100.563 287.585 100.616 287.591 100.668L287.425 100.927C287.417 100.911 287.407 100.896 287.397 100.882L282.467 108.562C281.713 109.153 277.373 112.654 277.128 115.279C276.871 118.153 276.613 121.517 276.613 121.517L276.579 122.238C276.363 122.439 276.111 122.585 275.84 122.667C275.569 122.748 275.286 122.763 275.009 122.711C273.47 122.431 273.47 129.012 273.47 129.012C273.47 129.012 272.446 130.062 271.743 129.152C271.04 128.242 269.181 131.326 269.181 131.326L257.531 131.886L257.264 131.903L256.636 129.736C256.568 129.508 256.422 129.318 256.23 129.209C256.038 129.099 255.815 129.079 255.609 129.152C255.56 129.17 255.513 129.192 255.468 129.218L255.424 129.246L255.342 129.309L255.301 129.351C255.279 129.374 255.258 129.399 255.238 129.425L255.201 129.474L255.182 129.495C255.109 129.607 255.061 129.736 255.042 129.872C255.022 130.008 255.031 130.148 255.069 130.279L255.609 132.138C253.36 132.642 251.062 134.063 252.937 137.977L243.434 136.02L246.509 138.897L262.379 142.548C262.169 142.968 262.307 143.577 262.963 144.435C265.789 148.135 270.939 149.14 273.012 149.399C273.559 150.764 274.243 152.055 275.05 153.249L274.871 156.935C274.871 156.935 269.623 185.031 268.662 186.455C269.148 185.843 269.592 185.191 269.991 184.506C268.468 190.278 266.339 198.179 265.78 199.362C264.882 201.252 264.05 208.901 265.073 209.391C265.387 209.541 266.285 209.468 267.567 209.359V209.993L267.51 234.003C267.51 234.003 267.768 248.73 267.061 250.133C266.354 251.537 266.166 254.481 266.166 254.481C266.166 254.481 263.34 260.288 261.101 262.623C261.086 262.641 261.069 262.658 261.051 262.672L260.982 262.126C260.982 262.126 258.291 265.914 252.337 265.7C252.337 265.7 248.754 268.298 254.067 268.438C259.38 268.578 266.166 268.228 266.166 268.228C266.166 268.228 270.905 260.176 274.874 261.227V267.328H276.089V261.129C276.653 260.715 277.135 260.178 277.507 259.551C277.879 258.923 278.132 258.218 278.253 257.478C278.357 256.715 278.28 255.935 278.031 255.215C277.783 254.495 277.37 253.859 276.833 253.371C276.592 253.129 276.399 252.833 276.265 252.503C276.132 252.173 276.061 251.815 276.058 251.453L276.014 251.495C276.014 251.373 275.985 251.247 275.973 251.117C275.624 247.967 275.188 241.466 276.73 236.656C278.843 230.061 279.483 220.876 277.945 215.408C277.448 213.66 277.041 211.883 276.723 210.084C276.686 209.856 276.651 209.639 276.62 209.436C277.671 209.595 278.713 209.829 279.738 210.136C283.302 211.232 291.099 211.435 297.756 211.376C297.772 211.579 297.791 211.792 297.813 212.006C297.931 213.49 298.179 214.958 298.554 216.388C299.389 219.189 299.772 231.535 299.772 231.535C299.772 231.535 300.849 241.687 300.262 245.817C299.948 248.114 299.634 250.42 299.455 252.738V252.783C299.455 252.783 297.69 258.384 296.4 261.426C296.368 261.503 296.334 261.58 296.302 261.654C295.958 261.689 295.619 261.772 295.294 261.902C295.294 261.902 293.564 265.753 291.84 266.39C290.116 267.027 290.688 269.124 294.591 268.354C298.494 267.584 304.388 266.953 304.388 266.953L304.642 263.026L305.842 261.353L305.528 265.27L306.806 264.99L306.636 260.225L308.599 257.488C308.599 257.488 310.97 255.136 307.447 250.508V250.609C307.409 250.543 307.374 250.473 307.334 250.406V250.385C306.749 249.377 306.285 247.498 307.136 244.162C308.674 238.134 309.569 232.662 309.569 232.662C309.569 232.662 313.005 218.006 308.875 211.071H309.057C308.634 210.095 308.335 209.058 308.169 207.991C308.148 207.865 308.129 207.735 308.112 207.602C311.168 207.406 314.167 206.79 316.613 205.46C316.603 205.446 315.131 170.665 313.912 165.127ZM275.122 140.868V140.938L274.494 140.973L275.122 140.868ZM272.968 141.201C272.864 141.226 272.768 141.278 272.685 141.351C272.415 141.777 272.245 142.272 272.192 142.79L271.212 142.545C271.212 142.545 270.525 142.38 269.535 142.195L269.068 141.67C270.355 141.551 271.693 141.376 272.968 141.201Z" fill="url(#paint1_linear)"/>
<path d="M305.384 260.274L305.01 265.235L306.263 264.955L306.074 259.574L305.384 260.274Z" fill="#1D2366"/>
<path d="M276.799 236.723C275.288 241.519 275.715 247.991 276.054 251.135C276.18 252.297 276.296 253.004 276.296 253.004C276.296 253.004 274.038 258.738 273.85 258.955C273.662 259.172 267.205 263.565 267.205 263.565L262.693 266.502C262.693 266.502 258.115 264.265 260.31 263.495C260.758 263.294 261.162 262.987 261.494 262.595C263.692 260.267 266.452 254.481 266.452 254.481C266.452 254.481 266.64 251.544 267.331 250.147C268.022 248.751 267.771 234.073 267.771 234.073L267.824 210.147V207.028L276.412 207.098C276.467 208.157 276.59 209.21 276.783 210.248C277.091 212.041 277.491 213.813 277.979 215.555C279.493 221.013 278.865 230.152 276.799 236.723Z" fill="#FFB0B1"/>
<path opacity="0.1" d="M276.296 253.004C276.296 253.004 274.038 258.738 273.85 258.955C273.662 259.172 267.205 263.565 267.205 263.565L262.693 266.502C262.693 266.502 258.115 264.265 260.31 263.495C260.758 263.294 261.162 262.987 261.494 262.595L261.688 264.125L263.192 264.055L276.067 251.142C276.18 252.297 276.296 253.004 276.296 253.004Z" fill="black"/>
<path d="M276.139 251.467L263.192 264.468L261.688 264.538L261.374 262.088C261.374 262.088 258.743 265.861 252.896 265.651C252.896 265.651 249.385 268.238 254.588 268.378C259.792 268.518 266.436 268.168 266.436 268.168C266.436 268.168 271.077 260.117 274.962 261.167V267.248H276.155V261.111C276.71 260.695 277.183 260.158 277.547 259.532C277.911 258.906 278.157 258.205 278.271 257.471C278.375 256.714 278.302 255.94 278.059 255.224C277.817 254.508 277.413 253.874 276.887 253.382C276.652 253.136 276.464 252.84 276.336 252.511C276.207 252.181 276.14 251.826 276.139 251.467Z" fill="#1D2366"/>
<path d="M306.577 244.2C305.741 247.526 306.197 249.398 306.768 250.403V250.424C307.501 251.664 308.011 253.052 308.269 254.509L308.319 254.824L302.429 264.398L299.232 265.798C299.232 265.798 294.091 263.842 295.03 263.281C295.266 263.145 295.633 262.417 296.054 261.412C297.31 258.384 299.043 252.797 299.043 252.797V252.752C299.226 250.445 299.515 248.145 299.835 245.856C300.409 241.736 299.354 231.623 299.354 231.623C299.354 231.623 298.978 219.325 298.161 216.528C297.793 215.106 297.547 213.648 297.429 212.174C297.26 210.424 297.222 208.981 297.222 208.981C297.222 208.981 300.607 203.731 306.812 209.401C307.308 209.854 307.745 210.382 308.109 210.97C312.395 217.768 308.944 232.743 308.944 232.743C308.944 232.743 308.081 238.19 306.577 244.2Z" fill="#FFB0B1"/>
<path opacity="0.1" d="M308.329 254.824L302.438 264.398L299.241 265.798C299.241 265.798 294.101 263.841 295.04 263.281C295.275 263.145 295.643 262.417 296.063 261.412C298.24 261.391 299.367 263.701 299.367 263.701L302.124 263.211C302.124 263.211 305.76 255.244 306.577 254.758C307.393 254.271 306.702 251.121 306.702 251.121V250.319C306.724 250.347 306.743 250.378 306.768 250.406V250.427C307.501 251.668 308.011 253.055 308.269 254.513L308.329 254.824Z" fill="black"/>
<path d="M299.555 263.908C299.555 263.908 297.985 260.695 294.977 261.881C294.977 261.881 293.284 265.732 291.592 266.355C289.899 266.978 290.465 269.078 294.289 268.312C298.114 267.545 303.879 266.911 303.879 266.911L304.131 262.994L308.018 257.474C308.018 257.474 310.336 255.132 306.888 250.522V251.324C306.888 251.324 307.579 254.474 306.762 254.961C305.946 255.447 302.322 263.418 302.322 263.418L299.555 263.908Z" fill="#1D2366"/>
<path opacity="0.1" d="M276.422 207.091C276.476 208.15 276.6 209.203 276.792 210.241C273.257 209.664 269.975 209.951 267.824 210.14V207.021L276.422 207.091Z" fill="black"/>
<path opacity="0.1" d="M308.458 211.841C308.458 211.841 303.433 212.114 297.442 212.17C297.272 210.42 297.235 208.978 297.235 208.978C297.235 208.978 300.62 203.727 306.825 209.398C307.321 209.85 307.758 210.378 308.122 210.966C308.219 211.264 308.331 211.557 308.458 211.841Z" fill="black"/>
<path d="M308.458 211.211C308.458 211.211 286.451 212.398 279.744 210.301C273.037 208.204 266.389 210.021 265.387 209.534C264.386 209.048 265.199 201.427 266.078 199.54C266.957 197.654 271.781 178.572 271.781 178.572L276.422 151.597L281.311 150.095L281.656 149.987L290.176 147.369L296.418 145.447C296.418 145.447 308.831 199.47 307.767 203.454C307.38 204.979 307.318 206.584 307.585 208.141C307.747 209.204 308.041 210.238 308.458 211.211Z" fill="#1D2366"/>
<path d="M260.244 133.149C260.244 133.149 255.847 138.4 259.176 141.327C262.505 144.253 264.693 141.607 264.693 141.607L260.244 133.149Z" fill="#C7DAF5"/>
<path opacity="0.1" d="M260.244 133.149C260.244 133.149 255.847 138.4 259.176 141.327C262.505 144.253 264.693 141.607 264.693 141.607L260.244 133.149Z" fill="black"/>
<path d="M295.762 98.6273C295.762 98.6273 295.247 99.1733 294.471 99.9785C293.366 101.13 291.73 102.814 290.279 104.225C288.27 106.174 286.612 107.606 287.205 106.384C287.799 105.163 287.686 103.034 287.39 101.043C287.368 100.91 287.35 100.777 287.328 100.647C287.083 99.1842 286.759 97.7394 286.357 96.3204C286.357 96.3204 289.604 91.6437 291.4 89.7989C292.069 89.0988 292.537 88.8118 292.565 89.2984C292.597 89.953 293.036 91.3987 293.583 92.9319C293.598 92.9809 293.614 93.0264 293.633 93.0754C293.997 94.1256 294.409 95.2038 294.77 96.1349C295.322 97.5631 295.762 98.6273 295.762 98.6273Z" fill="#FFB0B1"/>
<path opacity="0.1" d="M293.633 93.0754C293.328 94.9049 292.588 96.6095 291.489 98.011C290.391 99.4125 288.976 100.46 287.39 101.043C287.141 99.4447 286.796 97.8671 286.357 96.3204C286.357 96.3204 292.471 87.5166 292.565 89.2983C292.587 89.974 293.065 91.4722 293.633 93.0754Z" fill="black"/>
<path opacity="0.1" d="M286.781 103.395L287.572 102.152C287.572 102.152 288.097 105.716 290.025 104.144C291.953 102.572 292.047 115.972 292.047 115.972L289.978 150.463L275.024 149.465L275.448 132.799L277.141 124.398L281.327 112.185L283.817 108.149L286.781 103.395Z" fill="black"/>
<path d="M292.047 116.186L290.163 147.372L289.965 150.677L281.628 150.12L281.314 150.099L275.034 149.679L275.458 133.009L277.15 124.608L281.336 112.395L283.826 108.359L286.791 103.588L287.582 102.348C287.582 102.348 288.106 105.912 290.034 104.34L290.075 104.309C291.959 102.978 292.047 116.186 292.047 116.186Z" fill="#1D2366"/>
<path d="M277.361 121.689C277.361 121.689 276.61 123.439 275.103 123.155C273.596 122.872 273.599 129.456 273.599 129.456C273.599 129.456 272.597 130.507 271.906 129.596C271.215 128.686 269.394 131.763 269.394 131.763L257.983 132.323C257.983 132.323 263.06 134.91 262.065 142.737C262.065 142.737 279.304 141.547 279.87 139.73C280.435 137.914 277.361 121.689 277.361 121.689Z" fill="white"/>
<path opacity="0.03" d="M277.361 121.689C277.361 121.689 276.61 123.439 275.103 123.155C273.596 122.872 273.599 129.456 273.599 129.456C273.599 129.456 272.597 130.507 271.906 129.596C271.215 128.686 269.394 131.763 269.394 131.763L257.983 132.323C257.983 132.323 263.06 134.91 262.065 142.737C262.065 142.737 279.304 141.547 279.87 139.73C280.435 137.914 277.361 121.689 277.361 121.689Z" fill="black"/>
<path d="M244.198 136.436L247.206 139.3L271.969 145.1L268.898 141.607L244.198 136.436Z" fill="white"/>
<path d="M286.828 104.498C286.417 105.198 285.239 108.782 284.256 111.912C283.437 114.52 282.752 116.812 282.752 116.812C282.752 116.812 281.154 128.413 280.338 130.51C279.521 132.607 279.964 140.784 279.964 140.784L276.921 160.979C276.921 160.979 275.543 171.393 273.414 177.613C271.313 183.735 268.973 186.606 268.901 186.697C269.843 185.276 274.977 157.293 274.977 157.293L276.673 122C276.673 122 276.921 118.647 277.172 115.78C277.423 112.913 282.511 108.999 282.511 108.999L287.415 101.225C287.908 101.96 287.579 103.241 286.828 104.498Z" fill="white"/>
<path d="M274.038 149.854C274.038 149.854 266.816 149.504 263.318 144.82C259.82 140.136 271.404 142.951 271.404 142.951L274.415 143.721L274.038 149.854Z" fill="#FFB0B1"/>
<path opacity="0.1" d="M307.767 203.457C307.38 204.983 307.318 206.588 307.585 208.145C299.706 208.768 291.278 206.394 291.278 206.394C289.708 208.005 285.572 210.378 285.572 210.378L283.318 179.223C281.876 175.023 281.311 153.015 281.311 153.015C281.311 153.015 281.44 151.863 281.625 150.137C281.625 150.095 281.625 150.05 281.641 150.008C282.203 145.188 283.318 136.139 283.864 134.917C284.618 133.237 281.547 128.767 281.547 128.767L282.944 115.482L283.113 113.879C286.059 112.412 288.317 107.729 288.317 107.729L290.05 104.344C291.934 102.996 292.031 116.203 292.031 116.203L290.147 147.39L296.39 145.468C296.39 145.468 308.831 199.474 307.767 203.457Z" fill="black"/>
<path d="M315.853 205.61C307.264 210.364 291.655 205.96 291.655 205.96C290.085 207.571 285.949 209.944 285.949 209.944L283.691 178.789C282.253 174.589 281.688 152.581 281.688 152.581C281.688 152.581 283.503 136.16 284.256 134.483C284.476 133.993 284.37 133.265 284.109 132.481C282.828 128.749 282.356 124.732 282.734 120.758L283.336 115.048L283.503 113.448C286.451 111.978 288.709 107.295 288.709 107.295L290.279 104.228L293.168 98.5783L294.537 95.9039L294.77 96.1384L296.544 97.9307C296.544 97.9307 297.298 98.6308 298.428 99.6809C300.887 101.991 305.135 106.059 307.327 108.548C309.255 110.739 309.865 119.263 310.04 125.679C310.157 129.904 310.087 133.216 310.087 133.216C308.144 136.783 313.228 165.421 313.228 165.421C314.411 170.955 315.853 205.61 315.853 205.61Z" fill="white"/>
<path opacity="0.03" d="M299.367 107.225C299.367 107.225 293.473 119.732 294.157 124.486C294.842 129.239 296.789 134.62 295.85 135.876C295.527 136.352 295.11 136.739 294.632 137.006C294.153 137.272 293.625 137.412 293.09 137.413C292.148 137.483 289.636 139.44 289.636 139.65C289.636 139.86 287.315 139.86 285.239 140.84C283.164 141.82 280.099 142.377 280.099 142.377C280.099 142.377 274.133 142.167 273.577 142.797C273.021 143.427 272.449 147.197 273.64 150.204C274.83 153.211 276.152 155.455 277.15 155.864C278.149 156.274 284.486 153.908 289.626 153.347C294.767 152.787 300.347 148.247 300.347 148.247C300.347 148.247 306.492 145.797 307.569 141.677C308.646 137.557 306.253 114.912 306.253 114.912C306.253 114.912 304.445 104.358 299.367 107.225Z" fill="black"/>
<path opacity="0.03" d="M298.613 106.174C298.613 106.174 292.719 118.685 293.41 123.435C294.101 128.186 296.042 133.57 295.099 134.83C294.778 135.306 294.362 135.693 293.883 135.96C293.405 136.227 292.877 136.366 292.342 136.366C291.4 136.436 288.888 138.393 288.888 138.603C288.888 138.813 286.568 138.813 284.492 139.79C282.416 140.767 279.352 141.327 279.352 141.327C279.352 141.327 273.385 141.117 272.833 141.747C272.28 142.377 271.702 146.15 272.895 149.154C274.089 152.157 275.408 154.405 276.406 154.814C277.405 155.224 283.742 152.857 288.882 152.301C294.022 151.744 299.602 147.197 299.602 147.197C299.602 147.197 305.745 144.747 306.809 140.63C307.874 136.513 305.493 113.862 305.493 113.862C305.493 113.862 303.691 103.311 298.613 106.174Z" fill="black"/>
<path d="M299.182 106.594C299.182 106.594 293.288 119.105 293.978 123.856C294.669 128.606 296.61 133.99 295.671 135.246C295.35 135.724 294.933 136.112 294.454 136.379C293.975 136.646 293.446 136.786 292.911 136.786C291.969 136.856 289.457 138.813 289.457 139.02C289.457 139.226 287.139 139.23 285.06 140.21C282.982 141.19 279.92 141.747 279.92 141.747C279.92 141.747 273.954 141.537 273.398 142.167C272.842 142.797 272.271 146.57 273.461 149.574C274.651 152.577 275.973 154.825 276.971 155.234C277.97 155.644 284.307 153.277 289.447 152.717C294.588 152.157 300.168 147.617 300.168 147.617C300.168 147.617 306.313 145.167 307.39 141.047C308.467 136.926 306.09 114.282 306.09 114.282C306.09 114.282 304.256 103.745 299.182 106.594Z" fill="white"/>
<path opacity="0.1" d="M299.053 140.15C299.053 140.15 294.343 139.1 295.982 140.851C297.621 142.601 297.612 144.134 299.618 144.064C301.625 143.994 299.053 140.15 299.053 140.15Z" fill="black"/>
<path opacity="0.1" d="M307.013 177.809C307.013 177.809 304.884 179.416 308.957 183.119C313.03 186.823 307.013 177.809 307.013 177.809Z" fill="black"/>
<path opacity="0.1" d="M302.95 191.017C302.95 191.227 302.196 198.718 305.016 200.591C307.836 202.463 302.95 191.017 302.95 191.017Z" fill="black"/>
<path d="M258.177 132.306C255.904 132.393 250.993 133.167 253.539 138.463C255.791 143.15 259.575 140.017 261.704 137.641C261.185 135.425 259.922 133.515 258.177 132.306Z" fill="#FFB0B1"/>
<path d="M261.732 137.598L261.825 137.49L261.732 137.598Z" fill="#FFB0B1"/>
<path opacity="0.1" d="M298.428 99.8944C296.016 101.732 293.994 103.283 293.598 103.605C292.518 104.498 290.458 109.738 289.13 112.412C288.072 114.565 284.633 115.118 283.336 115.255L283.503 113.655C286.451 112.185 288.709 107.501 288.709 107.501L294.537 96.1104L296.544 98.1442C296.544 98.1442 297.298 98.8443 298.428 99.8944Z" fill="black"/>
<path d="M298.428 99.6844C296.016 101.522 293.994 103.073 293.598 103.398C292.518 104.288 290.458 109.528 289.13 112.202C288.072 114.355 284.633 114.908 283.336 115.045L283.503 113.445C286.451 111.975 288.709 107.291 288.709 107.291L294.537 95.9004L296.544 97.9272C296.544 97.9272 297.298 98.6203 298.428 99.6844Z" fill="#DCE7FF"/>
<path d="M293.787 90.7651C293.788 92.8664 293.217 94.9186 292.148 96.6495C290.885 98.696 289.007 100.17 286.853 100.805C284.699 101.439 282.412 101.192 280.408 100.108C278.403 99.0239 276.814 97.1747 275.928 94.8959C275.042 92.6171 274.918 90.0597 275.579 87.6878C276.239 85.3159 277.641 83.2866 279.529 81.9682C281.417 80.6497 283.666 80.1294 285.869 80.5016C288.072 80.8739 290.082 82.1141 291.535 83.9972C292.988 85.8802 293.787 88.2814 293.787 90.7651Z" fill="#FFB0B1"/>
<path opacity="0.1" d="M310.04 125.683C308.765 124.808 307.727 123.565 307.035 122.084C306.511 120.929 306.162 119.595 305.267 118.776C304.46 118.041 303.383 117.863 302.378 117.534C299.075 116.445 296.305 113.084 296.202 109.248C296.151 107.442 296.657 105.639 296.428 103.85C296.297 102.838 295.936 101.879 295.379 101.067C295.102 100.679 294.799 100.315 294.471 99.9784C294.032 99.5164 293.57 99.0683 293.168 98.5782C292.915 98.2748 292.694 97.9401 292.509 97.5806C292.36 97.2864 292.238 96.9755 292.148 96.6529C291.52 94.5106 292.091 91.9692 291.4 89.8024L291.363 89.6834C291.102 88.9133 290.571 88.1432 289.833 88.0837C289.096 88.0241 288.464 88.7067 287.761 89.0113C286.288 89.6484 284.699 88.5632 283.471 87.4571C282.244 86.3509 280.859 85.0872 279.298 85.3322C278.265 85.4968 277.449 86.2809 276.497 86.6869C276.282 86.7797 276.061 86.8511 275.835 86.9005C276.64 84.6619 278.119 82.8059 280.019 81.6511C281.918 80.4964 284.119 80.1152 286.243 80.5729C288.367 81.0306 290.282 82.2986 291.659 84.1592C293.036 86.0198 293.788 88.3567 293.787 90.7686C293.788 91.4969 293.72 92.2232 293.583 92.9354C293.598 92.9844 293.614 93.0299 293.633 93.0789C293.997 94.1291 294.409 95.2072 294.77 96.1384L296.544 97.9306C296.544 97.9306 297.298 98.6307 298.428 99.6809C300.887 101.991 305.135 106.059 307.327 108.548C309.255 110.746 309.858 119.266 310.04 125.683Z" fill="black"/>
<path d="M276.387 80.2915C276.836 79.2728 277.059 78.1317 277.596 77.1655C278.384 75.7653 279.76 74.8692 281.173 74.3266C284.863 72.9089 292.66 70.8506 294.99 74.3266C295.448 75.0267 295.828 75.8038 296.462 76.2869C296.946 76.6544 297.53 76.812 298.061 77.0885C299.546 77.8656 300.494 79.5599 301 81.2891C301.505 83.0184 301.656 84.8737 302.027 86.6554C302.501 88.9413 303.333 91.1081 304.162 93.2609C305.139 95.8023 306.175 98.4382 308.059 100.234C310.631 102.684 311.199 106.153 313.586 108.842C316.412 112.034 316.321 117.303 314.864 121.486C314.672 122.035 314.455 122.609 314.531 123.194C314.606 123.778 314.996 124.311 315.363 124.776L316.908 126.719C313.253 127.703 309.117 125.574 307.415 121.839C306.891 120.684 306.542 119.354 305.644 118.531C304.84 117.796 303.76 117.621 302.758 117.292C299.455 116.2 296.685 112.836 296.582 108.999C296.531 107.197 297.037 105.394 296.808 103.608C296.68 102.589 296.318 101.624 295.756 100.808C294.892 99.5514 293.589 98.7077 292.886 97.3075C291.696 94.9657 292.6 91.9237 291.743 89.4103C291.479 88.6402 290.951 87.8701 290.213 87.8106C289.475 87.7511 288.844 88.4337 288.138 88.7382C286.668 89.3753 285.079 88.2937 283.851 87.184C282.624 86.0744 281.239 84.8142 279.675 85.0627C278.642 85.2237 277.829 86.0078 276.877 86.4174C276.174 86.7184 274.748 86.988 274.133 86.3264C272.833 84.9927 275.844 81.5377 276.387 80.2915Z" fill="#591D4B"/>
<path opacity="0.1" d="M308.288 120.684C307.761 119.529 307.415 118.199 306.517 117.38C305.713 116.644 304.633 116.466 303.628 116.137C300.328 115.048 297.558 111.684 297.451 107.848C297.401 106.045 297.907 104.239 297.681 102.453C297.549 101.441 297.187 100.483 296.629 99.6704C295.762 98.4137 294.459 97.5701 293.759 96.1699C292.569 93.8315 293.473 90.7896 292.613 88.2727C292.352 87.5061 291.821 86.736 291.086 86.673C290.352 86.61 289.714 87.2996 289.011 87.6041C287.541 88.2412 285.949 87.156 284.724 86.0499C283.5 84.9437 282.109 83.68 280.548 83.9251C279.515 84.0896 278.698 84.8737 277.75 85.2798C277.047 85.5808 275.618 85.8538 275.003 85.1923C273.709 83.792 276.72 80.344 277.26 79.1048C277.709 78.0827 277.932 76.945 278.472 75.9789C278.501 75.9264 278.532 75.8739 278.563 75.8214C278.159 76.1944 277.811 76.6363 277.53 77.1305C276.993 78.0967 276.77 79.2309 276.321 80.2565C275.778 81.4957 272.767 84.9542 274.064 86.3439C274.692 87.009 276.105 86.736 276.808 86.4349C277.75 86.0254 278.573 85.2413 279.606 85.0802C281.176 84.8317 282.558 86.0954 283.782 87.2015C285.007 88.3077 286.609 89.3929 288.072 88.7558C288.775 88.4512 289.391 87.7651 290.144 87.8281C290.898 87.8912 291.4 88.6578 291.674 89.4279C292.531 91.9413 291.626 94.9832 292.817 97.3251C293.52 98.7008 294.823 99.5619 295.687 100.826C296.249 101.642 296.611 102.607 296.739 103.626C296.968 105.411 296.462 107.214 296.513 109.017C296.616 112.867 299.386 116.217 302.689 117.31C303.685 117.639 304.771 117.814 305.575 118.549C306.476 119.371 306.831 120.702 307.346 121.857C309.048 125.592 313.184 127.72 316.839 126.736L316.11 125.819C312.942 125.872 309.736 123.863 308.288 120.684Z" fill="black"/>
<path opacity="0.1" d="M286.64 104.708C286.228 105.408 285.051 108.992 284.068 112.122C283.148 111.723 282.313 109.178 282.313 109.178L287.218 101.4C287.72 102.17 287.39 103.447 286.64 104.708Z" fill="black"/>
<path d="M286.828 104.498C286.417 105.198 285.239 108.782 284.256 111.912C283.336 111.516 282.501 108.968 282.501 108.968L287.406 101.193C287.908 101.96 287.579 103.241 286.828 104.498Z" fill="#DCE7FF"/>
<path d="M258.309 140.259L255.59 130.699C255.558 130.587 255.546 130.469 255.555 130.352C255.563 130.235 255.593 130.121 255.641 130.017C255.69 129.912 255.756 129.819 255.837 129.744C255.917 129.668 256.011 129.611 256.111 129.575C256.314 129.505 256.533 129.526 256.721 129.635C256.909 129.744 257.051 129.931 257.116 130.156L259.835 139.706L259.565 141.705L258.309 140.259Z" fill="#BE8B87"/>
<path opacity="0.1" d="M255.847 129.859C256.05 129.787 256.27 129.808 256.459 129.917C256.648 130.026 256.791 130.214 256.855 130.44L259.575 139.989L259.371 141.488L259.569 141.719L259.839 139.72L257.104 130.17C257.039 129.945 256.897 129.758 256.708 129.649C256.52 129.541 256.301 129.519 256.099 129.589C255.928 129.651 255.781 129.774 255.681 129.939C255.734 129.908 255.79 129.881 255.847 129.859Z" fill="white"/>
<path d="M258.309 140.259L259.835 139.72L259.613 141.358L259.565 141.719L259.12 141.201L258.309 140.259Z" fill="#EFC8C4"/>
<path d="M259.12 141.201C259.146 141.163 259.179 141.132 259.217 141.11C259.239 141.094 259.265 141.086 259.291 141.086C259.317 141.086 259.342 141.094 259.364 141.11C259.386 141.138 259.404 141.17 259.418 141.204C259.439 141.243 259.467 141.276 259.501 141.301C259.534 141.325 259.573 141.341 259.613 141.348L259.565 141.698L259.12 141.201Z" fill="#727A9C"/>
<path d="M255.574 134.095C255.574 134.095 261.029 134.06 259.744 136.646C258.46 139.233 256.454 139.545 256.454 139.545L255.574 134.095Z" fill="#FFB0B1"/>
<path d="M221.651 17.9997H221.416C212.045 17.9997 203.759 23.527 198.992 31.6832C194.225 23.527 185.938 17.9997 176.568 17.9997H176.332C169.3 18.0744 162.579 21.2398 157.629 26.808C152.678 32.3762 149.899 39.8972 149.895 47.7366C149.895 57.4716 153.72 71.2847 161.178 82.6509C175.387 104.309 198.992 123.257 198.992 123.257C198.992 123.257 222.596 104.312 236.802 82.6509C244.263 71.2847 248.085 57.4716 248.085 47.7366C248.081 39.8978 245.303 32.3773 240.353 26.8092C235.403 21.2411 228.683 18.0753 221.651 17.9997ZM218.282 84.3171C217.215 84.3126 216.174 83.9484 215.296 83.2725C214.417 82.5966 213.743 81.6404 213.361 80.5295H207.759C207.39 80.527 207.031 80.3961 206.732 80.1551C206.433 79.9141 206.209 79.5751 206.092 79.1853L204.371 73.406L198.926 94.6157C198.82 95.0239 198.598 95.3829 198.293 95.6385C197.989 95.8941 197.618 96.0327 197.236 96.0334H197.127C196.729 96.0119 196.349 95.8389 196.052 95.5433C195.755 95.2477 195.558 94.8473 195.494 94.4091L189.882 56.7855L185.781 79.0488C185.687 79.4718 185.469 79.8474 185.161 80.1158C184.853 80.3842 184.473 80.5298 184.082 80.5295H176.191C175.955 80.5407 175.718 80.4984 175.497 80.4052C175.275 80.312 175.073 80.1698 174.902 79.9871C174.731 79.8045 174.595 79.5852 174.502 79.3424C174.409 79.0996 174.362 78.8384 174.362 78.5745C174.362 78.3106 174.409 78.0494 174.502 77.8066C174.595 77.5638 174.731 77.3445 174.902 77.1619C175.073 76.9792 175.275 76.837 175.497 76.7438C175.718 76.6506 175.955 76.6083 176.191 76.6195H182.701L188.51 46.6865C188.605 46.2439 188.836 45.852 189.161 45.5778C189.487 45.3036 189.889 45.1641 190.296 45.1831C190.704 45.2021 191.094 45.3785 191.398 45.6821C191.702 45.9857 191.902 46.3976 191.964 46.8475L197.695 85.2272L202.575 66.2509C202.676 65.8512 202.891 65.4989 203.187 65.2466C203.483 64.9942 203.844 64.8554 204.217 64.8507H204.252C204.621 64.8508 204.98 64.9809 205.279 65.2222C205.578 65.4636 205.801 65.804 205.916 66.1949L209.028 76.63H213.292C213.595 75.6031 214.147 74.6896 214.887 73.9903C215.626 73.291 216.525 72.833 217.483 72.667C218.441 72.5009 219.422 72.6333 220.317 73.0493C221.212 73.4654 221.986 74.149 222.555 75.0248C223.123 75.9006 223.464 76.9344 223.538 78.0123C223.613 79.0901 223.419 80.17 222.978 81.1327C222.537 82.0954 221.866 82.9036 221.039 83.468C220.212 84.0324 219.261 84.3311 218.291 84.3311L218.282 84.3171Z" fill="#3161DF"/>
</g>
<defs>
<linearGradient id="paint0_linear" x1="111.893" y1="271.245" x2="111.893" y2="55.8439" gradientUnits="userSpaceOnUse">
<stop stop-color="#808080" stop-opacity="0.25"/>
<stop offset="0.54" stop-color="#808080" stop-opacity="0.12"/>
<stop offset="1" stop-color="#808080" stop-opacity="0.1"/>
</linearGradient>
<linearGradient id="paint1_linear" x1="70093.2" y1="162523" x2="70093.2" y2="51955.8" gradientUnits="userSpaceOnUse">
<stop stop-color="#808080" stop-opacity="0.25"/>
<stop offset="0.54" stop-color="#808080" stop-opacity="0.12"/>
<stop offset="1" stop-color="#808080" stop-opacity="0.1"/>
</linearGradient>
<clipPath id="clip0">
<rect width="347" height="274" fill="white"/>
</clipPath>
</defs>
</svg>
