<svg width="336" height="252" viewBox="0 0 336 252" fill="none" xmlns="http://www.w3.org/2000/svg">
<g clip-path="url(#clip0)">
<path opacity="0.1" d="M315.902 136.792C304.09 152.829 307.988 175.72 314.816 193.957C317.103 200.062 319.701 206.52 318.515 213.162C317.067 221.282 310.26 227.366 303.185 230.679C290.286 236.719 275.049 235.754 263.512 228.145C253.555 221.577 246.546 210.663 236.396 204.409C219.409 193.946 197.356 198.62 178.45 206.609C165.075 212.26 150.423 219.538 137.389 214.32C128.217 210.648 122.04 201.301 118.791 191.309C117.222 186.485 116.124 181.249 112.998 177.473C111.139 175.228 108.683 173.663 106.158 172.356C83.1092 160.415 53.462 167.878 31.1165 154.555C16.0305 145.557 6.64089 128.096 2.73963 109.74C-1.16163 91.383 -0.196122 72.0055 1.35774 52.9594C2.46204 39.4241 4.20901 24.9604 12.4339 14.3239C21.1326 3.07829 35.7118 -1.39068 48.7491 0.370636C61.7865 2.13195 73.4752 9.29664 83.7006 17.8495C96.4905 28.5189 108.258 41.9139 124.164 45.9649C134.999 48.7233 146.51 46.7709 157.773 45.9082C176.601 44.4693 195.362 46.1261 214.008 47.9979C231.858 49.7891 249.831 51.7892 266.737 57.6613C278.7 61.8168 288.183 69.6711 299.447 75.0386C306.787 78.5374 314.865 79.3493 321.774 83.8691C330.301 89.4366 338.007 99.3 335.505 111.137C333.143 122.388 322.178 128.281 315.902 136.792Z" fill="#3161DF"/>
<g opacity="0.5">
<path opacity="0.5" d="M257.969 209.937C257.969 209.937 258.965 180.753 274.923 164.262C281.621 157.343 286.02 148.554 287.185 139.043C287.729 134.529 287.854 129.975 287.559 125.439" stroke="#535461" stroke-width="2" stroke-miterlimit="10"/>
<path opacity="0.5" d="M297.555 114.993C296.462 118.253 287.332 125.74 287.332 125.74C287.332 125.74 284.535 114.333 285.628 111.077C285.887 110.302 286.299 109.585 286.838 108.968C287.378 108.35 288.035 107.844 288.773 107.477C289.51 107.111 290.313 106.892 291.136 106.833C291.959 106.774 292.786 106.876 293.569 107.133C294.352 107.39 295.076 107.797 295.7 108.331C296.325 108.865 296.836 109.515 297.206 110.245C297.577 110.974 297.798 111.769 297.858 112.583C297.917 113.398 297.814 114.215 297.555 114.99V114.993Z" fill="#3161DF"/>
<path opacity="0.5" d="M301.359 136.278C298.644 138.428 286.877 139.807 286.877 139.807C286.877 139.807 290.799 128.729 293.515 126.582C294.153 126.032 294.898 125.615 295.703 125.357C296.509 125.099 297.359 125.005 298.202 125.08C299.045 125.155 299.865 125.398 300.611 125.794C301.357 126.191 302.014 126.732 302.543 127.386C303.072 128.04 303.462 128.793 303.69 129.6C303.917 130.407 303.977 131.251 303.867 132.082C303.756 132.912 303.477 133.712 303.046 134.433C302.615 135.155 302.042 135.782 301.359 136.278Z" fill="#3161DF"/>
<path opacity="0.5" d="M290.594 166.979C287.16 167.481 276.289 162.8 276.289 162.8C276.289 162.8 285.323 155.193 288.756 154.692C289.573 154.572 290.405 154.613 291.205 154.812C292.005 155.011 292.758 155.363 293.421 155.85C294.083 156.337 294.642 156.948 295.066 157.648C295.49 158.348 295.77 159.125 295.891 159.932C296.011 160.74 295.97 161.563 295.769 162.355C295.568 163.147 295.212 163.892 294.72 164.547C294.228 165.202 293.611 165.756 292.903 166.175C292.195 166.594 291.41 166.872 290.594 166.991V166.979Z" fill="#3161DF"/>
<path opacity="0.5" d="M277.158 188.395C273.86 189.464 262.344 186.658 262.344 186.658C262.344 186.658 269.95 177.651 273.248 176.583C274.831 176.068 276.556 176.197 278.044 176.941C279.531 177.684 280.659 178.982 281.179 180.549C281.699 182.115 281.569 183.822 280.817 185.293C280.065 186.765 278.754 187.881 277.17 188.395H277.158Z" fill="#3161DF"/>
<path opacity="0.5" d="M274.141 136.329C275.743 139.374 285.972 145.336 285.972 145.336C285.972 145.336 286.901 133.636 285.299 130.588C284.918 129.864 284.397 129.221 283.765 128.697C283.133 128.172 282.403 127.775 281.616 127.53C280.829 127.284 280.002 127.194 279.18 127.265C278.358 127.336 277.558 127.567 276.826 127.943C276.095 128.32 275.445 128.836 274.914 129.461C274.384 130.086 273.983 130.809 273.735 131.587C273.487 132.365 273.396 133.184 273.468 133.998C273.539 134.811 273.772 135.602 274.153 136.326L274.141 136.329Z" fill="#3161DF"/>
<path opacity="0.5" d="M258.75 161.57C261.2 164.003 272.75 166.666 272.75 166.666C272.75 166.666 270.098 155.226 267.651 152.793C266.475 151.625 264.879 150.967 263.212 150.964C261.546 150.961 259.947 151.613 258.767 152.777C257.587 153.94 256.922 155.52 256.919 157.168C256.915 158.817 257.574 160.399 258.75 161.567V161.57Z" fill="#3161DF"/>
<path opacity="0.5" d="M247.194 188.136C249.192 190.942 260.123 195.5 260.123 195.5C260.123 195.5 259.465 183.783 257.465 180.974C257.002 180.278 256.402 179.68 255.702 179.218C255.001 178.755 254.213 178.437 253.385 178.282C252.558 178.127 251.707 178.138 250.884 178.315C250.061 178.492 249.282 178.83 248.593 179.311C247.905 179.792 247.322 180.404 246.878 181.113C246.434 181.821 246.138 182.61 246.009 183.434C245.879 184.258 245.919 185.098 246.124 185.907C246.33 186.715 246.698 187.474 247.206 188.139L247.194 188.136Z" fill="#3161DF"/>
<path opacity="0.5" d="M261.475 197.859C261.475 197.859 252.423 184.831 254.01 172.573C254.71 167.436 253.706 162.213 251.15 157.689C249.919 155.55 248.493 153.528 246.89 151.647" stroke="#535461" stroke-width="2" stroke-miterlimit="10"/>
<path opacity="0.5" d="M247.846 143.915C248.428 145.682 246.89 151.85 246.89 151.85C246.89 151.85 241.962 147.772 241.38 146.007C241.1 145.159 241.172 144.235 241.58 143.44C241.989 142.644 242.7 142.041 243.557 141.764C244.414 141.487 245.348 141.558 246.152 141.962C246.957 142.366 247.566 143.069 247.846 143.918V143.915Z" fill="#3161DF"/>
<path opacity="0.5" d="M256.424 151.972C255.944 153.763 251.262 158.119 251.262 158.119C251.262 158.119 249.367 152.047 249.846 150.249C250.077 149.386 250.645 148.65 251.425 148.201C252.205 147.752 253.133 147.628 254.006 147.857C254.878 148.085 255.623 148.647 256.076 149.419C256.53 150.191 256.655 151.109 256.424 151.972Z" fill="#3161DF"/>
<path opacity="0.5" d="M261.716 168.767C260.386 170.078 254.125 171.496 254.125 171.496C254.125 171.496 255.585 165.307 256.919 163.997C257.236 163.685 257.612 163.438 258.025 163.27C258.439 163.102 258.881 163.017 259.328 163.018C259.775 163.019 260.217 163.108 260.63 163.278C261.042 163.449 261.416 163.698 261.731 164.012C262.046 164.325 262.296 164.697 262.465 165.106C262.635 165.515 262.722 165.953 262.72 166.395C262.719 166.838 262.63 167.275 262.457 167.683C262.285 168.091 262.033 168.462 261.716 168.773V168.767Z" fill="#3161DF"/>
<path opacity="0.5" d="M262.83 182.371C261.74 183.885 255.799 186.324 255.799 186.324C255.799 186.324 256.183 179.98 257.272 178.466C257.531 178.106 257.858 177.8 258.237 177.565C258.615 177.33 259.037 177.171 259.477 177.097C259.918 177.024 260.368 177.037 260.804 177.135C261.239 177.234 261.651 177.416 262.015 177.672C262.379 177.928 262.689 178.253 262.926 178.627C263.163 179.002 263.324 179.419 263.398 179.854C263.473 180.29 263.46 180.736 263.36 181.167C263.261 181.598 263.076 182.005 262.817 182.365L262.83 182.371Z" fill="#3161DF"/>
<path opacity="0.5" d="M244.587 160.65C246.274 161.468 252.662 160.811 252.662 160.811C252.662 160.811 249.261 155.42 247.574 154.605C246.764 154.213 245.83 154.156 244.977 154.445C244.124 154.735 243.422 155.348 243.026 156.15C242.63 156.952 242.572 157.876 242.865 158.72C243.157 159.564 243.777 160.258 244.587 160.65Z" fill="#3161DF"/>
<path opacity="0.5" d="M246.093 176.547C247.952 176.827 253.847 174.311 253.847 174.311C253.847 174.311 248.971 170.173 247.116 169.905C246.224 169.77 245.315 169.992 244.588 170.521C243.862 171.05 243.377 171.843 243.242 172.726C243.106 173.608 243.33 174.508 243.865 175.227C244.4 175.945 245.201 176.425 246.093 176.559V176.547Z" fill="#3161DF"/>
<path opacity="0.5" d="M249.696 191.793C251.479 192.39 257.721 190.897 257.721 190.897C257.721 190.897 253.624 186.004 251.841 185.416C250.985 185.135 250.05 185.201 249.244 185.601C248.437 186.001 247.824 186.702 247.54 187.549C247.255 188.396 247.323 189.321 247.727 190.119C248.131 190.917 248.839 191.523 249.696 191.805V191.793Z" fill="#3161DF"/>
<path opacity="0.5" d="M247.846 143.915C248.428 145.682 246.89 151.85 246.89 151.85C246.89 151.85 241.962 147.772 241.38 146.007C241.1 145.159 241.172 144.235 241.58 143.44C241.989 142.644 242.7 142.041 243.557 141.764C244.414 141.487 245.348 141.558 246.152 141.962C246.957 142.366 247.566 143.069 247.846 143.918V143.915Z" fill="white"/>
<path opacity="0.5" d="M256.424 151.972C255.944 153.763 251.262 158.119 251.262 158.119C251.262 158.119 249.367 152.047 249.846 150.249C250.077 149.386 250.645 148.65 251.425 148.201C252.205 147.752 253.133 147.628 254.006 147.857C254.878 148.085 255.623 148.647 256.076 149.419C256.53 150.191 256.655 151.109 256.424 151.972Z" fill="white"/>
<path opacity="0.5" d="M261.716 168.767C260.386 170.078 254.125 171.496 254.125 171.496C254.125 171.496 255.585 165.307 256.919 163.997C257.236 163.685 257.612 163.438 258.025 163.27C258.439 163.102 258.881 163.017 259.328 163.018C259.775 163.019 260.217 163.108 260.63 163.278C261.042 163.449 261.416 163.698 261.731 164.012C262.046 164.325 262.296 164.697 262.465 165.106C262.635 165.515 262.722 165.953 262.72 166.395C262.719 166.838 262.63 167.275 262.457 167.683C262.285 168.091 262.033 168.462 261.716 168.773V168.767Z" fill="white"/>
<path opacity="0.5" d="M262.83 182.371C261.74 183.885 255.799 186.324 255.799 186.324C255.799 186.324 256.183 179.98 257.272 178.466C257.531 178.106 257.858 177.8 258.237 177.565C258.615 177.33 259.037 177.171 259.477 177.097C259.918 177.024 260.368 177.037 260.804 177.135C261.239 177.234 261.651 177.416 262.015 177.672C262.379 177.928 262.689 178.253 262.926 178.627C263.163 179.002 263.324 179.419 263.398 179.854C263.473 180.29 263.46 180.736 263.36 181.167C263.261 181.598 263.076 182.005 262.817 182.365L262.83 182.371Z" fill="white"/>
<path opacity="0.5" d="M244.587 160.65C246.274 161.468 252.662 160.811 252.662 160.811C252.662 160.811 249.261 155.42 247.574 154.605C246.764 154.213 245.83 154.156 244.977 154.445C244.124 154.735 243.422 155.348 243.026 156.15C242.63 156.952 242.572 157.876 242.865 158.72C243.157 159.564 243.777 160.258 244.587 160.65Z" fill="white"/>
<path opacity="0.5" d="M246.093 176.547C247.952 176.827 253.847 174.311 253.847 174.311C253.847 174.311 248.971 170.173 247.116 169.905C246.224 169.77 245.315 169.992 244.588 170.521C243.862 171.05 243.377 171.843 243.242 172.726C243.106 173.608 243.33 174.508 243.865 175.227C244.4 175.945 245.201 176.425 246.093 176.559V176.547Z" fill="white"/>
<path opacity="0.5" d="M249.696 191.793C251.479 192.39 257.721 190.897 257.721 190.897C257.721 190.897 253.624 186.004 251.841 185.416C250.985 185.135 250.05 185.201 249.244 185.601C248.437 186.001 247.824 186.702 247.54 187.549C247.255 188.396 247.323 189.321 247.727 190.119C248.131 190.917 248.839 191.523 249.696 191.805V191.793Z" fill="white"/>
<path opacity="0.5" d="M244.726 233.184H270.472L276.911 194.336H238.291L244.726 233.184Z" fill="#474059"/>
<path opacity="0.1" d="M243.218 194.336L249.231 230.637H270.895L270.472 233.184H244.726L238.291 194.336H243.218Z" fill="black"/>
</g>
<path d="M249.608 11.7292H60.7305V237.208H249.608V11.7292Z" fill="url(#paint0_linear)"/>
<path d="M247.194 14.613H63.1443V234.33H247.194V14.613Z" fill="white"/>
<path d="M208.876 39.3908H134.652V42.9732H208.876V39.3908Z" fill="#C0BCCF"/>
<path d="M208.876 50.7349H134.652V54.3173H208.876V50.7349Z" fill="#C0BCCF"/>
<path d="M191.074 62.079H152.454V65.6614H191.074V62.079Z" fill="#3161DF"/>
<path opacity="0.5" d="M208.876 111.336H134.652V114.919H208.876V111.336Z" fill="#C0BCCF"/>
<path opacity="0.5" d="M208.876 122.68H134.652V126.263H208.876V122.68Z" fill="#C0BCCF"/>
<path opacity="0.5" d="M191.074 134.024H152.454V137.607H191.074V134.024Z" fill="#3161DF"/>
<path opacity="0.5" d="M208.876 183.282H134.652V186.864H208.876V183.282Z" fill="#C0BCCF"/>
<path opacity="0.5" d="M208.876 194.626H134.652V198.208H208.876V194.626Z" fill="#C0BCCF"/>
<path opacity="0.5" d="M191.074 205.97H152.454V209.552H191.074V205.97Z" fill="#3161DF"/>
<g opacity="0.5">
<path opacity="0.5" d="M108.52 131.317L106.963 130.624C106.987 130.39 106.997 130.155 106.993 129.92C107.004 129.721 107.004 129.522 106.993 129.323C106.84 127.752 105.829 126.385 105.114 124.949C104.459 123.638 104.043 122.224 103.886 120.77C103.696 118.979 103.886 117.122 103.222 115.438C102.682 114.08 101.614 112.945 100.47 111.942C99.1866 110.751 97.6869 109.81 96.05 109.169C94.3785 108.572 92.4565 108.42 90.785 109.029C89.2764 109.578 88.1147 110.674 86.9923 111.739C86.1773 112.45 85.4574 113.26 84.8501 114.151C84.1652 115.262 83.8725 116.54 83.6432 117.799C83.2829 119.816 83.0351 121.851 82.901 123.895C82.7833 125.6 82.5993 127.534 81.1269 128.579C80.4088 129.09 79.398 129.376 79.0691 130.15C78.9759 130.382 78.9387 130.632 78.9605 130.881C78.9514 131.088 78.9666 131.295 79.0058 131.499C79.0269 131.618 79.051 131.735 79.0812 131.854C78.6586 132.893 78.3039 133.958 78.0191 135.042C77.7989 135.848 77.5967 136.64 77.4157 137.407H77.9045H78.164L80.976 137.472H81.0152L84.0324 137.541H84.0475L86.8596 137.607H86.929L87.7406 137.664H88.0061L99.2513 137.92H99.3116L100.06 137.938H100.322L102.573 137.989L105.892 138.064H105.916L108.415 138.123H108.68H109.193L109.06 135.532C109.609 131.565 108.52 131.317 108.52 131.317ZM95.8871 131C95.8871 133.198 93.5095 135.887 93.5095 135.887L91.1169 132.663L91.2044 132.538L93.5095 135.642C93.5095 135.642 95.8871 132.956 95.8871 130.756C95.9425 130.644 96.006 130.536 96.0772 130.433L96.1315 130.6C96.0401 130.728 95.9585 130.861 95.8871 131ZM99.5439 139.622C99.5439 139.511 99.5439 139.398 99.5228 139.288C99.5017 139.177 99.5047 139.079 99.4896 138.971C99.4745 138.864 99.4625 138.759 99.4474 138.652C99.4323 138.544 99.4112 138.44 99.39 138.332C99.3689 138.225 99.3478 138.12 99.3237 138.013C99.3237 137.977 99.3086 137.944 99.2995 137.905C99.2663 137.765 99.2301 137.625 99.1909 137.484C99.1517 137.344 99.1276 137.258 99.0913 137.147C99.0913 137.096 99.0612 137.046 99.0431 136.998C99.025 136.95 98.9918 136.837 98.9646 136.756L98.9103 136.601C98.8862 136.532 98.862 136.46 98.8349 136.392C98.7896 136.266 98.7413 136.144 98.6931 136.019C98.6448 135.893 98.5935 135.771 98.5422 135.648C98.4396 135.398 98.328 135.15 98.2164 134.899C97.7789 133.932 97.2871 132.98 96.8345 132.036C96.5918 131.543 96.3762 131.036 96.1888 130.52L96.1315 130.594C96.04 130.723 95.9583 130.857 95.8871 130.997C95.8871 133.195 93.5095 135.884 93.5095 135.884L91.1169 132.66L89.0229 135.645C88.7212 135.795 88.4195 136.302 88.1841 137.025C88.1177 137.219 88.0544 137.434 87.994 137.658C87.9518 137.81 87.9126 137.956 87.8764 138.126C87.8552 138.207 87.8371 138.287 87.819 138.371L87.7647 138.625V138.664C87.7285 138.837 87.6923 139.016 87.6591 139.198C87.6259 139.38 87.5867 139.589 87.5535 139.795C87.5294 139.924 87.5083 140.053 87.4902 140.18C87.4479 140.428 87.4117 140.679 87.3755 140.929C87.3544 141.076 87.3333 141.228 87.3152 141.362L87.2428 141.918C87.3966 142.374 87.5686 142.813 87.7466 143.273C87.8598 143.514 87.9264 143.774 87.9427 144.04C91.6545 145.019 95.5607 145.019 99.2724 144.04C99.2712 144.031 99.2712 144.022 99.2724 144.013C99.2168 143.763 99.1924 143.508 99.2 143.252C99.2609 142.535 99.3617 141.821 99.5017 141.115C99.5463 140.766 99.5655 140.415 99.559 140.064V139.938C99.55 139.825 99.5469 139.723 99.5439 139.625V139.622ZM99.5439 139.622C99.5439 139.511 99.5439 139.398 99.5228 139.288C99.5017 139.177 99.5047 139.079 99.4896 138.971C99.4745 138.864 99.4625 138.759 99.4474 138.652C99.4323 138.544 99.4112 138.44 99.39 138.332C99.3689 138.225 99.3478 138.12 99.3237 138.013C99.3237 137.977 99.3086 137.944 99.2995 137.905C99.2663 137.765 99.2301 137.625 99.1909 137.484C99.1517 137.344 99.1276 137.258 99.0913 137.147C99.0913 137.096 99.0612 137.046 99.0431 136.998C99.025 136.95 98.9918 136.837 98.9646 136.756L98.9103 136.601C98.8862 136.532 98.862 136.46 98.8349 136.392C98.7896 136.266 98.7413 136.144 98.6931 136.019C98.6448 135.893 98.5935 135.771 98.5422 135.648C98.4396 135.398 98.328 135.15 98.2164 134.899C97.7789 133.932 97.2871 132.98 96.8345 132.036C96.5918 131.543 96.3762 131.036 96.1888 130.52L96.1315 130.594C96.04 130.723 95.9583 130.857 95.8871 130.997C95.8871 133.195 93.5095 135.884 93.5095 135.884L91.1169 132.66L89.0229 135.645C88.7212 135.795 88.4195 136.302 88.1841 137.025C88.1177 137.219 88.0544 137.434 87.994 137.658C87.9518 137.81 87.9126 137.956 87.8764 138.126C87.8552 138.207 87.8371 138.287 87.819 138.371L87.7647 138.625V138.664C87.7285 138.837 87.6923 139.016 87.6591 139.198C87.6259 139.38 87.5867 139.589 87.5535 139.795C87.5294 139.924 87.5083 140.053 87.4902 140.18C87.4479 140.428 87.4117 140.679 87.3755 140.929C87.3544 141.076 87.3333 141.228 87.3152 141.362L87.2428 141.918C87.3966 142.374 87.5686 142.813 87.7466 143.273C87.8598 143.514 87.9264 143.774 87.9427 144.04C91.6545 145.019 95.5607 145.019 99.2724 144.04C99.2712 144.031 99.2712 144.022 99.2724 144.013C99.2168 143.763 99.1924 143.508 99.2 143.252C99.2609 142.535 99.3617 141.821 99.5017 141.115C99.5463 140.766 99.5655 140.415 99.559 140.064V139.938C99.55 139.825 99.5469 139.723 99.5439 139.625V139.622ZM99.5439 139.622C99.5439 139.511 99.5439 139.398 99.5228 139.288C99.5017 139.177 99.5047 139.079 99.4896 138.971C99.4745 138.864 99.4625 138.759 99.4474 138.652C99.4323 138.544 99.4112 138.44 99.39 138.332C99.3689 138.225 99.3478 138.12 99.3237 138.013C99.3237 137.977 99.3086 137.944 99.2995 137.905C99.2663 137.765 99.2301 137.625 99.1909 137.484C99.1517 137.344 99.1276 137.258 99.0913 137.147C99.0913 137.096 99.0612 137.046 99.0431 136.998C99.025 136.95 98.9918 136.837 98.9646 136.756L98.9103 136.601C98.8862 136.532 98.862 136.46 98.8349 136.392C98.7896 136.266 98.7413 136.144 98.6931 136.019C98.6448 135.893 98.5935 135.771 98.5422 135.648C98.4396 135.398 98.328 135.15 98.2164 134.899C97.7789 133.932 97.2871 132.98 96.8345 132.036C96.5918 131.543 96.3762 131.036 96.1888 130.52L96.1315 130.594C96.04 130.723 95.9583 130.857 95.8871 130.997C95.8871 133.195 93.5095 135.884 93.5095 135.884L91.1169 132.66L89.0229 135.645C88.7212 135.795 88.4195 136.302 88.1841 137.025C88.1177 137.219 88.0544 137.434 87.994 137.658C87.9518 137.81 87.9126 137.956 87.8764 138.126C87.8552 138.207 87.8371 138.287 87.819 138.371L87.7647 138.625V138.664C87.7285 138.837 87.6923 139.016 87.6591 139.198C87.6259 139.38 87.5867 139.589 87.5535 139.795C87.5294 139.924 87.5083 140.053 87.4902 140.18C87.4479 140.428 87.4117 140.679 87.3755 140.929C87.3544 141.076 87.3333 141.228 87.3152 141.362L87.2428 141.918C87.3966 142.374 87.5686 142.813 87.7466 143.273C87.8598 143.514 87.9264 143.774 87.9427 144.04C91.6545 145.019 95.5607 145.019 99.2724 144.04C99.2712 144.031 99.2712 144.022 99.2724 144.013C99.2168 143.763 99.1924 143.508 99.2 143.252C99.2609 142.535 99.3617 141.821 99.5017 141.115C99.5463 140.766 99.5655 140.415 99.559 140.064V139.938C99.55 139.825 99.5469 139.723 99.5439 139.625V139.622ZM99.5439 139.622C99.5439 139.511 99.5439 139.398 99.5228 139.288C99.5017 139.177 99.5047 139.079 99.4896 138.971C99.4745 138.864 99.4625 138.759 99.4474 138.652C99.4323 138.544 99.4112 138.44 99.39 138.332C99.3689 138.225 99.3478 138.12 99.3237 138.013C99.3237 137.977 99.3086 137.944 99.2995 137.905C99.2663 137.765 99.2301 137.625 99.1909 137.484C99.1517 137.344 99.1276 137.258 99.0913 137.147C99.0913 137.096 99.0612 137.046 99.0431 136.998C99.025 136.95 98.9918 136.837 98.9646 136.756L98.9103 136.601C98.8862 136.532 98.862 136.46 98.8349 136.392C98.7896 136.266 98.7413 136.144 98.6931 136.019C98.6448 135.893 98.5935 135.771 98.5422 135.648C98.4396 135.398 98.328 135.15 98.2164 134.899C97.7789 133.932 97.2871 132.98 96.8345 132.036C96.5918 131.543 96.3762 131.036 96.1888 130.52L96.1315 130.594C96.04 130.723 95.9583 130.857 95.8871 130.997C95.8871 133.195 93.5095 135.884 93.5095 135.884L91.1169 132.66L89.0229 135.645C88.7212 135.795 88.4195 136.302 88.1841 137.025C88.1177 137.219 88.0544 137.434 87.994 137.658C87.9518 137.81 87.9126 137.956 87.8764 138.126C87.8552 138.207 87.8371 138.287 87.819 138.371L87.7647 138.625V138.664C87.7285 138.837 87.6923 139.016 87.6591 139.198C87.6259 139.38 87.5867 139.589 87.5535 139.795C87.5294 139.924 87.5083 140.053 87.4902 140.18C87.4479 140.428 87.4117 140.679 87.3755 140.929C87.3544 141.076 87.3333 141.228 87.3152 141.362L87.2428 141.918C87.3966 142.374 87.5686 142.813 87.7466 143.273C87.8598 143.514 87.9264 143.774 87.9427 144.04C91.6545 145.019 95.5607 145.019 99.2724 144.04C99.2712 144.031 99.2712 144.022 99.2724 144.013C99.2168 143.763 99.1924 143.508 99.2 143.252C99.2609 142.535 99.3617 141.821 99.5017 141.115C99.5463 140.766 99.5655 140.415 99.559 140.064V139.938C99.55 139.825 99.5469 139.723 99.5439 139.625V139.622Z" fill="url(#paint1_linear)"/>
<path opacity="0.5" d="M99.6526 118.799H85.7734V128.054H99.6526V118.799Z" fill="#493545"/>
<path opacity="0.5" d="M101.958 129.006L96.1496 137.102L90.0789 136.58C90.0789 136.58 82.1587 137.099 87.4389 131.096C89.9763 128.209 90.8061 125.803 90.9841 124.086C91.1772 122.23 90.6069 121.173 90.6069 121.173L97.2056 120.391C96.9078 121.27 96.8702 122.216 97.097 123.116C97.9237 126.508 101.958 129.006 101.958 129.006Z" fill="#C77485"/>
<path opacity="0.1" d="M97.094 123.107C96.2333 123.752 95.2259 124.178 94.1601 124.348C93.0943 124.517 92.0027 124.426 90.9811 124.08C91.1742 122.224 90.6039 121.167 90.6039 121.167L97.2026 120.385C96.9054 121.264 96.8677 122.208 97.094 123.107Z" fill="black"/>
<path opacity="0.5" d="M93.1142 124.17C96.7586 124.17 99.7129 121.247 99.7129 117.641C99.7129 114.035 96.7586 111.112 93.1142 111.112C89.4699 111.112 86.5156 114.035 86.5156 117.641C86.5156 121.247 89.4699 124.17 93.1142 124.17Z" fill="#C77485"/>
<path opacity="0.1" d="M101.716 129.341L101.562 128.743L101.43 128.218L101.234 127.442L101.197 127.299L101.167 127.179C101.167 127.179 101.324 126.711 100.289 126.863L100.096 126.896C99.9331 126.928 99.7431 126.973 99.5258 127.033L99.3297 127.093L99.0702 127.173C98.2487 127.438 97.4994 127.885 96.8797 128.481C96.6016 128.744 96.3555 129.039 96.1465 129.358C96.1254 129.388 96.1103 129.415 96.0922 129.439C96.0208 129.55 95.9573 129.666 95.9021 129.785C95.9021 132.138 93.5246 135.01 93.5246 135.01L91.2043 131.693L91.1591 131.627L90.6069 130.833L90.4108 130.576L90.3444 130.487L89.1375 128.884L88.8358 128.484L88.7363 128.349L88.5884 128.155L88.2414 127.699L86.8837 128.484L85.0734 129.529L84.0173 136.32V136.508L84.0505 137.069L84.2708 140.759V140.81L83.8846 142.339L83.9419 142.368C84.8532 142.855 85.8015 143.27 86.7781 143.61L87.0345 143.7C87.3363 143.798 87.6199 143.888 87.9156 143.974C87.9265 144.019 87.9346 144.064 87.9397 144.109C87.9397 144.067 87.9397 144.022 87.9397 143.98C91.6422 145.027 95.5669 145.027 99.2694 143.98L99.3388 143.96C99.5107 143.912 99.6857 143.861 99.8547 143.804L100.129 143.718C100.874 143.471 101.603 143.182 102.314 142.852L102.567 137.508L102.748 133.654V133.433L101.716 129.341Z" fill="black"/>
<path opacity="0.5" d="M99.5439 139.267C99.5439 139.147 99.5439 139.028 99.5228 138.908C99.5017 138.789 99.5047 138.684 99.4896 138.571C99.4745 138.458 99.4625 138.344 99.4474 138.231C99.4323 138.117 99.4112 138.004 99.3901 137.89C99.3689 137.777 99.3478 137.664 99.3237 137.55C99.3237 137.511 99.3086 137.475 99.2995 137.437C99.2664 137.287 99.2302 137.138 99.1909 136.986C99.1517 136.834 99.1276 136.744 99.0914 136.625C99.0914 136.571 99.0612 136.517 99.0431 136.466C99.025 136.416 98.9918 136.293 98.9646 136.207L98.9103 136.04C98.8862 135.965 98.862 135.89 98.8349 135.816C98.7896 135.681 98.7414 135.55 98.6931 135.416C98.6448 135.281 98.5935 135.15 98.5422 135.019C98.4396 134.75 98.328 134.484 98.2164 134.219C97.7789 133.186 97.2871 132.168 96.8345 131.159C96.5913 130.63 96.3757 130.089 96.1888 129.538L96.1315 129.618C96.0397 129.756 95.9581 129.899 95.8871 130.048C95.8871 132.397 93.5095 135.272 93.5095 135.272L91.1169 131.824L89.0229 135.01C88.7212 135.168 88.4195 135.711 88.1841 136.484C88.1178 136.693 88.0544 136.92 87.994 137.162C87.9518 137.323 87.9126 137.493 87.8764 137.664C87.8553 137.75 87.8372 137.837 87.8191 137.926L87.7647 138.198V138.24C87.7285 138.425 87.6923 138.616 87.6591 138.81C87.6259 139.004 87.5867 139.228 87.5535 139.44C87.5294 139.577 87.5083 139.714 87.4902 139.852C87.4479 140.117 87.4117 140.386 87.3755 140.652C87.3544 140.807 87.3333 140.95 87.3152 141.115L87.2428 141.712C87.3966 142.201 87.5686 142.685 87.7466 143.159C87.8604 143.42 87.9268 143.697 87.9428 143.98C91.6452 145.027 95.57 145.027 99.2724 143.98C99.2711 143.97 99.2711 143.96 99.2724 143.951C99.2166 143.683 99.1923 143.409 99.2 143.136C99.2609 142.37 99.3616 141.607 99.5017 140.852C99.5462 140.479 99.5654 140.104 99.559 139.729V139.595C99.55 139.482 99.547 139.374 99.5439 139.267ZM99.5439 139.267C99.5439 139.147 99.5439 139.028 99.5228 138.908C99.5017 138.789 99.5047 138.684 99.4896 138.571C99.4745 138.458 99.4625 138.344 99.4474 138.231C99.4323 138.117 99.4112 138.004 99.3901 137.89C99.3689 137.777 99.3478 137.664 99.3237 137.55C99.3237 137.511 99.3086 137.475 99.2995 137.437C99.2664 137.287 99.2302 137.138 99.1909 136.986C99.1517 136.834 99.1276 136.744 99.0914 136.625C99.0914 136.571 99.0612 136.517 99.0431 136.466C99.025 136.416 98.9918 136.293 98.9646 136.207L98.9103 136.04C98.8862 135.965 98.862 135.89 98.8349 135.816C98.7896 135.681 98.7414 135.55 98.6931 135.416C98.6448 135.281 98.5935 135.15 98.5422 135.019C98.4396 134.75 98.328 134.484 98.2164 134.219C97.7789 133.186 97.2871 132.168 96.8345 131.159C96.5913 130.63 96.3757 130.089 96.1888 129.538L96.1315 129.618C96.0397 129.756 95.9581 129.899 95.8871 130.048C95.8871 132.397 93.5095 135.272 93.5095 135.272L91.1169 131.824L89.0229 135.01C88.7212 135.168 88.4195 135.711 88.1841 136.484C88.1178 136.693 88.0544 136.92 87.994 137.162C87.9518 137.323 87.9126 137.493 87.8764 137.664C87.8553 137.75 87.8372 137.837 87.8191 137.926L87.7647 138.198V138.24C87.7285 138.425 87.6923 138.616 87.6591 138.81C87.6259 139.004 87.5867 139.228 87.5535 139.44C87.5294 139.577 87.5083 139.714 87.4902 139.852C87.4479 140.117 87.4117 140.386 87.3755 140.652C87.3544 140.807 87.3333 140.95 87.3152 141.115L87.2428 141.712C87.3966 142.201 87.5686 142.685 87.7466 143.159C87.8604 143.42 87.9268 143.697 87.9428 143.98C91.6452 145.027 95.57 145.027 99.2724 143.98C99.2711 143.97 99.2711 143.96 99.2724 143.951C99.2166 143.683 99.1923 143.409 99.2 143.136C99.2609 142.37 99.3616 141.607 99.5017 140.852C99.5462 140.479 99.5654 140.104 99.559 139.729V139.595C99.55 139.482 99.547 139.374 99.5439 139.267ZM99.5439 139.267C99.5439 139.147 99.5439 139.028 99.5228 138.908C99.5017 138.789 99.5047 138.684 99.4896 138.571C99.4745 138.458 99.4625 138.344 99.4474 138.231C99.4323 138.117 99.4112 138.004 99.3901 137.89C99.3689 137.777 99.3478 137.664 99.3237 137.55C99.3237 137.511 99.3086 137.475 99.2995 137.437C99.2664 137.287 99.2302 137.138 99.1909 136.986C99.1517 136.834 99.1276 136.744 99.0914 136.625C99.0914 136.571 99.0612 136.517 99.0431 136.466C99.025 136.416 98.9918 136.293 98.9646 136.207L98.9103 136.04C98.8862 135.965 98.862 135.89 98.8349 135.816C98.7896 135.681 98.7414 135.55 98.6931 135.416C98.6448 135.281 98.5935 135.15 98.5422 135.019C98.4396 134.75 98.328 134.484 98.2164 134.219C97.7789 133.186 97.2871 132.168 96.8345 131.159C96.5913 130.63 96.3757 130.089 96.1888 129.538L96.1315 129.618C96.0397 129.756 95.9581 129.899 95.8871 130.048C95.8871 132.397 93.5095 135.272 93.5095 135.272L91.1169 131.824L89.0229 135.01C88.7212 135.168 88.4195 135.711 88.1841 136.484C88.1178 136.693 88.0544 136.92 87.994 137.162C87.9518 137.323 87.9126 137.493 87.8764 137.664C87.8553 137.75 87.8372 137.837 87.8191 137.926L87.7647 138.198V138.24C87.7285 138.425 87.6923 138.616 87.6591 138.81C87.6259 139.004 87.5867 139.228 87.5535 139.44C87.5294 139.577 87.5083 139.714 87.4902 139.852C87.4479 140.117 87.4117 140.386 87.3755 140.652C87.3544 140.807 87.3333 140.95 87.3152 141.115L87.2428 141.712C87.3966 142.201 87.5686 142.685 87.7466 143.159C87.8604 143.42 87.9268 143.697 87.9428 143.98C91.6452 145.027 95.57 145.027 99.2724 143.98C99.2711 143.97 99.2711 143.96 99.2724 143.951C99.2166 143.683 99.1923 143.409 99.2 143.136C99.2609 142.37 99.3616 141.607 99.5017 140.852C99.5462 140.479 99.5654 140.104 99.559 139.729V139.595C99.55 139.482 99.547 139.374 99.5439 139.267ZM102.742 133.663L101.665 129.409L101.481 128.681L101.43 128.481L101.167 127.442C101.168 127.433 101.168 127.424 101.167 127.415C101.173 127.369 101.166 127.323 101.146 127.281C101.107 127.203 101.007 127.122 100.775 127.102C100.687 127.095 100.598 127.095 100.509 127.102C100.247 127.127 99.9879 127.175 99.734 127.245C99.6103 127.278 99.4776 127.314 99.3357 127.358L99.0763 127.439H99.0521C98.3572 127.665 97.7121 128.019 97.1513 128.484C96.7808 128.789 96.4558 129.145 96.1858 129.541L96.1284 129.621C96.0367 129.758 95.955 129.902 95.8841 130.051C95.8841 132.4 93.5065 135.275 93.5065 135.275L91.1138 131.827L90.9781 131.633L90.9539 131.6L90.607 131.096L90.3445 130.75L90.2751 130.66L89.038 129.027L88.6458 128.499V128.481L88.51 128.299L88.2505 127.958L87.3453 128.481L85.0824 129.785L84.0385 136.505V136.577L84.0686 137.066L84.2919 140.807V141.019L83.951 142.365C84.8623 142.852 85.8105 143.267 86.7872 143.607L87.0436 143.697C87.3453 143.795 87.629 143.885 87.9246 143.971C87.9356 144.016 87.9437 144.061 87.9488 144.106C87.9488 144.064 87.9488 144.019 87.9488 143.977C91.6512 145.024 95.576 145.024 99.2784 143.977L99.3478 143.957C99.5198 143.909 99.6948 143.858 99.8638 143.801L100.138 143.715C100.883 143.468 101.612 143.179 102.323 142.849L102.573 137.511L102.754 133.699L102.742 133.663ZM87.9035 143.971C87.9145 144.016 87.9226 144.061 87.9277 144.106C87.9277 144.064 87.9277 144.019 87.9277 143.977L87.9035 143.971ZM99.5439 139.267C99.5439 139.147 99.5439 139.028 99.5228 138.908C99.5017 138.789 99.5047 138.684 99.4896 138.571C99.4745 138.458 99.4625 138.344 99.4474 138.231C99.4323 138.117 99.4112 138.004 99.3901 137.89C99.3689 137.777 99.3478 137.664 99.3237 137.55C99.3237 137.511 99.3086 137.475 99.2995 137.437C99.2664 137.287 99.2302 137.138 99.1909 136.986C99.1517 136.834 99.1276 136.744 99.0914 136.625C99.0914 136.571 99.0612 136.517 99.0431 136.466C99.025 136.416 98.9918 136.293 98.9646 136.207L98.9103 136.04C98.8862 135.965 98.862 135.89 98.8349 135.816C98.7896 135.681 98.7414 135.55 98.6931 135.416C98.6448 135.281 98.5935 135.15 98.5422 135.019C98.4396 134.75 98.328 134.484 98.2164 134.219C97.7789 133.186 97.2871 132.168 96.8345 131.159C96.5913 130.63 96.3757 130.089 96.1888 129.538L96.1315 129.618C96.0397 129.756 95.9581 129.899 95.8871 130.048C95.8871 132.397 93.5095 135.272 93.5095 135.272L91.1169 131.824L89.0229 135.01C88.7212 135.168 88.4195 135.711 88.1841 136.484C88.1178 136.693 88.0544 136.92 87.994 137.162C87.9518 137.323 87.9126 137.493 87.8764 137.664C87.8553 137.75 87.8372 137.837 87.8191 137.926L87.7647 138.198V138.24C87.7285 138.425 87.6923 138.616 87.6591 138.81C87.6259 139.004 87.5867 139.228 87.5535 139.44C87.5294 139.577 87.5083 139.714 87.4902 139.852C87.4479 140.117 87.4117 140.386 87.3755 140.652C87.3544 140.807 87.3333 140.95 87.3152 141.115L87.2428 141.712C87.3966 142.201 87.5686 142.685 87.7466 143.159C87.8604 143.42 87.9268 143.697 87.9428 143.98C91.6452 145.027 95.57 145.027 99.2724 143.98C99.2711 143.97 99.2711 143.96 99.2724 143.951C99.2166 143.683 99.1923 143.409 99.2 143.136C99.2609 142.37 99.3616 141.607 99.5017 140.852C99.5462 140.479 99.5654 140.104 99.559 139.729V139.595C99.55 139.482 99.547 139.374 99.5439 139.267ZM99.5439 139.267C99.5439 139.147 99.5439 139.028 99.5228 138.908C99.5017 138.789 99.5047 138.684 99.4896 138.571C99.4745 138.458 99.4625 138.344 99.4474 138.231C99.4323 138.117 99.4112 138.004 99.3901 137.89C99.3689 137.777 99.3478 137.664 99.3237 137.55C99.3237 137.511 99.3086 137.475 99.2995 137.437C99.2664 137.287 99.2302 137.138 99.1909 136.986C99.1517 136.834 99.1276 136.744 99.0914 136.625C99.0914 136.571 99.0612 136.517 99.0431 136.466C99.025 136.416 98.9918 136.293 98.9646 136.207L98.9103 136.04C98.8862 135.965 98.862 135.89 98.8349 135.816C98.7896 135.681 98.7414 135.55 98.6931 135.416C98.6448 135.281 98.5935 135.15 98.5422 135.019C98.4396 134.75 98.328 134.484 98.2164 134.219C97.7789 133.186 97.2871 132.168 96.8345 131.159C96.5913 130.63 96.3757 130.089 96.1888 129.538L96.1315 129.618C96.0397 129.756 95.9581 129.899 95.8871 130.048C95.8871 132.397 93.5095 135.272 93.5095 135.272L91.1169 131.824L89.0229 135.01C88.7212 135.168 88.4195 135.711 88.1841 136.484C88.1178 136.693 88.0544 136.92 87.994 137.162C87.9518 137.323 87.9126 137.493 87.8764 137.664C87.8553 137.75 87.8372 137.837 87.8191 137.926L87.7647 138.198V138.24C87.7285 138.425 87.6923 138.616 87.6591 138.81C87.6259 139.004 87.5867 139.228 87.5535 139.44C87.5294 139.577 87.5083 139.714 87.4902 139.852C87.4479 140.117 87.4117 140.386 87.3755 140.652C87.3544 140.807 87.3333 140.95 87.3152 141.115L87.2428 141.712C87.3966 142.201 87.5686 142.685 87.7466 143.159C87.8604 143.42 87.9268 143.697 87.9428 143.98C91.6452 145.027 95.57 145.027 99.2724 143.98C99.2711 143.97 99.2711 143.96 99.2724 143.951C99.2166 143.683 99.1923 143.409 99.2 143.136C99.2609 142.37 99.3616 141.607 99.5017 140.852C99.5462 140.479 99.5654 140.104 99.559 139.729V139.595C99.55 139.482 99.547 139.374 99.5439 139.267ZM99.5439 139.267C99.5439 139.147 99.5439 139.028 99.5228 138.908C99.5017 138.789 99.5047 138.684 99.4896 138.571C99.4745 138.458 99.4625 138.344 99.4474 138.231C99.4323 138.117 99.4112 138.004 99.3901 137.89C99.3689 137.777 99.3478 137.664 99.3237 137.55C99.3237 137.511 99.3086 137.475 99.2995 137.437C99.2664 137.287 99.2302 137.138 99.1909 136.986C99.1517 136.834 99.1276 136.744 99.0914 136.625C99.0914 136.571 99.0612 136.517 99.0431 136.466C99.025 136.416 98.9918 136.293 98.9646 136.207L98.9103 136.04C98.8862 135.965 98.862 135.89 98.8349 135.816C98.7896 135.681 98.7414 135.55 98.6931 135.416C98.6448 135.281 98.5935 135.15 98.5422 135.019C98.4396 134.75 98.328 134.484 98.2164 134.219C97.7789 133.186 97.2871 132.168 96.8345 131.159C96.5913 130.63 96.3757 130.089 96.1888 129.538L96.1315 129.618C96.0397 129.756 95.9581 129.899 95.8871 130.048C95.8871 132.397 93.5095 135.272 93.5095 135.272L91.1169 131.824L89.0229 135.01C88.7212 135.168 88.4195 135.711 88.1841 136.484C88.1178 136.693 88.0544 136.92 87.994 137.162C87.9518 137.323 87.9126 137.493 87.8764 137.664C87.8553 137.75 87.8372 137.837 87.8191 137.926L87.7647 138.198V138.24C87.7285 138.425 87.6923 138.616 87.6591 138.81C87.6259 139.004 87.5867 139.228 87.5535 139.44C87.5294 139.577 87.5083 139.714 87.4902 139.852C87.4479 140.117 87.4117 140.386 87.3755 140.652C87.3544 140.807 87.3333 140.95 87.3152 141.115L87.2428 141.712C87.3966 142.201 87.5686 142.685 87.7466 143.159C87.8604 143.42 87.9268 143.697 87.9428 143.98C91.6452 145.027 95.57 145.027 99.2724 143.98C99.2711 143.97 99.2711 143.96 99.2724 143.951C99.2166 143.683 99.1923 143.409 99.2 143.136C99.2609 142.37 99.3616 141.607 99.5017 140.852C99.5462 140.479 99.5654 140.104 99.559 139.729V139.595C99.55 139.482 99.547 139.374 99.5439 139.267ZM99.5439 139.267C99.5439 139.147 99.5439 139.028 99.5228 138.908C99.5017 138.789 99.5047 138.684 99.4896 138.571C99.4745 138.458 99.4625 138.344 99.4474 138.231C99.4323 138.117 99.4112 138.004 99.3901 137.89C99.3689 137.777 99.3478 137.664 99.3237 137.55C99.3237 137.511 99.3086 137.475 99.2995 137.437C99.2664 137.287 99.2302 137.138 99.1909 136.986C99.1517 136.834 99.1276 136.744 99.0914 136.625C99.0914 136.571 99.0612 136.517 99.0431 136.466C99.025 136.416 98.9918 136.293 98.9646 136.207L98.9103 136.04C98.8862 135.965 98.862 135.89 98.8349 135.816C98.7896 135.681 98.7414 135.55 98.6931 135.416C98.6448 135.281 98.5935 135.15 98.5422 135.019C98.4396 134.75 98.328 134.484 98.2164 134.219C97.7789 133.186 97.2871 132.168 96.8345 131.159C96.5913 130.63 96.3757 130.089 96.1888 129.538L96.1315 129.618C96.0397 129.756 95.9581 129.899 95.8871 130.048C95.8871 132.397 93.5095 135.272 93.5095 135.272L91.1169 131.824L89.0229 135.01C88.7212 135.168 88.4195 135.711 88.1841 136.484C88.1178 136.693 88.0544 136.92 87.994 137.162C87.9518 137.323 87.9126 137.493 87.8764 137.664C87.8553 137.75 87.8372 137.837 87.8191 137.926L87.7647 138.198V138.24C87.7285 138.425 87.6923 138.616 87.6591 138.81C87.6259 139.004 87.5867 139.228 87.5535 139.44C87.5294 139.577 87.5083 139.714 87.4902 139.852C87.4479 140.117 87.4117 140.386 87.3755 140.652C87.3544 140.807 87.3333 140.95 87.3152 141.115L87.2428 141.712C87.3966 142.201 87.5686 142.685 87.7466 143.159C87.8604 143.42 87.9268 143.697 87.9428 143.98C91.6452 145.027 95.57 145.027 99.2724 143.98C99.2711 143.97 99.2711 143.96 99.2724 143.951C99.2166 143.683 99.1923 143.409 99.2 143.136C99.2609 142.37 99.3616 141.607 99.5017 140.852C99.5462 140.479 99.5654 140.104 99.559 139.729V139.595C99.55 139.482 99.547 139.374 99.5439 139.267ZM99.5439 139.267C99.5439 139.147 99.5439 139.028 99.5228 138.908C99.5017 138.789 99.5047 138.684 99.4896 138.571C99.4745 138.458 99.4625 138.344 99.4474 138.231C99.4323 138.117 99.4112 138.004 99.3901 137.89C99.3689 137.777 99.3478 137.664 99.3237 137.55C99.3237 137.511 99.3086 137.475 99.2995 137.437C99.2664 137.287 99.2302 137.138 99.1909 136.986C99.1517 136.834 99.1276 136.744 99.0914 136.625C99.0914 136.571 99.0612 136.517 99.0431 136.466C99.025 136.416 98.9918 136.293 98.9646 136.207L98.9103 136.04C98.8862 135.965 98.862 135.89 98.8349 135.816C98.7896 135.681 98.7414 135.55 98.6931 135.416C98.6448 135.281 98.5935 135.15 98.5422 135.019C98.4396 134.75 98.328 134.484 98.2164 134.219C97.7789 133.186 97.2871 132.168 96.8345 131.159C96.5913 130.63 96.3757 130.089 96.1888 129.538L96.1315 129.618C96.0397 129.756 95.9581 129.899 95.8871 130.048C95.8871 132.397 93.5095 135.272 93.5095 135.272L91.1169 131.824L89.0229 135.01C88.7212 135.168 88.4195 135.711 88.1841 136.484C88.1178 136.693 88.0544 136.92 87.994 137.162C87.9518 137.323 87.9126 137.493 87.8764 137.664C87.8553 137.75 87.8372 137.837 87.8191 137.926L87.7647 138.198V138.24C87.7285 138.425 87.6923 138.616 87.6591 138.81C87.6259 139.004 87.5867 139.228 87.5535 139.44C87.5294 139.577 87.5083 139.714 87.4902 139.852C87.4479 140.117 87.4117 140.386 87.3755 140.652C87.3544 140.807 87.3333 140.95 87.3152 141.115L87.2428 141.712C87.3966 142.201 87.5686 142.685 87.7466 143.159C87.8604 143.42 87.9268 143.697 87.9428 143.98C91.6452 145.027 95.57 145.027 99.2724 143.98C99.2711 143.97 99.2711 143.96 99.2724 143.951C99.2166 143.683 99.1923 143.409 99.2 143.136C99.2609 142.37 99.3616 141.607 99.5017 140.852C99.5462 140.479 99.5654 140.104 99.559 139.729V139.595C99.55 139.482 99.547 139.374 99.5439 139.267ZM99.5439 139.267C99.5439 139.147 99.5439 139.028 99.5228 138.908C99.5017 138.789 99.5047 138.684 99.4896 138.571C99.4745 138.458 99.4625 138.344 99.4474 138.231C99.4323 138.117 99.4112 138.004 99.3901 137.89C99.3689 137.777 99.3478 137.664 99.3237 137.55C99.3237 137.511 99.3086 137.475 99.2995 137.437C99.2664 137.287 99.2302 137.138 99.1909 136.986C99.1517 136.834 99.1276 136.744 99.0914 136.625C99.0914 136.571 99.0612 136.517 99.0431 136.466C99.025 136.416 98.9918 136.293 98.9646 136.207L98.9103 136.04C98.8862 135.965 98.862 135.89 98.8349 135.816C98.7896 135.681 98.7414 135.55 98.6931 135.416C98.6448 135.281 98.5935 135.15 98.5422 135.019C98.4396 134.75 98.328 134.484 98.2164 134.219C97.7789 133.186 97.2871 132.168 96.8345 131.159C96.5913 130.63 96.3757 130.089 96.1888 129.538L96.1315 129.618C96.0397 129.756 95.9581 129.899 95.8871 130.048C95.8871 132.397 93.5095 135.272 93.5095 135.272L91.1169 131.824L89.0229 135.01C88.7212 135.168 88.4195 135.711 88.1841 136.484C88.1178 136.693 88.0544 136.92 87.994 137.162C87.9518 137.323 87.9126 137.493 87.8764 137.664C87.8553 137.75 87.8372 137.837 87.8191 137.926L87.7647 138.198V138.24C87.7285 138.425 87.6923 138.616 87.6591 138.81C87.6259 139.004 87.5867 139.228 87.5535 139.44C87.5294 139.577 87.5083 139.714 87.4902 139.852C87.4479 140.117 87.4117 140.386 87.3755 140.652C87.3544 140.807 87.3333 140.95 87.3152 141.115L87.2428 141.712C87.3966 142.201 87.5686 142.685 87.7466 143.159C87.8604 143.42 87.9268 143.697 87.9428 143.98C91.6452 145.027 95.57 145.027 99.2724 143.98C99.2711 143.97 99.2711 143.96 99.2724 143.951C99.2166 143.683 99.1923 143.409 99.2 143.136C99.2609 142.37 99.3616 141.607 99.5017 140.852C99.5462 140.479 99.5654 140.104 99.559 139.729V139.595C99.55 139.482 99.547 139.374 99.5439 139.267ZM99.5439 139.267C99.5439 139.147 99.5439 139.028 99.5228 138.908C99.5017 138.789 99.5047 138.684 99.4896 138.571C99.4745 138.458 99.4625 138.344 99.4474 138.231C99.4323 138.117 99.4112 138.004 99.3901 137.89C99.3689 137.777 99.3478 137.664 99.3237 137.55C99.3237 137.511 99.3086 137.475 99.2995 137.437C99.2664 137.287 99.2302 137.138 99.1909 136.986C99.1517 136.834 99.1276 136.744 99.0914 136.625C99.0914 136.571 99.0612 136.517 99.0431 136.466C99.025 136.416 98.9918 136.293 98.9646 136.207L98.9103 136.04C98.8862 135.965 98.862 135.89 98.8349 135.816C98.7896 135.681 98.7414 135.55 98.6931 135.416C98.6448 135.281 98.5935 135.15 98.5422 135.019C98.4396 134.75 98.328 134.484 98.2164 134.219C97.7789 133.186 97.2871 132.168 96.8345 131.159C96.5913 130.63 96.3757 130.089 96.1888 129.538L96.1315 129.618C96.0397 129.756 95.9581 129.899 95.8871 130.048C95.8871 132.397 93.5095 135.272 93.5095 135.272L91.1169 131.824L89.0229 135.01C88.7212 135.168 88.4195 135.711 88.1841 136.484C88.1178 136.693 88.0544 136.92 87.994 137.162C87.9518 137.323 87.9126 137.493 87.8764 137.664C87.8553 137.75 87.8372 137.837 87.8191 137.926L87.7647 138.198V138.24C87.7285 138.425 87.6923 138.616 87.6591 138.81C87.6259 139.004 87.5867 139.228 87.5535 139.44C87.5294 139.577 87.5083 139.714 87.4902 139.852C87.4479 140.117 87.4117 140.386 87.3755 140.652C87.3544 140.807 87.3333 140.95 87.3152 141.115L87.2428 141.712C87.3966 142.201 87.5686 142.685 87.7466 143.159C87.8604 143.42 87.9268 143.697 87.9428 143.98C91.6452 145.027 95.57 145.027 99.2724 143.98C99.2711 143.97 99.2711 143.96 99.2724 143.951C99.2166 143.683 99.1923 143.409 99.2 143.136C99.2609 142.37 99.3616 141.607 99.5017 140.852C99.5462 140.479 99.5654 140.104 99.559 139.729V139.595C99.55 139.482 99.547 139.374 99.5439 139.267ZM99.5439 139.267C99.5439 139.147 99.5439 139.028 99.5228 138.908C99.5017 138.789 99.5047 138.684 99.4896 138.571C99.4745 138.458 99.4625 138.344 99.4474 138.231C99.4323 138.117 99.4112 138.004 99.3901 137.89C99.3689 137.777 99.3478 137.664 99.3237 137.55C99.3237 137.511 99.3086 137.475 99.2995 137.437C99.2664 137.287 99.2302 137.138 99.1909 136.986C99.1517 136.834 99.1276 136.744 99.0914 136.625C99.0914 136.571 99.0612 136.517 99.0431 136.466C99.025 136.416 98.9918 136.293 98.9646 136.207L98.9103 136.04C98.8862 135.965 98.862 135.89 98.8349 135.816C98.7896 135.681 98.7414 135.55 98.6931 135.416C98.6448 135.281 98.5935 135.15 98.5422 135.019C98.4396 134.75 98.328 134.484 98.2164 134.219C97.7789 133.186 97.2871 132.168 96.8345 131.159C96.5913 130.63 96.3757 130.089 96.1888 129.538L96.1315 129.618C96.0397 129.756 95.9581 129.899 95.8871 130.048C95.8871 132.397 93.5095 135.272 93.5095 135.272L91.1169 131.824L89.0229 135.01C88.7212 135.168 88.4195 135.711 88.1841 136.484C88.1178 136.693 88.0544 136.92 87.994 137.162C87.9518 137.323 87.9126 137.493 87.8764 137.664C87.8553 137.75 87.8372 137.837 87.8191 137.926L87.7647 138.198V138.24C87.7285 138.425 87.6923 138.616 87.6591 138.81C87.6259 139.004 87.5867 139.228 87.5535 139.44C87.5294 139.577 87.5083 139.714 87.4902 139.852C87.4479 140.117 87.4117 140.386 87.3755 140.652C87.3544 140.807 87.3333 140.95 87.3152 141.115L87.2428 141.712C87.3966 142.201 87.5686 142.685 87.7466 143.159C87.8604 143.42 87.9268 143.697 87.9428 143.98C91.6452 145.027 95.57 145.027 99.2724 143.98C99.2711 143.97 99.2711 143.96 99.2724 143.951C99.2166 143.683 99.1923 143.409 99.2 143.136C99.2609 142.37 99.3616 141.607 99.5017 140.852C99.5462 140.479 99.5654 140.104 99.559 139.729V139.595C99.55 139.482 99.547 139.374 99.5439 139.267Z" fill="white"/>
<path opacity="0.1" d="M91.1591 131.624L90.9569 131.597C90.6517 131.557 90.3494 131.497 90.0518 131.418L89.9401 131.388C89.2039 131.182 88.3983 130.812 88.2173 130.162C88.1634 129.952 88.1697 129.732 88.2354 129.526C88.3367 129.17 88.4742 128.826 88.6458 128.499V128.481C88.6684 128.435 88.6936 128.39 88.7212 128.346C88.9701 127.865 89.3466 127.459 89.8104 127.173L89.4483 127.23L86.3828 127.723L81.6307 128.481C81.6307 128.481 80.7859 128.314 79.6363 131.448C79.6363 131.487 79.6092 131.523 79.5971 131.565C79.3195 132.332 79.0269 133.29 78.7251 134.487C78.517 135.317 78.3269 136.132 78.1519 136.923C78.1006 137.162 78.0493 137.398 78.001 137.631C78.545 138.265 79.1306 138.864 79.754 139.422L79.8536 139.514C81.0746 140.608 82.4239 141.554 83.8725 142.33L83.9298 142.359C84.8411 142.846 85.7894 143.261 86.766 143.601L87.0225 143.691C87.0768 143.139 87.1371 142.527 87.2096 141.9C87.2096 141.837 87.2096 141.774 87.2337 141.712L87.3061 141.115C87.3242 140.962 87.3453 140.816 87.3665 140.652C87.4027 140.386 87.4389 140.117 87.4811 139.852C87.4992 139.714 87.5203 139.577 87.5445 139.44C87.5777 139.228 87.6139 139.016 87.6501 138.81C87.6863 138.604 87.7195 138.425 87.7557 138.24V138.198L87.81 137.926C87.8281 137.837 87.8462 137.75 87.8673 137.664C87.9035 137.493 87.9427 137.323 87.985 137.162C88.0453 136.92 88.1087 136.693 88.1751 136.484C88.4164 135.711 88.697 135.168 89.0139 135.01L91.1078 131.824L91.1953 131.69L91.2345 131.63L91.1591 131.624Z" fill="black"/>
<path opacity="0.1" d="M87.3484 110.479C87.0466 110.891 87.0708 111.459 86.935 111.972C86.6122 113.139 85.3329 113.871 85.0402 115.047C84.8682 115.734 85.0673 116.462 84.9497 117.161C84.7355 118.447 83.5467 119.319 82.8829 120.444C82.5464 121.024 82.3469 121.672 82.2993 122.339C82.2518 123.006 82.3574 123.675 82.6083 124.295C82.7636 124.608 82.8918 124.934 82.9915 125.269C83.0676 125.767 83.0358 126.276 82.898 126.761C82.6717 127.824 82.4394 128.994 82.9583 129.953C83.3958 130.762 84.304 131.236 85.2182 131.385C86.1414 131.489 87.0752 131.446 87.985 131.26C88.9837 131.108 90.0065 130.932 90.8755 130.424L87.6078 122.621C87.279 121.833 86.941 121.018 86.9441 120.164C86.9707 119.534 87.1085 118.914 87.3514 118.331C87.984 116.642 88.9023 115.073 90.0669 113.689C90.5406 114.232 90.5044 115.059 90.8996 115.662C91.2489 116.108 91.714 116.451 92.2453 116.656C93.7935 117.403 95.3843 118.061 97.0095 118.626C97.1114 118.639 97.2087 118.676 97.2926 118.735C97.3764 118.794 97.4444 118.872 97.4903 118.963C97.5363 119.054 97.5589 119.155 97.556 119.256C97.5532 119.358 97.5251 119.457 97.4741 119.546L96.2431 124.573C95.9716 125.681 95.7332 126.961 96.4302 127.857C97.1271 128.752 98.6991 129.176 98.7082 130.332C98.6953 130.515 98.6953 130.698 98.7082 130.881C98.7896 131.421 99.4383 131.681 99.9905 131.708C100.897 131.726 101.78 131.424 102.483 130.857C103.185 130.29 103.661 129.494 103.825 128.612C104.127 126.636 102.806 124.815 102.253 122.889C101.324 119.65 102.555 115.85 100.73 113.005C99.2513 110.697 96.5569 110.071 93.9983 109.784C92.2031 109.575 88.6126 108.829 87.3484 110.479Z" fill="black"/>
<path opacity="0.5" d="M87.3484 110.181C87.0466 110.593 87.0708 111.16 86.935 111.674C86.6122 112.841 85.3329 113.572 85.0402 114.748C84.8682 115.435 85.0673 116.163 84.9497 116.862C84.7355 118.149 83.5467 119.02 82.8829 120.146C82.5464 120.726 82.3469 121.373 82.2993 122.04C82.2518 122.707 82.3574 123.376 82.6083 123.997C82.7636 124.31 82.8918 124.636 82.9915 124.97C83.0676 125.469 83.0358 125.977 82.898 126.463C82.6717 127.525 82.4394 128.696 82.9583 129.654C83.3958 130.463 84.304 130.938 85.2182 131.087C86.1414 131.19 87.0752 131.148 87.985 130.962C88.9837 130.809 90.0065 130.633 90.8755 130.126L87.6078 122.322C87.279 121.534 86.941 120.719 86.9441 119.865C86.9707 119.235 87.1085 118.615 87.3514 118.032C87.984 116.344 88.9023 114.774 90.0669 113.39C90.5406 113.933 90.5044 114.76 90.8996 115.363C91.2489 115.809 91.714 116.153 92.2453 116.358C93.7935 117.105 95.3843 117.763 97.0095 118.328C97.1114 118.34 97.2087 118.378 97.2926 118.437C97.3764 118.495 97.4444 118.574 97.4903 118.665C97.5363 118.756 97.5589 118.856 97.556 118.958C97.5532 119.06 97.5251 119.159 97.4741 119.247L96.2431 124.274C95.9716 125.382 95.7332 126.663 96.4302 127.558C97.1271 128.454 98.6991 128.878 98.7082 130.033C98.6953 130.216 98.6953 130.4 98.7082 130.582C98.7896 131.123 99.4383 131.382 99.9905 131.409C100.897 131.427 101.78 131.125 102.483 130.558C103.185 129.991 103.661 129.196 103.825 128.314C104.127 126.337 102.806 124.516 102.253 122.591C101.324 119.352 102.555 115.551 100.73 112.707C99.2513 110.399 96.5569 109.772 93.9983 109.485C92.2031 109.276 88.6126 108.53 87.3484 110.181Z" fill="#493545"/>
</g>
<g opacity="0.5">
<path opacity="0.5" d="M85.4928 190.142C85.5199 191.142 84.832 191.996 84.2859 192.829C83.7398 193.662 83.3355 194.799 83.8967 195.632C84.0807 195.906 84.3583 196.118 84.5242 196.405C85.1066 197.405 84.138 198.554 83.785 199.653C83.3777 200.922 83.8514 202.34 84.7083 203.37C85.5652 204.4 86.7479 205.095 87.9427 205.707C90.4549 207.032 93.1513 207.981 95.9444 208.525C97.4047 208.791 98.9616 208.91 100.331 208.331C101.282 207.9 102.058 207.165 102.536 206.245C103.014 205.324 103.165 204.272 102.965 203.256C102.618 201.686 101.457 200.423 100.853 198.939C100.713 198.648 100.644 198.328 100.654 198.005C100.706 197.441 101.143 196.999 101.484 196.542C102.339 195.299 102.688 193.782 102.462 192.294C102.223 190.807 101.648 189.392 100.778 188.157C100.467 187.644 100.057 187.198 99.5711 186.843C98.9133 186.404 98.0987 186.279 97.3142 186.168C94.0375 185.715 90.6432 185.219 87.3393 185.052C86.2954 184.998 85.529 185.201 85.013 186.168C84.2255 187.61 85.4535 188.694 85.4928 190.142Z" fill="#444176"/>
<path opacity="0.5" d="M102.368 200.295L96.1496 209.045L90.0789 208.522C90.0789 208.522 89.8798 210.612 87.4389 203.038C86.0751 198.802 88.8479 200.274 89.394 199.101C89.9401 197.927 90.9026 196.892 90.9841 196.026C91.1772 194.169 90.6069 193.112 90.6069 193.112L97.2056 192.33C96.9078 193.21 96.8701 194.155 97.097 195.056C97.9237 198.453 102.368 200.295 102.368 200.295Z" fill="#C77485"/>
<path opacity="0.5" d="M93.0147 192.835C97.3472 192.835 100.859 190.095 100.859 186.715C100.859 183.335 97.3472 180.595 93.0147 180.595C88.6821 180.595 85.1699 183.335 85.1699 186.715C85.1699 190.095 88.6821 192.835 93.0147 192.835Z" fill="#444176"/>
<path opacity="0.1" d="M97.094 195.053C96.2333 195.697 95.2259 196.123 94.1601 196.293C93.0943 196.463 92.0027 196.371 90.9811 196.026C91.1742 194.169 90.6039 193.112 90.6039 193.112L97.2026 192.33C96.9054 193.209 96.8677 194.153 97.094 195.053Z" fill="black"/>
<path opacity="0.5" d="M93.1142 196.115C96.7586 196.115 99.7129 193.192 99.7129 189.587C99.7129 185.981 96.7586 183.058 93.1142 183.058C89.4699 183.058 86.5156 185.981 86.5156 189.587C86.5156 193.192 89.4699 196.115 93.1142 196.115Z" fill="#C77485"/>
<path opacity="0.1" d="M101.716 201.286L101.562 200.689L101.43 200.163L101.234 199.387L101.197 199.244L101.167 199.125C101.167 199.125 101.324 198.656 100.289 198.808L100.096 198.841C99.9331 198.874 99.7431 198.919 99.5258 198.978L99.3297 199.038L99.0702 199.119C98.2487 199.383 97.4994 199.831 96.8797 200.426C96.6016 200.689 96.3555 200.984 96.1465 201.304C96.1254 201.334 96.1103 201.361 96.0922 201.384C96.0208 201.495 95.9573 201.611 95.9021 201.731C95.9021 204.083 93.5246 206.955 93.5246 206.955L91.2043 203.638L91.1591 203.573L90.6069 202.779L90.4108 202.522L90.3444 202.432L89.1375 200.829L88.8358 200.429L88.7363 200.295L88.5884 200.101L88.2414 199.644L86.8837 200.429L85.0734 201.474L84.0173 208.266V208.454L84.0505 209.015L84.2708 212.705V212.755L83.8846 214.284L83.9419 214.314C84.8532 214.8 85.8015 215.215 86.7781 215.556L87.0345 215.645C87.3363 215.744 87.6199 215.833 87.9156 215.92C87.9265 215.964 87.9346 216.009 87.9397 216.054C87.9397 216.012 87.9397 215.968 87.9397 215.926C91.6422 216.973 95.5669 216.973 99.2694 215.926L99.3388 215.905C99.5107 215.857 99.6857 215.806 99.8547 215.75L100.129 215.663C100.874 215.417 101.603 215.128 102.314 214.797L102.567 209.454L102.748 205.6V205.379L101.716 201.286Z" fill="black"/>
<path opacity="0.5" d="M99.5439 211.212C99.5439 211.093 99.5439 210.973 99.5228 210.854C99.5017 210.734 99.5047 210.63 99.4896 210.516C99.4745 210.403 99.4625 210.29 99.4474 210.176C99.4323 210.063 99.4112 209.949 99.3901 209.836C99.3689 209.722 99.3478 209.609 99.3237 209.495C99.3237 209.457 99.3086 209.421 99.2995 209.382C99.2664 209.233 99.2302 209.083 99.1909 208.931C99.1517 208.779 99.1276 208.689 99.0914 208.57C99.0914 208.516 99.0612 208.463 99.0431 208.412C99.025 208.361 98.9918 208.239 98.9646 208.152L98.9103 207.985C98.8862 207.91 98.862 207.836 98.8349 207.761C98.7896 207.627 98.7414 207.495 98.6931 207.361C98.6448 207.227 98.5935 207.095 98.5422 206.964C98.4396 206.695 98.328 206.43 98.2164 206.164C97.7789 205.131 97.2871 204.113 96.8345 203.104C96.5913 202.575 96.3757 202.034 96.1888 201.483L96.1315 201.564C96.0397 201.701 95.9581 201.845 95.8871 201.993C95.8871 204.343 93.5095 207.218 93.5095 207.218L91.1169 203.77L89.0229 206.955C88.7212 207.113 88.4195 207.657 88.1841 208.43C88.1178 208.639 88.0544 208.866 87.994 209.107C87.9518 209.269 87.9126 209.439 87.8764 209.609C87.8553 209.695 87.8372 209.782 87.8191 209.872L87.7647 210.143V210.185C87.7285 210.37 87.6923 210.561 87.6591 210.755C87.6259 210.949 87.5867 211.173 87.5535 211.385C87.5294 211.522 87.5083 211.66 87.4902 211.797C87.4479 212.063 87.4117 212.331 87.3755 212.597C87.3544 212.752 87.3333 212.896 87.3152 213.06L87.2428 213.657C87.3966 214.147 87.5686 214.63 87.7466 215.105C87.8604 215.365 87.9268 215.643 87.9428 215.926C91.6452 216.973 95.57 216.973 99.2724 215.926C99.2711 215.916 99.2711 215.906 99.2724 215.896C99.2166 215.628 99.1923 215.354 99.2 215.081C99.2609 214.315 99.3616 213.553 99.5017 212.797C99.5462 212.425 99.5654 212.05 99.559 211.675V211.54C99.55 211.427 99.547 211.319 99.5439 211.212ZM99.5439 211.212C99.5439 211.093 99.5439 210.973 99.5228 210.854C99.5017 210.734 99.5047 210.63 99.4896 210.516C99.4745 210.403 99.4625 210.29 99.4474 210.176C99.4323 210.063 99.4112 209.949 99.3901 209.836C99.3689 209.722 99.3478 209.609 99.3237 209.495C99.3237 209.457 99.3086 209.421 99.2995 209.382C99.2664 209.233 99.2302 209.083 99.1909 208.931C99.1517 208.779 99.1276 208.689 99.0914 208.57C99.0914 208.516 99.0612 208.463 99.0431 208.412C99.025 208.361 98.9918 208.239 98.9646 208.152L98.9103 207.985C98.8862 207.91 98.862 207.836 98.8349 207.761C98.7896 207.627 98.7414 207.495 98.6931 207.361C98.6448 207.227 98.5935 207.095 98.5422 206.964C98.4396 206.695 98.328 206.43 98.2164 206.164C97.7789 205.131 97.2871 204.113 96.8345 203.104C96.5913 202.575 96.3757 202.034 96.1888 201.483L96.1315 201.564C96.0397 201.701 95.9581 201.845 95.8871 201.993C95.8871 204.343 93.5095 207.218 93.5095 207.218L91.1169 203.77L89.0229 206.955C88.7212 207.113 88.4195 207.657 88.1841 208.43C88.1178 208.639 88.0544 208.866 87.994 209.107C87.9518 209.269 87.9126 209.439 87.8764 209.609C87.8553 209.695 87.8372 209.782 87.8191 209.872L87.7647 210.143V210.185C87.7285 210.37 87.6923 210.561 87.6591 210.755C87.6259 210.949 87.5867 211.173 87.5535 211.385C87.5294 211.522 87.5083 211.66 87.4902 211.797C87.4479 212.063 87.4117 212.331 87.3755 212.597C87.3544 212.752 87.3333 212.896 87.3152 213.06L87.2428 213.657C87.3966 214.147 87.5686 214.63 87.7466 215.105C87.8604 215.365 87.9268 215.643 87.9428 215.926C91.6452 216.973 95.57 216.973 99.2724 215.926C99.2711 215.916 99.2711 215.906 99.2724 215.896C99.2166 215.628 99.1923 215.354 99.2 215.081C99.2609 214.315 99.3616 213.553 99.5017 212.797C99.5462 212.425 99.5654 212.05 99.559 211.675V211.54C99.55 211.427 99.547 211.319 99.5439 211.212ZM99.5439 211.212C99.5439 211.093 99.5439 210.973 99.5228 210.854C99.5017 210.734 99.5047 210.63 99.4896 210.516C99.4745 210.403 99.4625 210.29 99.4474 210.176C99.4323 210.063 99.4112 209.949 99.3901 209.836C99.3689 209.722 99.3478 209.609 99.3237 209.495C99.3237 209.457 99.3086 209.421 99.2995 209.382C99.2664 209.233 99.2302 209.083 99.1909 208.931C99.1517 208.779 99.1276 208.689 99.0914 208.57C99.0914 208.516 99.0612 208.463 99.0431 208.412C99.025 208.361 98.9918 208.239 98.9646 208.152L98.9103 207.985C98.8862 207.91 98.862 207.836 98.8349 207.761C98.7896 207.627 98.7414 207.495 98.6931 207.361C98.6448 207.227 98.5935 207.095 98.5422 206.964C98.4396 206.695 98.328 206.43 98.2164 206.164C97.7789 205.131 97.2871 204.113 96.8345 203.104C96.5913 202.575 96.3757 202.034 96.1888 201.483L96.1315 201.564C96.0397 201.701 95.9581 201.845 95.8871 201.993C95.8871 204.343 93.5095 207.218 93.5095 207.218L91.1169 203.77L89.0229 206.955C88.7212 207.113 88.4195 207.657 88.1841 208.43C88.1178 208.639 88.0544 208.866 87.994 209.107C87.9518 209.269 87.9126 209.439 87.8764 209.609C87.8553 209.695 87.8372 209.782 87.8191 209.872L87.7647 210.143V210.185C87.7285 210.37 87.6923 210.561 87.6591 210.755C87.6259 210.949 87.5867 211.173 87.5535 211.385C87.5294 211.522 87.5083 211.66 87.4902 211.797C87.4479 212.063 87.4117 212.331 87.3755 212.597C87.3544 212.752 87.3333 212.896 87.3152 213.06L87.2428 213.657C87.3966 214.147 87.5686 214.63 87.7466 215.105C87.8604 215.365 87.9268 215.643 87.9428 215.926C91.6452 216.973 95.57 216.973 99.2724 215.926C99.2711 215.916 99.2711 215.906 99.2724 215.896C99.2166 215.628 99.1923 215.354 99.2 215.081C99.2609 214.315 99.3616 213.553 99.5017 212.797C99.5462 212.425 99.5654 212.05 99.559 211.675V211.54C99.55 211.427 99.547 211.319 99.5439 211.212ZM102.742 205.609L101.665 201.355L101.481 200.626L101.43 200.426L101.167 199.387C101.168 199.378 101.168 199.369 101.167 199.36C101.173 199.315 101.166 199.268 101.146 199.226C101.107 199.148 101.007 199.068 100.775 199.047C100.687 199.041 100.598 199.041 100.509 199.047C100.247 199.073 99.9879 199.121 99.734 199.19C99.6103 199.223 99.4776 199.259 99.3357 199.304L99.0763 199.384H99.0521C98.3572 199.61 97.7121 199.965 97.1513 200.429C96.7808 200.735 96.4558 201.091 96.1858 201.486L96.1284 201.567C96.0367 201.704 95.955 201.848 95.8841 201.996C95.8841 204.346 93.5065 207.221 93.5065 207.221L91.1138 203.773L90.9781 203.579L90.9539 203.546L90.607 203.041L90.3445 202.695L90.2751 202.605L89.038 200.972L88.6458 200.444V200.426L88.51 200.244L88.2505 199.904L87.3453 200.426L85.0824 201.731L84.0385 208.451V208.522L84.0686 209.012L84.2919 212.752V212.964L83.951 214.311C84.8623 214.797 85.8105 215.212 86.7872 215.553L87.0436 215.642C87.3453 215.741 87.629 215.83 87.9246 215.917C87.9356 215.961 87.9437 216.006 87.9488 216.051C87.9488 216.009 87.9488 215.965 87.9488 215.923C91.6512 216.97 95.576 216.97 99.2784 215.923L99.3478 215.902C99.5198 215.854 99.6948 215.803 99.8638 215.747L100.138 215.66C100.883 215.414 101.612 215.125 102.323 214.794L102.573 209.457L102.754 205.644L102.742 205.609ZM87.9035 215.917C87.9145 215.961 87.9226 216.006 87.9277 216.051C87.9277 216.009 87.9277 215.965 87.9277 215.923L87.9035 215.917ZM99.5439 211.212C99.5439 211.093 99.5439 210.973 99.5228 210.854C99.5017 210.734 99.5047 210.63 99.4896 210.516C99.4745 210.403 99.4625 210.29 99.4474 210.176C99.4323 210.063 99.4112 209.949 99.3901 209.836C99.3689 209.722 99.3478 209.609 99.3237 209.495C99.3237 209.457 99.3086 209.421 99.2995 209.382C99.2664 209.233 99.2302 209.083 99.1909 208.931C99.1517 208.779 99.1276 208.689 99.0914 208.57C99.0914 208.516 99.0612 208.463 99.0431 208.412C99.025 208.361 98.9918 208.239 98.9646 208.152L98.9103 207.985C98.8862 207.91 98.862 207.836 98.8349 207.761C98.7896 207.627 98.7414 207.495 98.6931 207.361C98.6448 207.227 98.5935 207.095 98.5422 206.964C98.4396 206.695 98.328 206.43 98.2164 206.164C97.7789 205.131 97.2871 204.113 96.8345 203.104C96.5913 202.575 96.3757 202.034 96.1888 201.483L96.1315 201.564C96.0397 201.701 95.9581 201.845 95.8871 201.993C95.8871 204.343 93.5095 207.218 93.5095 207.218L91.1169 203.77L89.0229 206.955C88.7212 207.113 88.4195 207.657 88.1841 208.43C88.1178 208.639 88.0544 208.866 87.994 209.107C87.9518 209.269 87.9126 209.439 87.8764 209.609C87.8553 209.695 87.8372 209.782 87.8191 209.872L87.7647 210.143V210.185C87.7285 210.37 87.6923 210.561 87.6591 210.755C87.6259 210.949 87.5867 211.173 87.5535 211.385C87.5294 211.522 87.5083 211.66 87.4902 211.797C87.4479 212.063 87.4117 212.331 87.3755 212.597C87.3544 212.752 87.3333 212.896 87.3152 213.06L87.2428 213.657C87.3966 214.147 87.5686 214.63 87.7466 215.105C87.8604 215.365 87.9268 215.643 87.9428 215.926C91.6452 216.973 95.57 216.973 99.2724 215.926C99.2711 215.916 99.2711 215.906 99.2724 215.896C99.2166 215.628 99.1923 215.354 99.2 215.081C99.2609 214.315 99.3616 213.553 99.5017 212.797C99.5462 212.425 99.5654 212.05 99.559 211.675V211.54C99.55 211.427 99.547 211.319 99.5439 211.212ZM99.5439 211.212C99.5439 211.093 99.5439 210.973 99.5228 210.854C99.5017 210.734 99.5047 210.63 99.4896 210.516C99.4745 210.403 99.4625 210.29 99.4474 210.176C99.4323 210.063 99.4112 209.949 99.3901 209.836C99.3689 209.722 99.3478 209.609 99.3237 209.495C99.3237 209.457 99.3086 209.421 99.2995 209.382C99.2664 209.233 99.2302 209.083 99.1909 208.931C99.1517 208.779 99.1276 208.689 99.0914 208.57C99.0914 208.516 99.0612 208.463 99.0431 208.412C99.025 208.361 98.9918 208.239 98.9646 208.152L98.9103 207.985C98.8862 207.91 98.862 207.836 98.8349 207.761C98.7896 207.627 98.7414 207.495 98.6931 207.361C98.6448 207.227 98.5935 207.095 98.5422 206.964C98.4396 206.695 98.328 206.43 98.2164 206.164C97.7789 205.131 97.2871 204.113 96.8345 203.104C96.5913 202.575 96.3757 202.034 96.1888 201.483L96.1315 201.564C96.0397 201.701 95.9581 201.845 95.8871 201.993C95.8871 204.343 93.5095 207.218 93.5095 207.218L91.1169 203.77L89.0229 206.955C88.7212 207.113 88.4195 207.657 88.1841 208.43C88.1178 208.639 88.0544 208.866 87.994 209.107C87.9518 209.269 87.9126 209.439 87.8764 209.609C87.8553 209.695 87.8372 209.782 87.8191 209.872L87.7647 210.143V210.185C87.7285 210.37 87.6923 210.561 87.6591 210.755C87.6259 210.949 87.5867 211.173 87.5535 211.385C87.5294 211.522 87.5083 211.66 87.4902 211.797C87.4479 212.063 87.4117 212.331 87.3755 212.597C87.3544 212.752 87.3333 212.896 87.3152 213.06L87.2428 213.657C87.3966 214.147 87.5686 214.63 87.7466 215.105C87.8604 215.365 87.9268 215.643 87.9428 215.926C91.6452 216.973 95.57 216.973 99.2724 215.926C99.2711 215.916 99.2711 215.906 99.2724 215.896C99.2166 215.628 99.1923 215.354 99.2 215.081C99.2609 214.315 99.3616 213.553 99.5017 212.797C99.5462 212.425 99.5654 212.05 99.559 211.675V211.54C99.55 211.427 99.547 211.319 99.5439 211.212ZM99.5439 211.212C99.5439 211.093 99.5439 210.973 99.5228 210.854C99.5017 210.734 99.5047 210.63 99.4896 210.516C99.4745 210.403 99.4625 210.29 99.4474 210.176C99.4323 210.063 99.4112 209.949 99.3901 209.836C99.3689 209.722 99.3478 209.609 99.3237 209.495C99.3237 209.457 99.3086 209.421 99.2995 209.382C99.2664 209.233 99.2302 209.083 99.1909 208.931C99.1517 208.779 99.1276 208.689 99.0914 208.57C99.0914 208.516 99.0612 208.463 99.0431 208.412C99.025 208.361 98.9918 208.239 98.9646 208.152L98.9103 207.985C98.8862 207.91 98.862 207.836 98.8349 207.761C98.7896 207.627 98.7414 207.495 98.6931 207.361C98.6448 207.227 98.5935 207.095 98.5422 206.964C98.4396 206.695 98.328 206.43 98.2164 206.164C97.7789 205.131 97.2871 204.113 96.8345 203.104C96.5913 202.575 96.3757 202.034 96.1888 201.483L96.1315 201.564C96.0397 201.701 95.9581 201.845 95.8871 201.993C95.8871 204.343 93.5095 207.218 93.5095 207.218L91.1169 203.77L89.0229 206.955C88.7212 207.113 88.4195 207.657 88.1841 208.43C88.1178 208.639 88.0544 208.866 87.994 209.107C87.9518 209.269 87.9126 209.439 87.8764 209.609C87.8553 209.695 87.8372 209.782 87.8191 209.872L87.7647 210.143V210.185C87.7285 210.37 87.6923 210.561 87.6591 210.755C87.6259 210.949 87.5867 211.173 87.5535 211.385C87.5294 211.522 87.5083 211.66 87.4902 211.797C87.4479 212.063 87.4117 212.331 87.3755 212.597C87.3544 212.752 87.3333 212.896 87.3152 213.06L87.2428 213.657C87.3966 214.147 87.5686 214.63 87.7466 215.105C87.8604 215.365 87.9268 215.643 87.9428 215.926C91.6452 216.973 95.57 216.973 99.2724 215.926C99.2711 215.916 99.2711 215.906 99.2724 215.896C99.2166 215.628 99.1923 215.354 99.2 215.081C99.2609 214.315 99.3616 213.553 99.5017 212.797C99.5462 212.425 99.5654 212.05 99.559 211.675V211.54C99.55 211.427 99.547 211.319 99.5439 211.212ZM99.5439 211.212C99.5439 211.093 99.5439 210.973 99.5228 210.854C99.5017 210.734 99.5047 210.63 99.4896 210.516C99.4745 210.403 99.4625 210.29 99.4474 210.176C99.4323 210.063 99.4112 209.949 99.3901 209.836C99.3689 209.722 99.3478 209.609 99.3237 209.495C99.3237 209.457 99.3086 209.421 99.2995 209.382C99.2664 209.233 99.2302 209.083 99.1909 208.931C99.1517 208.779 99.1276 208.689 99.0914 208.57C99.0914 208.516 99.0612 208.463 99.0431 208.412C99.025 208.361 98.9918 208.239 98.9646 208.152L98.9103 207.985C98.8862 207.91 98.862 207.836 98.8349 207.761C98.7896 207.627 98.7414 207.495 98.6931 207.361C98.6448 207.227 98.5935 207.095 98.5422 206.964C98.4396 206.695 98.328 206.43 98.2164 206.164C97.7789 205.131 97.2871 204.113 96.8345 203.104C96.5913 202.575 96.3757 202.034 96.1888 201.483L96.1315 201.564C96.0397 201.701 95.9581 201.845 95.8871 201.993C95.8871 204.343 93.5095 207.218 93.5095 207.218L91.1169 203.77L89.0229 206.955C88.7212 207.113 88.4195 207.657 88.1841 208.43C88.1178 208.639 88.0544 208.866 87.994 209.107C87.9518 209.269 87.9126 209.439 87.8764 209.609C87.8553 209.695 87.8372 209.782 87.8191 209.872L87.7647 210.143V210.185C87.7285 210.37 87.6923 210.561 87.6591 210.755C87.6259 210.949 87.5867 211.173 87.5535 211.385C87.5294 211.522 87.5083 211.66 87.4902 211.797C87.4479 212.063 87.4117 212.331 87.3755 212.597C87.3544 212.752 87.3333 212.896 87.3152 213.06L87.2428 213.657C87.3966 214.147 87.5686 214.63 87.7466 215.105C87.8604 215.365 87.9268 215.643 87.9428 215.926C91.6452 216.973 95.57 216.973 99.2724 215.926C99.2711 215.916 99.2711 215.906 99.2724 215.896C99.2166 215.628 99.1923 215.354 99.2 215.081C99.2609 214.315 99.3616 213.553 99.5017 212.797C99.5462 212.425 99.5654 212.05 99.559 211.675V211.54C99.55 211.427 99.547 211.319 99.5439 211.212ZM99.5439 211.212C99.5439 211.093 99.5439 210.973 99.5228 210.854C99.5017 210.734 99.5047 210.63 99.4896 210.516C99.4745 210.403 99.4625 210.29 99.4474 210.176C99.4323 210.063 99.4112 209.949 99.3901 209.836C99.3689 209.722 99.3478 209.609 99.3237 209.495C99.3237 209.457 99.3086 209.421 99.2995 209.382C99.2664 209.233 99.2302 209.083 99.1909 208.931C99.1517 208.779 99.1276 208.689 99.0914 208.57C99.0914 208.516 99.0612 208.463 99.0431 208.412C99.025 208.361 98.9918 208.239 98.9646 208.152L98.9103 207.985C98.8862 207.91 98.862 207.836 98.8349 207.761C98.7896 207.627 98.7414 207.495 98.6931 207.361C98.6448 207.227 98.5935 207.095 98.5422 206.964C98.4396 206.695 98.328 206.43 98.2164 206.164C97.7789 205.131 97.2871 204.113 96.8345 203.104C96.5913 202.575 96.3757 202.034 96.1888 201.483L96.1315 201.564C96.0397 201.701 95.9581 201.845 95.8871 201.993C95.8871 204.343 93.5095 207.218 93.5095 207.218L91.1169 203.77L89.0229 206.955C88.7212 207.113 88.4195 207.657 88.1841 208.43C88.1178 208.639 88.0544 208.866 87.994 209.107C87.9518 209.269 87.9126 209.439 87.8764 209.609C87.8553 209.695 87.8372 209.782 87.8191 209.872L87.7647 210.143V210.185C87.7285 210.37 87.6923 210.561 87.6591 210.755C87.6259 210.949 87.5867 211.173 87.5535 211.385C87.5294 211.522 87.5083 211.66 87.4902 211.797C87.4479 212.063 87.4117 212.331 87.3755 212.597C87.3544 212.752 87.3333 212.896 87.3152 213.06L87.2428 213.657C87.3966 214.147 87.5686 214.63 87.7466 215.105C87.8604 215.365 87.9268 215.643 87.9428 215.926C91.6452 216.973 95.57 216.973 99.2724 215.926C99.2711 215.916 99.2711 215.906 99.2724 215.896C99.2166 215.628 99.1923 215.354 99.2 215.081C99.2609 214.315 99.3616 213.553 99.5017 212.797C99.5462 212.425 99.5654 212.05 99.559 211.675V211.54C99.55 211.427 99.547 211.319 99.5439 211.212ZM99.5439 211.212C99.5439 211.093 99.5439 210.973 99.5228 210.854C99.5017 210.734 99.5047 210.63 99.4896 210.516C99.4745 210.403 99.4625 210.29 99.4474 210.176C99.4323 210.063 99.4112 209.949 99.3901 209.836C99.3689 209.722 99.3478 209.609 99.3237 209.495C99.3237 209.457 99.3086 209.421 99.2995 209.382C99.2664 209.233 99.2302 209.083 99.1909 208.931C99.1517 208.779 99.1276 208.689 99.0914 208.57C99.0914 208.516 99.0612 208.463 99.0431 208.412C99.025 208.361 98.9918 208.239 98.9646 208.152L98.9103 207.985C98.8862 207.91 98.862 207.836 98.8349 207.761C98.7896 207.627 98.7414 207.495 98.6931 207.361C98.6448 207.227 98.5935 207.095 98.5422 206.964C98.4396 206.695 98.328 206.43 98.2164 206.164C97.7789 205.131 97.2871 204.113 96.8345 203.104C96.5913 202.575 96.3757 202.034 96.1888 201.483L96.1315 201.564C96.0397 201.701 95.9581 201.845 95.8871 201.993C95.8871 204.343 93.5095 207.218 93.5095 207.218L91.1169 203.77L89.0229 206.955C88.7212 207.113 88.4195 207.657 88.1841 208.43C88.1178 208.639 88.0544 208.866 87.994 209.107C87.9518 209.269 87.9126 209.439 87.8764 209.609C87.8553 209.695 87.8372 209.782 87.8191 209.872L87.7647 210.143V210.185C87.7285 210.37 87.6923 210.561 87.6591 210.755C87.6259 210.949 87.5867 211.173 87.5535 211.385C87.5294 211.522 87.5083 211.66 87.4902 211.797C87.4479 212.063 87.4117 212.331 87.3755 212.597C87.3544 212.752 87.3333 212.896 87.3152 213.06L87.2428 213.657C87.3966 214.147 87.5686 214.63 87.7466 215.105C87.8604 215.365 87.9268 215.643 87.9428 215.926C91.6452 216.973 95.57 216.973 99.2724 215.926C99.2711 215.916 99.2711 215.906 99.2724 215.896C99.2166 215.628 99.1923 215.354 99.2 215.081C99.2609 214.315 99.3616 213.553 99.5017 212.797C99.5462 212.425 99.5654 212.05 99.559 211.675V211.54C99.55 211.427 99.547 211.319 99.5439 211.212ZM99.5439 211.212C99.5439 211.093 99.5439 210.973 99.5228 210.854C99.5017 210.734 99.5047 210.63 99.4896 210.516C99.4745 210.403 99.4625 210.29 99.4474 210.176C99.4323 210.063 99.4112 209.949 99.3901 209.836C99.3689 209.722 99.3478 209.609 99.3237 209.495C99.3237 209.457 99.3086 209.421 99.2995 209.382C99.2664 209.233 99.2302 209.083 99.1909 208.931C99.1517 208.779 99.1276 208.689 99.0914 208.57C99.0914 208.516 99.0612 208.463 99.0431 208.412C99.025 208.361 98.9918 208.239 98.9646 208.152L98.9103 207.985C98.8862 207.91 98.862 207.836 98.8349 207.761C98.7896 207.627 98.7414 207.495 98.6931 207.361C98.6448 207.227 98.5935 207.095 98.5422 206.964C98.4396 206.695 98.328 206.43 98.2164 206.164C97.7789 205.131 97.2871 204.113 96.8345 203.104C96.5913 202.575 96.3757 202.034 96.1888 201.483L96.1315 201.564C96.0397 201.701 95.9581 201.845 95.8871 201.993C95.8871 204.343 93.5095 207.218 93.5095 207.218L91.1169 203.77L89.0229 206.955C88.7212 207.113 88.4195 207.657 88.1841 208.43C88.1178 208.639 88.0544 208.866 87.994 209.107C87.9518 209.269 87.9126 209.439 87.8764 209.609C87.8553 209.695 87.8372 209.782 87.8191 209.872L87.7647 210.143V210.185C87.7285 210.37 87.6923 210.561 87.6591 210.755C87.6259 210.949 87.5867 211.173 87.5535 211.385C87.5294 211.522 87.5083 211.66 87.4902 211.797C87.4479 212.063 87.4117 212.331 87.3755 212.597C87.3544 212.752 87.3333 212.896 87.3152 213.06L87.2428 213.657C87.3966 214.147 87.5686 214.63 87.7466 215.105C87.8604 215.365 87.9268 215.643 87.9428 215.926C91.6452 216.973 95.57 216.973 99.2724 215.926C99.2711 215.916 99.2711 215.906 99.2724 215.896C99.2166 215.628 99.1923 215.354 99.2 215.081C99.2609 214.315 99.3616 213.553 99.5017 212.797C99.5462 212.425 99.5654 212.05 99.559 211.675V211.54C99.55 211.427 99.547 211.319 99.5439 211.212ZM99.5439 211.212C99.5439 211.093 99.5439 210.973 99.5228 210.854C99.5017 210.734 99.5047 210.63 99.4896 210.516C99.4745 210.403 99.4625 210.29 99.4474 210.176C99.4323 210.063 99.4112 209.949 99.3901 209.836C99.3689 209.722 99.3478 209.609 99.3237 209.495C99.3237 209.457 99.3086 209.421 99.2995 209.382C99.2664 209.233 99.2302 209.083 99.1909 208.931C99.1517 208.779 99.1276 208.689 99.0914 208.57C99.0914 208.516 99.0612 208.463 99.0431 208.412C99.025 208.361 98.9918 208.239 98.9646 208.152L98.9103 207.985C98.8862 207.91 98.862 207.836 98.8349 207.761C98.7896 207.627 98.7414 207.495 98.6931 207.361C98.6448 207.227 98.5935 207.095 98.5422 206.964C98.4396 206.695 98.328 206.43 98.2164 206.164C97.7789 205.131 97.2871 204.113 96.8345 203.104C96.5913 202.575 96.3757 202.034 96.1888 201.483L96.1315 201.564C96.0397 201.701 95.9581 201.845 95.8871 201.993C95.8871 204.343 93.5095 207.218 93.5095 207.218L91.1169 203.77L89.0229 206.955C88.7212 207.113 88.4195 207.657 88.1841 208.43C88.1178 208.639 88.0544 208.866 87.994 209.107C87.9518 209.269 87.9126 209.439 87.8764 209.609C87.8553 209.695 87.8372 209.782 87.8191 209.872L87.7647 210.143V210.185C87.7285 210.37 87.6923 210.561 87.6591 210.755C87.6259 210.949 87.5867 211.173 87.5535 211.385C87.5294 211.522 87.5083 211.66 87.4902 211.797C87.4479 212.063 87.4117 212.331 87.3755 212.597C87.3544 212.752 87.3333 212.896 87.3152 213.06L87.2428 213.657C87.3966 214.147 87.5686 214.63 87.7466 215.105C87.8604 215.365 87.9268 215.643 87.9428 215.926C91.6452 216.973 95.57 216.973 99.2724 215.926C99.2711 215.916 99.2711 215.906 99.2724 215.896C99.2166 215.628 99.1923 215.354 99.2 215.081C99.2609 214.315 99.3616 213.553 99.5017 212.797C99.5462 212.425 99.5654 212.05 99.559 211.675V211.54C99.55 211.427 99.547 211.319 99.5439 211.212Z" fill="#444176"/>
<path opacity="0.1" d="M91.1591 203.57L90.9569 203.543C90.6517 203.502 90.3494 203.442 90.0518 203.364L89.9401 203.334C89.2039 203.128 88.3983 202.758 88.2173 202.107C88.1634 201.897 88.1697 201.677 88.2354 201.471C88.3367 201.116 88.4742 200.772 88.6458 200.444V200.426C88.6684 200.38 88.6936 200.335 88.7212 200.292C88.9701 199.81 89.3466 199.405 89.8104 199.119L89.4483 199.175L86.3828 199.668L81.6307 200.426C81.6307 200.426 80.7859 200.259 79.6363 203.394C79.6363 203.432 79.6092 203.468 79.5971 203.51C79.3195 204.277 79.0269 205.235 78.7251 206.433C78.517 207.262 78.3269 208.077 78.1519 208.869C78.1006 209.107 78.0493 209.343 78.001 209.576C78.545 210.211 79.1306 210.809 79.754 211.367L79.8536 211.46C81.0746 212.554 82.4239 213.499 83.8725 214.275L83.9298 214.305C84.8411 214.791 85.7894 215.206 86.766 215.547L87.0225 215.636C87.0768 215.084 87.1371 214.472 87.2096 213.845C87.2096 213.782 87.2096 213.72 87.2337 213.657L87.3061 213.06C87.3242 212.908 87.3453 212.761 87.3665 212.597C87.4027 212.332 87.4389 212.063 87.4811 211.797C87.4992 211.66 87.5203 211.523 87.5445 211.385C87.5777 211.173 87.6139 210.961 87.6501 210.755C87.6863 210.549 87.7195 210.37 87.7557 210.185V210.143L87.81 209.872C87.8281 209.782 87.8462 209.696 87.8673 209.609C87.9035 209.439 87.9427 209.269 87.985 209.107C88.0453 208.866 88.1087 208.639 88.1751 208.43C88.4164 207.657 88.697 207.113 89.0139 206.955L91.1078 203.77L91.1953 203.635L91.2345 203.576L91.1591 203.57Z" fill="black"/>
<path opacity="0.1" d="M91.663 187.676C92.6043 187.518 93.5517 187.178 94.4871 187.378C95.2715 187.539 95.9263 188.055 96.6444 188.413C97.3377 188.758 98.096 188.957 98.8711 188.996C99.1538 189.032 99.4409 188.977 99.6888 188.837C100.063 188.581 100.117 188.055 100.054 187.607C99.8728 186.336 99.0702 185.243 98.2435 184.252C97.9136 183.828 97.5326 183.447 97.109 183.115C96.0259 182.323 94.5927 182.189 93.25 182.249C91.7173 182.317 90.1604 182.61 88.8298 183.371C87.9246 183.885 85.8488 185.503 86.5699 186.673C87.3272 187.897 90.4772 187.876 91.663 187.676Z" fill="black"/>
<path opacity="0.5" d="M91.663 187.377C92.6043 187.219 93.5517 186.879 94.4871 187.079C95.2715 187.24 95.9263 187.757 96.6444 188.115C97.3377 188.46 98.096 188.658 98.8711 188.697C99.1538 188.734 99.4409 188.678 99.6888 188.539C100.063 188.282 100.117 187.757 100.054 187.309C99.8728 186.037 99.0702 184.944 98.2435 183.953C97.9136 183.53 97.5326 183.148 97.109 182.816C96.0259 182.025 94.5927 181.891 93.25 181.95C91.7173 182.019 90.1604 182.311 88.8298 183.073C87.9246 183.586 85.8488 185.204 86.5699 186.374C87.3272 187.598 90.4772 187.577 91.663 187.377Z" fill="#444176"/>
</g>
<path d="M174.519 172.759H174.564C174.63 174.759 174.917 176.568 175.469 177.069C176.785 178.263 182.24 175.875 181.866 174.43C181.79 174.132 181.663 173.642 181.504 173.024C182.976 172.842 184.234 172.427 184.735 171.573L185.682 174.463L185.749 174.669H185.767H185.821C186.446 180.526 187.861 192.688 188.992 194.318C190.501 196.477 192.236 205.83 192.236 205.83L195.479 225.016C195.479 225.016 196.728 236.062 197.477 237.256C197.694 237.484 197.984 237.632 198.297 237.677C197.86 238.972 197.232 240.486 196.487 241.331C194.978 243.008 192.993 246.367 191.246 246.128C189.499 245.889 189.001 249.486 192.245 249.964C194.04 250.23 196.903 249.907 199.103 249.567C199.103 250.528 199.779 251.633 201.478 251.884C204.721 252.364 211.458 250.925 211.458 250.925C211.458 250.925 217.191 248.537 217.448 246.847C217.629 245.623 216.751 240.71 216.262 238.133C217.167 236.697 216.202 224.305 216.202 224.305L214.455 200.564C214.455 200.564 215.453 187.375 214.455 184.974C213.83 183.482 213.598 176.616 213.51 171.705L214.717 171.782C214.786 171.7 214.848 171.614 214.904 171.523L215.206 171.544C215.206 171.544 216.714 169.866 215.456 167.227C214.53 165.265 214.705 156.411 214.853 152.002L215.031 149.912C215.097 149.849 215.148 149.771 215.179 149.685C217.519 149.373 219.794 148.691 221.916 147.667C222.557 147.404 223.153 147.045 223.684 146.604C224.933 145.41 224.182 138.21 221.687 127.418C219.192 116.626 216.947 117.585 216.947 117.585C216.947 117.585 210.958 117.104 208.212 113.507C205.466 109.909 203.623 109.957 203.623 109.957C203.553 109.485 203.505 109.041 203.472 108.626C203.472 108.47 203.448 108.327 203.439 108.172C204.372 107.313 205.084 106.245 205.515 105.058C206.076 104.76 206.767 104.661 207.304 104.285C207.441 104.187 207.565 104.072 207.675 103.945C208.213 103.453 208.555 102.787 208.637 102.067C208.723 101.281 208.685 100.486 208.526 99.7116C208.336 98.5652 208.055 97.392 207.379 96.4905C206.703 95.5889 205.693 95.0456 204.718 94.5411C202.079 93.1698 199.433 91.8125 196.78 90.4692C196.261 90.1558 195.683 89.9525 195.081 89.8721C194.019 89.8124 193.066 90.5318 192.209 91.2155C191.867 91.4817 191.539 91.7657 191.228 92.0663C190.963 92.2985 190.722 92.5554 190.507 92.8335C189.505 94.162 189.08 96.6636 189.52 98.3234C189.659 98.8489 189.958 99.0011 190.326 98.9951C189.78 100.069 189.495 101.255 189.496 102.458C189.502 103.775 189.843 105.069 190.486 106.221C191.13 107.374 192.057 108.347 193.18 109.053C193.18 109.22 193.18 109.384 193.195 109.542C193.208 110.155 193.187 110.768 193.135 111.378C193.135 111.378 186.497 114.928 185.752 116.605C185.007 118.283 182.258 119.483 182.258 119.483C182.258 119.483 177.017 122.122 177.017 131.475L174.271 144.664L173.773 169.845C173.773 169.845 174.117 169.546 174.679 169.122C174.661 169.29 174.645 169.463 174.63 169.639C174.556 170.601 174.53 171.567 174.555 172.532L174.519 172.759ZM208.04 237.93C207.937 238.315 207.787 238.826 207.596 239.423C207.512 238.927 207.427 238.438 207.343 237.972C207.56 237.951 207.793 237.939 208.04 237.93Z" fill="url(#paint2_linear)"/>
<path d="M198.976 234.838C198.976 234.838 198.014 239.118 196.562 240.781C195.111 242.444 193.21 245.776 191.533 245.537C189.855 245.298 189.369 248.865 192.495 249.34C195.621 249.815 202.093 248.391 202.093 248.391C202.093 248.391 207.621 246.003 207.859 244.349C208.097 242.695 206.417 234.124 206.417 234.124L198.976 234.838Z" fill="#53526B"/>
<path opacity="0.05" d="M198.976 234.838C198.976 234.838 198.014 239.118 196.562 240.781C195.111 242.444 193.21 245.776 191.533 245.537C189.855 245.298 189.369 248.865 192.495 249.34C195.621 249.815 202.093 248.391 202.093 248.391C202.093 248.391 207.621 246.003 207.859 244.349C208.097 242.695 206.417 234.124 206.417 234.124L198.976 234.838Z" fill="black"/>
<path d="M207.868 236.739C207.868 236.739 206.905 241.02 205.454 242.683C204.003 244.346 202.093 247.677 200.418 247.438C198.744 247.2 198.255 250.767 201.381 251.242C204.507 251.716 210.994 250.289 210.994 250.289C210.994 250.289 216.521 247.901 216.76 246.247C216.998 244.594 215.317 236.023 215.317 236.023L207.868 236.739Z" fill="#53526B"/>
<path d="M185.999 171.597C185.999 171.597 187.921 192.044 189.363 194.184C190.806 196.324 192.486 205.597 192.486 205.597L195.609 224.616C195.609 224.616 196.816 235.554 197.531 236.742C198.246 237.93 207.165 237.42 207.165 237.42L201.619 174.448L185.999 171.597Z" fill="#5F5D7E"/>
<path opacity="0.05" d="M185.999 171.597C185.999 171.597 187.921 192.044 189.363 194.184C190.806 196.324 192.486 205.597 192.486 205.597L195.609 224.616C195.609 224.616 196.816 235.554 197.531 236.742C198.246 237.93 207.165 237.42 207.165 237.42L201.619 174.448L185.999 171.597Z" fill="black"/>
<path d="M182.155 161.844L182.783 163.818L186.177 174.478L186.244 174.681H186.262C186.717 174.783 196.336 176.971 198.412 177.642C198.524 177.677 198.634 177.718 198.741 177.765C199.703 178.24 200.904 195.357 200.904 195.357C200.904 195.357 201.625 211.526 202.111 212.714C202.597 213.902 204.525 238.387 205.717 237.677C206.908 236.966 215.568 237.677 215.568 237.677C216.53 236.724 215.568 223.888 215.568 223.888L213.86 200.355C213.86 200.355 214.823 187.279 213.86 184.9C212.898 182.52 212.898 166.594 212.898 166.594L193.228 163.552L191.328 163.253L182.155 161.844Z" fill="#5F5D7E"/>
<path opacity="0.02" d="M182.783 163.821L186.177 174.481L186.259 174.69C186.714 174.792 196.333 176.98 198.409 177.651H198.617L193.244 163.555L193.09 163.149L191.343 163.259L182.783 163.821Z" fill="black"/>
<path opacity="0.1" d="M205.225 114.298C205.225 114.298 196.333 123.809 190.806 115.96L185.519 119.528L186.482 124.997L183.356 166.364C183.356 166.364 191.527 166.125 197.293 168.027C198.899 168.591 200.634 168.688 202.294 168.309C203.954 167.93 205.47 167.089 206.664 165.886L205.714 129.514L207.877 118.34L205.225 114.298Z" fill="black"/>
<path d="M205.225 113.584C205.225 113.584 196.333 123.095 190.806 115.247L185.519 118.814L186.482 124.283L183.356 165.651C183.356 165.651 191.527 165.412 197.293 167.313C198.899 167.877 200.634 167.975 202.294 167.596C203.954 167.217 205.47 166.376 206.664 165.173L205.714 128.8L207.877 117.626L205.225 113.584Z" fill="#53526B"/>
<path d="M187.476 155.939V157.438H186.993V156.441H185.228V157.438H184.742V155.942L187.476 155.939Z" fill="#E82127"/>
<path d="M187.043 155.456H185.179C185.056 155.427 184.945 155.365 184.855 155.278C184.766 155.191 184.702 155.081 184.672 154.96H187.547C187.516 155.081 187.452 155.19 187.363 155.278C187.274 155.365 187.162 155.427 187.04 155.456" fill="#E82127"/>
<path d="M203.903 154.976C203.872 155.095 203.808 155.203 203.719 155.29C203.631 155.377 203.52 155.438 203.399 155.468H202.615L202.576 155.483V157.442H202.093V155.483L202.048 155.468H201.263C201.143 155.437 201.033 155.376 200.944 155.289C200.856 155.203 200.792 155.095 200.759 154.976H203.903Z" fill="#E82127"/>
<path d="M186.72 162.8C186.72 162.8 186.72 168.982 185.278 171.597C183.836 174.212 175.427 172.791 175.427 172.791L177.107 163.994L186.72 162.8Z" fill="#D6DBE6"/>
<path d="M176.341 177.069C177.608 178.263 182.861 175.875 182.499 174.454C182.246 173.448 181.359 169.848 180.855 167.806L180.505 166.37C180.505 166.37 177.427 165.418 176.341 166.37C175.946 166.716 175.668 168.081 175.539 169.728C175.315 172.591 175.542 176.311 176.341 177.069Z" fill="#FDC2CC"/>
<path d="M187.912 117.862L196.321 124.28C196.321 124.28 208.815 123.567 205.693 117.623C204.333 115.009 203.512 112.154 203.279 109.223C203.177 108.141 203.177 107.053 203.279 105.972C203.279 105.972 191.744 95.5232 193.186 107.399C193.3 108.31 193.366 109.227 193.385 110.145C193.557 119.059 187.912 117.862 187.912 117.862Z" fill="#FDC2CC"/>
<path opacity="0.1" d="M193.21 107.402C193.324 108.313 193.39 109.23 193.409 110.148C194.704 110.996 196.223 111.447 197.775 111.444C199.927 111.444 201.511 109.372 202.941 107.996C202.781 106.022 203.3 105.975 203.3 105.975C203.3 105.975 191.768 95.5142 193.21 107.402Z" fill="black"/>
<path d="M197.775 110.969C202.155 110.969 205.705 107.457 205.705 103.124C205.705 98.7909 202.155 95.2784 197.775 95.2784C193.396 95.2784 189.846 98.7909 189.846 103.124C189.846 107.457 193.396 110.969 197.775 110.969Z" fill="#FDC2CC"/>
<path opacity="0.1" d="M203.421 110.611C203.421 110.611 204.742 110.73 207.385 114.295C210.028 117.859 215.794 118.337 215.794 118.337C215.794 118.337 217.958 117.384 220.359 128.084C222.761 138.783 223.482 145.915 222.281 147.103C221.08 148.291 216.274 149.96 213.86 149.96C213.86 149.96 213.139 164.937 214.34 167.552C215.541 170.167 214.098 171.833 214.098 171.833L203.538 171.12C203.538 171.12 199.933 166.603 199.212 158.758C198.49 150.912 196.089 128.561 197.29 125.946C198.49 123.331 203.777 116.674 203.538 115.96C203.3 115.247 203.421 110.611 203.421 110.611Z" fill="black"/>
<path d="M203.448 110.539C203.448 110.539 205.225 110.491 207.868 114.059C210.511 117.626 216.274 118.101 216.274 118.101C216.274 118.101 218.437 117.149 220.839 127.848C223.241 138.547 223.962 145.679 222.761 146.867C221.56 148.055 216.754 149.721 214.352 149.721C214.352 149.721 213.631 164.698 214.832 167.313C216.033 169.928 214.59 171.594 214.59 171.594L204.03 170.881C204.03 170.881 200.424 166.364 199.703 158.519C198.982 150.673 196.575 128.326 197.775 125.722C198.976 123.119 204.262 116.45 204.024 115.737C203.786 115.023 203.448 110.539 203.448 110.539Z" fill="#D6DBE6"/>
<path opacity="0.1" d="M175.542 169.725C176.691 168.857 178.86 167.504 180.858 167.803L180.508 166.367C180.508 166.367 177.43 165.415 176.344 166.367C175.943 166.713 175.668 168.075 175.542 169.725Z" fill="black"/>
<path opacity="0.1" d="M193.343 112.038C193.343 112.038 187.215 115.96 186.494 117.626C185.773 119.292 183.13 120.48 183.13 120.48C183.13 120.48 178.085 123.095 178.085 132.368L175.442 145.443L187.457 162.086C187.457 162.086 188.899 145.443 189.62 141.401C190.341 137.359 191.3 129.758 191.3 129.758C191.3 129.758 194.906 125.242 194.423 124.054C193.941 122.865 193.343 112.038 193.343 112.038Z" fill="black"/>
<path d="M193.343 111.966C193.343 111.966 186.953 115.486 186.235 117.149C185.516 118.811 182.87 120.003 182.87 120.003C182.87 120.003 177.826 122.618 177.826 131.89L175.182 144.966L174.703 169.929C174.703 169.929 179.029 165.886 182.152 167.788C185.275 169.69 187.197 161.606 187.197 161.606C187.197 161.606 188.639 144.963 189.36 140.92C190.082 136.878 191.041 129.278 191.041 129.278C191.041 129.278 194.647 124.761 194.164 123.573C193.681 122.385 193.343 111.966 193.343 111.966Z" fill="#D6DBE6"/>
<path opacity="0.1" d="M190.815 93.5798C191.221 93.0677 191.692 92.6084 192.215 92.2125C193.041 91.5319 193.956 90.8214 194.981 90.8811C195.562 90.9576 196.119 91.155 196.617 91.4603C199.171 92.7917 201.719 94.1371 204.259 95.4964C205.198 95.9979 206.166 96.5293 206.821 97.4308C207.476 98.3324 207.741 99.4907 207.925 100.625C208.079 101.394 208.116 102.18 208.034 102.96C207.959 103.723 207.584 104.428 206.99 104.921C206.305 105.414 205.367 105.416 204.793 106.061C204.462 106.434 204.317 106.957 204.081 107.411C203.846 107.864 203.439 108.306 202.974 108.226C202.509 108.145 202.229 107.658 202.162 107.166C202.133 106.667 202.162 106.166 202.25 105.673C202.34 104.778 202.226 103.828 201.701 103.163C201.339 102.709 200.82 102.434 200.47 101.968C199.631 100.846 200.014 98.9832 199.094 97.9294C198.827 97.6539 198.49 97.4535 198.119 97.3486C197.748 97.2437 197.356 97.2381 196.982 97.3323C196.237 97.4876 195.555 97.8876 194.87 98.2279C193.945 98.6897 192.975 99.0597 191.976 99.3325C191.137 99.5593 190.166 100.103 189.879 98.9981C189.442 97.3771 189.849 94.8963 190.815 93.5798Z" fill="black"/>
<path d="M191.056 93.344C191.463 92.8319 191.933 92.3725 192.456 91.9767C193.283 91.2961 194.197 90.5856 195.223 90.6453C195.803 90.7217 196.361 90.9191 196.858 91.2244C199.411 92.5559 201.532 91.2961 204.501 95.2605C205.134 96.1084 206.408 96.2934 207.062 97.195C207.717 98.0966 207.983 99.2549 208.167 100.389C208.321 101.158 208.357 101.945 208.275 102.724C208.2 103.488 207.826 104.192 207.231 104.685C206.546 105.178 205.608 105.181 205.035 105.825C204.703 106.199 204.558 106.721 204.323 107.175C204.087 107.629 203.68 108.07 203.215 107.99C202.751 107.909 202.47 107.423 202.404 106.93C202.374 106.431 202.404 105.93 202.491 105.437C202.582 104.542 202.467 103.592 201.942 102.927C201.58 102.473 201.061 102.198 200.711 101.733C199.872 100.61 200.256 98.7473 199.335 97.6935C199.068 97.4181 198.732 97.2177 198.361 97.1128C197.99 97.0079 197.597 97.0023 197.223 97.0965C196.478 97.2517 195.796 97.6517 195.111 97.9921C194.186 98.4539 193.217 98.8239 192.218 99.0966C191.379 99.3235 190.407 99.8668 190.121 98.7623C189.68 97.1413 190.091 94.6575 191.056 93.344Z" fill="#865A61"/>
<path opacity="0.1" d="M212.714 129.63C212.714 129.63 215.918 137.714 213.513 141.043L208.227 139.849C208.227 139.849 213.033 141.276 212.312 138.422C211.591 135.568 212.714 129.63 212.714 129.63Z" fill="black"/>
<path opacity="0.1" d="M214.464 149.605C214.464 149.605 207.494 150.079 205.572 148.652C208.103 150.564 211.092 151.793 214.246 152.22L214.464 149.605Z" fill="black"/>
<path opacity="0.1" d="M184.439 134.38C184.439 134.38 180.834 145.318 181.075 146.981C181.316 148.643 181.796 166.952 181.796 166.952L182.517 166.713L182.276 146.742L184.439 134.38Z" fill="black"/>
<path d="M215.311 147.748L132.941 82.0715C132.462 81.5974 131.893 81.2215 131.266 80.9653C130.64 80.7092 129.968 80.5779 129.291 80.5789H125.791C132.785 71.7107 136.097 60.5369 135.052 49.3359C134.006 38.1348 128.682 27.75 120.165 20.2989C111.648 12.8478 100.579 8.89144 89.2158 9.23662C77.8522 9.58179 67.0495 14.2025 59.0104 22.1565C50.9713 30.1105 46.3012 40.7989 45.9523 52.0423C45.6035 63.2857 49.6021 74.2374 57.1329 82.6643C64.6637 91.0913 75.1596 96.3589 86.4804 97.3932C97.8013 98.4274 109.095 95.1503 118.058 88.2301V91.6901C118.057 92.3608 118.189 93.025 118.448 93.6449C118.707 94.2647 119.087 94.8279 119.566 95.3023L201.936 160.979C202.413 161.454 202.98 161.832 203.605 162.089C204.23 162.347 204.901 162.48 205.578 162.48C206.255 162.48 206.925 162.347 207.551 162.089C208.176 161.832 208.743 161.454 209.22 160.979L215.29 154.978C216.259 154.02 216.805 152.722 216.809 151.367C216.813 150.012 216.274 148.711 215.311 147.748ZM90.5587 80.5789C85.1199 80.5789 79.8033 78.9831 75.2811 75.9935C70.7589 73.0039 67.2343 68.7546 65.153 63.783C63.0717 58.8114 62.5271 53.3408 63.5882 48.063C64.6492 42.7851 67.2682 37.9372 71.114 34.1321C74.9598 30.327 79.8596 27.7357 85.1939 26.6858C90.5282 25.636 96.0573 26.1748 101.082 28.2341C106.107 30.2934 110.402 33.7807 113.423 38.2551C116.445 42.7294 118.058 47.9897 118.058 53.371C118.06 56.945 117.351 60.4845 115.97 63.7871C114.589 67.0897 112.564 70.0906 110.01 72.6181C107.456 75.1456 104.423 77.1502 101.086 78.5172C97.7482 79.8842 94.1709 80.5868 90.5587 80.5848V80.5789Z" fill="url(#paint3_linear)"/>
<path d="M215.915 147.151L133.545 81.4744C133.065 81.0003 132.496 80.6244 131.87 80.3682C131.243 80.1121 130.572 79.9808 129.894 79.9818H126.394C133.388 71.1136 136.7 59.9398 135.655 48.7388C134.61 37.5378 129.286 27.1529 120.769 19.7018C112.252 12.2507 101.183 8.29437 89.8192 8.63954C78.4556 8.98471 67.6529 13.6054 59.6138 21.5594C51.5747 29.5134 46.9046 40.2018 46.5558 51.4452C46.2069 62.6886 50.2055 73.6403 57.7363 82.0673C65.2672 90.4942 75.763 95.7619 87.0839 96.7961C98.4047 97.8303 109.698 94.5532 118.661 87.6331V91.093C118.66 91.7637 118.793 92.428 119.052 93.0478C119.31 93.6676 119.69 94.2309 120.17 94.7052L202.54 160.382C203.016 160.857 203.584 161.235 204.209 161.492C204.834 161.75 205.504 161.883 206.181 161.883C206.858 161.883 207.529 161.75 208.154 161.492C208.779 161.235 209.346 160.857 209.823 160.382L215.894 154.381C216.862 153.423 217.408 152.125 217.412 150.77C217.416 149.415 216.878 148.114 215.915 147.151ZM91.1621 79.9818C85.7233 79.9818 80.4067 78.3861 75.8845 75.3964C71.3624 72.4068 67.8378 68.1575 65.7565 63.1859C63.6751 58.2143 63.1306 52.7437 64.1916 47.4659C65.2527 42.1881 67.8717 37.3401 71.7175 33.535C75.5632 29.7299 80.4631 27.1386 85.7973 26.0888C91.1316 25.0389 96.6607 25.5778 101.685 27.6371C106.71 29.6964 111.005 33.1837 114.027 37.658C117.048 42.1323 118.661 47.3927 118.661 52.7739C118.664 56.3479 117.954 59.8875 116.574 63.19C115.193 66.4926 113.167 69.4935 110.613 72.021C108.059 74.5485 105.027 76.5531 101.689 77.9201C98.3516 79.2871 94.7744 79.9897 91.1621 79.9877V79.9818Z" fill="#3161DF"/>
<path d="M209.79 141.162C209.79 141.162 197.766 127.519 199.456 136.881C200.663 143.539 205.222 147.106 207.385 147.819C209.549 148.533 209.79 141.162 209.79 141.162Z" fill="#FDC2CC"/>
<path d="M212.674 128.561C212.674 128.561 212.916 137.359 214.117 138.547C215.317 139.735 213.395 141.162 213.395 141.162L208.589 139.968C208.589 139.968 209.796 147.814 204.745 146.864C204.745 146.864 208.109 149.954 211.474 150.432C214.838 150.909 214.596 149.718 214.596 149.718L219.641 143.774L212.674 128.561Z" fill="#D6DBE6"/>
<path d="M214.005 149.847L218.881 148.787L218.229 146.563L215.212 145.369L211.289 147.16L214.005 149.847Z" fill="#D6DBE6"/>
<path d="M94.1703 64.0493L100.66 59.0967C100.66 59.0967 96.3125 60.0192 96.4362 53.1441C96.4347 53.1212 96.4347 53.0983 96.4362 53.0754C96.4362 52.4545 96.4966 51.7738 96.5871 51.0245C97.7004 41.8507 88.7996 49.9229 88.7996 49.9229C88.8763 50.7352 88.8763 51.5527 88.7996 52.3649C88.7996 52.3858 88.7996 52.4097 88.7996 52.4306C88.6236 54.6913 87.9938 56.8946 86.9471 58.9116C84.5303 63.497 94.1703 64.0493 94.1703 64.0493Z" fill="#FDC2CC"/>
<path opacity="0.1" d="M89.6294 51.0902C90.7307 52.15 91.4035 54.0755 93.0599 54.0755C94.2584 54.0781 95.4309 53.7301 96.4302 53.0754C96.4302 52.4545 96.4905 51.7738 96.581 51.0245C97.6944 41.8507 88.7936 49.9229 88.7936 49.9229C88.7936 49.9229 89.747 49.5975 89.6294 51.0902Z" fill="black"/>
<path d="M93.0599 53.7769C96.4393 53.7769 99.1788 51.0664 99.1788 47.7228C99.1788 44.3792 96.4393 41.6686 93.0599 41.6686C89.6806 41.6686 86.941 44.3792 86.941 47.7228C86.941 51.0664 89.6806 53.7769 93.0599 53.7769Z" fill="#FDC2CC"/>
<path opacity="0.1" d="M98.9284 39.97C98.5775 39.5312 98.172 39.138 97.7215 38.7998C97.0155 38.2176 96.231 37.6057 95.353 37.6594C94.8562 37.7248 94.379 37.8937 93.953 38.155C91.7656 39.2953 89.9522 38.2176 87.4087 41.6089C86.8656 42.3344 85.7764 42.5045 85.2152 43.2658C84.654 44.027 84.4277 45.0271 84.2678 46.0003C84.1356 46.6586 84.1041 47.3328 84.1742 48.0004C84.2413 48.6557 84.5665 49.2584 85.0794 49.6782C85.6647 50.0991 86.4703 50.1021 86.9622 50.6544C87.2094 51.0141 87.4121 51.402 87.5656 51.8097C87.7647 52.1977 88.1147 52.5649 88.513 52.5082C88.9113 52.4515 89.1496 52.0246 89.207 51.6126C89.2319 51.1863 89.2066 50.7585 89.1315 50.3379C89.0561 49.5826 89.1527 48.7587 89.6022 48.1885C89.9039 47.7974 90.3565 47.5646 90.6552 47.1675C91.3733 46.2093 91.0475 44.6002 91.835 43.7106C92.0653 43.4766 92.3541 43.3072 92.6721 43.2196C92.9901 43.1321 93.3259 43.1294 93.6453 43.212C94.2795 43.3911 94.8879 43.65 95.4556 43.9822C96.2477 44.3779 97.0775 44.6948 97.9327 44.9286C98.6508 45.1226 99.4836 45.5883 99.728 44.63C100.111 43.221 99.7521 41.0955 98.9284 39.97Z" fill="black"/>
<path d="M98.9284 39.6715C98.5775 39.2327 98.172 38.8395 97.7215 38.5013C97.0155 37.9191 96.231 37.3071 95.353 37.3609C94.8562 37.4263 94.379 37.5952 93.953 37.8564C91.7656 38.9968 89.9522 37.9191 87.4087 41.3104C86.8656 42.0358 85.7764 42.206 85.2152 42.9672C84.654 43.7285 84.4277 44.7286 84.2678 45.7018C84.1356 46.3601 84.1041 47.0343 84.1742 47.7019C84.2413 48.3571 84.5665 48.9599 85.0794 49.3796C85.6647 49.8006 86.4703 49.8036 86.9622 50.3558C87.2094 50.7156 87.4121 51.1035 87.5656 51.5111C87.7647 51.8992 88.1147 52.2664 88.513 52.2097C88.9113 52.153 89.1496 51.7261 89.207 51.3141C89.2319 50.8877 89.2066 50.46 89.1315 50.0394C89.0561 49.2841 89.1527 48.4602 89.6022 47.89C89.9039 47.4989 90.3565 47.2661 90.6552 46.869C91.3733 45.9107 91.0475 44.3017 91.835 43.4121C92.0653 43.1781 92.3541 43.0087 92.6721 42.9211C92.9901 42.8335 93.3259 42.8309 93.6453 42.9135C94.2795 43.0926 94.8879 43.3515 95.4556 43.6837C96.2477 44.0793 97.0775 44.3963 97.9327 44.6301C98.6508 44.8241 99.4836 45.2898 99.728 44.3315C100.111 42.9225 99.7521 40.7969 98.9284 39.6715Z" fill="#865A61"/>
<path opacity="0.1" d="M86.941 67.2346L86.8203 71.817C88.5738 72.2885 90.383 72.5264 92.2 72.5245C92.5017 72.5245 92.8186 72.5245 93.1263 72.5036C94.7377 72.4349 96.335 72.1764 97.8845 71.7334H97.9146C98.2013 71.6498 98.4849 71.5633 98.7655 71.4677H98.7957L99.0521 71.3782C100.029 71.0379 100.977 70.6227 101.888 70.1363L101.946 70.1065C102.045 70.0527 102.145 69.999 102.247 69.9423L101.78 63.7657L102.525 59.5296L98.4457 56.7801C98.2167 57.1073 97.9603 57.4149 97.6793 57.6996C97.2766 58.1157 96.8052 58.461 96.2853 58.7206C93.3586 60.1475 90.0276 57.8787 88.3712 56.4756L87.994 56.1443C87.5656 55.7592 87.3212 55.4965 87.3212 55.4965L85.2816 58.6131L86.941 67.2346Z" fill="black"/>
<path d="M86.941 67.5331L86.8203 72.1155C88.5738 72.587 90.383 72.825 92.2 72.8231C92.5017 72.8231 92.8186 72.8231 93.1263 72.8022C94.7377 72.7335 96.335 72.4749 97.8845 72.032H97.9146C98.2013 71.9484 98.4849 71.8618 98.7655 71.7663H98.7957L99.0521 71.6767C100.029 71.3364 100.977 70.9212 101.888 70.4348L101.946 70.405C102.045 70.3512 102.145 70.2975 102.247 70.2408L101.78 64.0642L102.525 59.8281L98.4457 57.0787C98.2167 57.4058 97.9603 57.7134 97.6793 57.9981C97.2766 58.4143 96.8052 58.7595 96.2853 59.0191C93.3586 60.4461 90.0276 58.1772 88.3712 56.7742L87.994 56.4428C87.5656 56.0577 87.3212 55.795 87.3212 55.795L85.2816 58.9116L86.941 67.5331Z" fill="#53526B"/>
<path d="M98.2495 67.9003C98.2495 67.9003 98.4728 69.6587 98.7655 71.7603H98.7957L99.0521 71.6708C100.029 71.3305 100.977 70.9152 101.888 70.4289L101.946 70.399C102.045 70.3453 102.145 70.2916 102.247 70.2348C103.585 69.492 104.834 68.6028 105.971 67.5839L106.07 67.4914C106.694 66.933 107.279 66.3346 107.823 65.7002L107.887 65.6256C106.809 61.9268 104.568 60.7625 104.568 60.7625C104.568 60.7625 102.528 59.843 101.97 58.5594C101.412 57.2757 96.4845 54.5621 96.4845 54.5621V54.583C96.4845 54.8128 96.406 56.9175 96.2884 59.034C96.2129 60.4103 96.1194 61.7924 96.0108 62.6701C95.9873 62.9552 95.9347 63.2373 95.8539 63.512C95.4707 64.4165 98.2495 67.9003 98.2495 67.9003Z" fill="#555388"/>
</g>
<defs>
<linearGradient id="paint0_linear" x1="155.169" y1="237.211" x2="155.169" y2="11.7292" gradientUnits="userSpaceOnUse">
<stop stop-color="#808080" stop-opacity="0.25"/>
<stop offset="0.54" stop-color="#808080" stop-opacity="0.12"/>
<stop offset="1" stop-color="#808080" stop-opacity="0.1"/>
</linearGradient>
<linearGradient id="paint1_linear" x1="11285.4" y1="18493.9" x2="11285.4" y2="14121.6" gradientUnits="userSpaceOnUse">
<stop stop-color="#808080" stop-opacity="0.25"/>
<stop offset="0.54" stop-color="#808080" stop-opacity="0.12"/>
<stop offset="1" stop-color="#808080" stop-opacity="0.1"/>
</linearGradient>
<linearGradient id="paint2_linear" x1="-52758.7" y1="140804" x2="-52758.7" y2="52776.7" gradientUnits="userSpaceOnUse">
<stop stop-color="#808080" stop-opacity="0.25"/>
<stop offset="0.54" stop-color="#808080" stop-opacity="0.12"/>
<stop offset="1" stop-color="#808080" stop-opacity="0.1"/>
</linearGradient>
<linearGradient id="paint3_linear" x1="81812.6" y1="87086.1" x2="81812.6" y2="8372.83" gradientUnits="userSpaceOnUse">
<stop stop-color="#808080" stop-opacity="0.25"/>
<stop offset="0.54" stop-color="#808080" stop-opacity="0.12"/>
<stop offset="1" stop-color="#808080" stop-opacity="0.1"/>
</linearGradient>
<clipPath id="clip0">
<rect width="336" height="252" fill="white"/>
</clipPath>
</defs>
</svg>
