<svg width="334" height="254" viewBox="0 0 334 254" fill="none" xmlns="http://www.w3.org/2000/svg">
<g clip-path="url(#clip0)">
<path opacity="0.1" d="M273.515 139.389C264.423 152.253 267.955 171.046 273.732 186.097C275.667 191.136 277.854 196.468 277.038 201.872C276.04 208.48 270.741 213.312 265.177 215.873C255.034 220.541 242.897 219.429 233.577 212.976C225.523 207.4 219.755 198.332 211.564 193.01C197.855 184.103 180.407 187.466 165.521 193.602C154.99 197.943 143.476 203.588 133.012 199.051C125.649 195.859 120.559 188.09 117.786 179.855C116.447 175.879 115.475 171.575 112.918 168.424C111.398 166.55 109.414 165.22 107.382 164.099C88.8258 153.859 65.3892 159.343 47.3655 147.986C35.1929 140.315 27.4 125.847 23.9496 110.76C20.4992 95.6731 20.9011 79.8535 21.7771 64.3163C22.3997 53.2746 23.5167 41.4864 29.856 32.9645C36.5621 23.9495 48.0712 20.5974 58.4739 22.3108C68.8766 24.0243 78.3058 30.1314 86.6011 37.3244C96.9686 46.3143 106.583 57.5087 119.312 61.1503C127.981 63.6303 137.099 62.2737 146.04 61.804C160.986 61.0186 175.938 62.7651 190.802 64.6774C205.032 66.5082 219.364 68.5231 232.92 73.6748C242.513 77.3205 250.204 83.9383 259.262 88.5616C265.167 91.5752 271.606 92.4073 277.196 96.2458C284.083 100.974 290.396 109.198 288.632 118.822C286.954 127.972 278.34 132.561 273.515 139.389Z" fill="#3161DF"/>
<path opacity="0.1" d="M6.77814 171.019C6.77814 171.019 59.059 155.757 126.767 194.547C194.475 233.337 268.468 164.024 267.04 153.532C265.611 143.039 316.178 153.532 316.178 153.532V247.327H6.77814V171.019Z" fill="#3161DF"/>
<path d="M43.1693 31.6268C51.0166 31.6268 57.3781 24.5469 57.3781 15.8134C57.3781 7.0799 51.0166 0 43.1693 0C35.322 0 28.9604 7.0799 28.9604 15.8134C28.9604 24.5469 35.322 31.6268 43.1693 31.6268Z" fill="#FFDF9C"/>
<path d="M142.833 80.8016L140.519 96.8227C140.519 96.8227 137.626 107.397 137.915 112.523C138.204 117.65 137.915 124.7 137.915 124.7C137.915 124.7 130.972 138.798 136.758 144.566C142.544 150.333 144.279 126.302 144.279 126.302C144.279 126.302 143.412 116.048 145.437 110.601C147.462 105.154 147.751 93.2981 147.751 93.2981L142.833 80.8016Z" fill="#FFCDD3"/>
<path opacity="0.05" d="M142.833 80.8016L140.519 96.8227C140.519 96.8227 137.626 107.397 137.915 112.523C138.204 117.65 137.915 124.7 137.915 124.7C137.915 124.7 130.972 138.798 136.758 144.566C142.544 150.333 144.279 126.302 144.279 126.302C144.279 126.302 143.412 116.048 145.437 110.601C147.462 105.154 147.751 93.2981 147.751 93.2981L142.833 80.8016Z" fill="black"/>
<path d="M176.727 135.894L180.729 152.576L184.49 172.122C184.49 172.122 186.515 176.288 184.49 184.939L191.144 208.971C191.144 208.971 194.904 224.351 197.219 224.672C199.533 224.992 194.904 236.848 194.904 236.848L188.54 232.682C188.54 232.682 186.804 223.07 184.49 220.827C182.176 218.584 174.654 196.154 174.654 196.154L172.34 180.453C172.34 180.453 165.108 158.985 158.744 153.858C152.379 148.731 150.354 140.4 150.354 140.4L176.727 135.894Z" fill="#FFCDD3"/>
<path opacity="0.05" d="M150.354 140.4C150.354 140.4 152.379 148.731 158.744 153.858C165.108 158.985 172.34 180.453 172.34 180.453L174.654 196.154C174.654 196.154 182.176 218.584 184.49 220.827C186.188 222.474 187.577 228.091 188.193 230.962C188.419 232.003 188.54 232.682 188.54 232.682L194.904 236.848C194.904 236.848 199.533 224.992 197.219 224.672C196.86 224.624 196.466 224.21 196.056 223.55C193.828 219.955 191.144 208.971 191.144 208.971L184.49 184.939C186.515 176.288 184.49 172.122 184.49 172.122L180.729 152.576L176.728 135.895L150.354 140.4Z" fill="black"/>
<path d="M113.326 223.71L115.64 229.798L126.054 228.517C125.734 226.862 125.555 225.178 125.522 223.486C125.43 219.849 125.933 214.94 128.658 211.214C133.576 204.485 141.097 187.823 141.097 187.823C141.097 187.823 148.619 178.851 150.354 175.326L164.836 148.421L164.385 146.008L168.29 142.002H143.99L138.204 166.995L133.576 177.249C133.576 177.249 123.74 186.541 119.979 206.087C119.979 206.087 116.227 219.109 113.838 222.996C113.689 223.252 113.517 223.491 113.326 223.71Z" fill="#FFCDD3"/>
<path opacity="0.1" d="M188.193 230.962C188.419 232.003 188.54 232.682 188.54 232.682L194.904 236.848C194.904 236.848 199.533 224.992 197.219 224.672C196.86 224.624 196.466 224.21 196.056 223.55C195.755 223.749 195.521 224.052 195.387 224.411C195.254 224.771 195.228 225.169 195.315 225.546C195.406 226.025 195.56 226.486 195.772 226.915C196.64 228.517 192.879 231.08 192.879 231.08C191.612 232.884 189.555 231.932 188.193 230.962Z" fill="black"/>
<path d="M195.604 226.187C195.207 224.339 197.294 223.1 198.466 224.487C198.764 224.834 199.025 225.219 199.244 225.633C200.401 227.876 209.079 229.798 210.815 229.158C212.551 228.517 218.626 227.876 217.179 232.682C215.733 237.489 189.697 244.538 189.697 244.538C189.697 244.538 186.804 240.052 187.094 236.848C187.262 234.716 187.262 232.571 187.094 230.439C187.094 230.439 191.144 234.605 193.169 231.721C193.169 231.721 196.929 229.158 196.061 227.555C195.849 227.127 195.695 226.666 195.604 226.187Z" fill="#DCE6F2"/>
<path opacity="0.1" d="M113.326 223.71L115.64 229.798L126.055 228.517C125.734 226.862 125.556 225.178 125.522 223.486C125.419 223.257 125.267 223.058 125.08 222.908C124.893 222.758 124.676 222.661 124.447 222.625C124.219 222.589 123.986 222.615 123.769 222.7C123.552 222.786 123.356 222.929 123.199 223.118C122.661 223.758 122.117 224.435 121.715 224.992C120.558 226.594 116.797 225.633 116.797 225.633C115.822 225.992 114.665 224.435 113.838 222.996C113.689 223.252 113.517 223.491 113.326 223.71Z" fill="black"/>
<path d="M122.909 223.759C123.082 223.55 123.302 223.397 123.546 223.316C123.79 223.234 124.049 223.227 124.296 223.295C124.543 223.363 124.77 223.503 124.952 223.702C125.134 223.9 125.264 224.15 125.33 224.423C125.857 226.702 127.011 229.646 129.526 230.76C133.865 232.682 139.94 235.886 137.915 238.77C135.89 241.654 128.947 244.217 122.872 241.974C116.797 239.732 108.119 234.284 108.119 234.284L112.458 221.467C112.458 221.467 114.772 226.915 116.508 226.274C116.508 226.274 120.269 227.235 121.426 225.633C121.829 225.075 122.372 224.401 122.909 223.759Z" fill="#DCE6F2"/>
<path d="M162.215 43.6325C162.215 43.6325 155.272 54.2065 157.008 61.5762C158.744 68.946 143.122 56.7699 143.122 56.7699C143.122 56.7699 151.222 48.7593 149.776 35.6219L162.215 43.6325Z" fill="#FFCDD3"/>
<path d="M139.362 143.925C150.933 151.615 164.819 148.411 164.819 148.411L164.529 146.168C164.732 146.19 164.934 146.213 165.131 146.232C176.19 147.315 178.704 143.605 178.704 143.605C176.974 138.218 175.618 126.798 174.773 117.971C174.651 116.702 174.542 115.487 174.44 114.35C174.212 111.777 174.041 109.611 173.931 108.146C173.836 106.858 173.786 106.115 173.786 106.115L172.629 96.5023C172.629 96.5023 169.447 84.9671 170.894 77.2769C172.126 70.7272 168.111 68.3613 166.894 67.8036C166.702 67.7218 166.506 67.6571 166.305 67.6101C164.719 67.1935 162.952 65.3967 161.448 63.4699C159.257 60.6898 156.464 58.5787 153.334 57.337C151.879 56.7506 150.644 56.129 150.644 56.129C148.619 53.5656 143.122 55.1677 143.122 55.1677C136.469 59.9741 139.94 75.6748 139.94 75.6748L142.706 84.4288C144.248 89.3024 146.443 93.8652 148.977 98.2005C153.23 105.468 147.462 115.407 147.462 115.407C138.494 123.418 139.362 143.925 139.362 143.925Z" fill="#FF8AA1"/>
<path opacity="0.05" d="M164.095 129.025L165.131 146.232C176.19 147.315 178.704 143.605 178.704 143.605C176.974 138.218 175.618 126.798 174.773 117.971C174.651 116.702 174.542 115.487 174.44 114.35L164.095 129.025Z" fill="black"/>
<path opacity="0.1" d="M145.726 84.0058C145.726 84.0058 150.933 94.9002 152.669 99.7066C154.404 104.513 154.404 102.911 155.272 104.513C156.14 106.115 165.397 113.164 165.397 113.164L174.773 117.971C174.377 113.831 174.09 110.258 173.931 108.146L165.108 101.629C165.108 101.629 159.033 97.4636 158.744 92.0164C158.454 86.5692 154.694 76.6361 154.694 76.6361C154.694 76.6361 147.172 67.6642 143.99 71.8297C140.808 75.9952 145.726 84.0058 145.726 84.0058Z" fill="black"/>
<path d="M154.694 75.034C154.694 75.034 158.454 84.9671 158.744 90.4143C159.033 95.8615 165.108 100.027 165.108 100.027L184.201 114.126C184.201 114.126 200.69 120.214 195.194 127.263C189.697 134.312 181.019 119.573 181.019 119.573L165.397 111.562C165.397 111.562 156.14 104.513 155.272 102.911C154.404 101.309 154.404 102.911 152.669 98.1044C150.933 93.2981 145.726 82.4037 145.726 82.4037C145.726 82.4037 140.808 74.3931 143.99 70.2276C147.172 66.0621 154.694 75.034 154.694 75.034Z" fill="#FFCDD3"/>
<path opacity="0.1" d="M157.008 79.1995C157.008 79.1995 151.222 74.3931 150.065 72.791C149.554 72.0837 148.762 72.1883 148.035 72.5257C146.68 73.1688 145.206 73.4384 143.737 73.3117C142.471 73.1915 141.242 73.2716 141.387 74.0727C141.676 75.6748 140.519 65.7417 140.519 65.7417L145.437 63.8192L151.801 67.6642L157.008 79.1995Z" fill="black"/>
<path d="M157.008 78.5586C157.008 78.5586 151.222 73.7523 150.065 72.1502C149.554 71.4429 148.762 71.5474 148.035 71.8848C146.68 72.528 145.206 72.7976 143.737 72.6709C142.471 72.5507 141.242 72.6308 141.387 73.4319C141.676 75.034 140.519 65.1009 140.519 65.1009L145.437 63.1783L151.801 67.0234L157.008 78.5586Z" fill="#FF8AA1"/>
<path opacity="0.1" d="M170.632 79.1995C169.587 79.7068 168.448 79.928 167.311 79.8443C166.174 79.7607 165.071 79.3747 164.095 78.7188" fill="black"/>
<path opacity="0.1" d="M151.656 36.423C151.873 34.5076 149.731 38.4857 149.487 36.2628L161.926 44.2733C161.926 44.2733 161.216 45.3564 160.307 47.0665C159.836 47.1261 159.363 47.1563 158.888 47.1572C155.146 47.1572 153.961 39.2954 151.656 36.423Z" fill="black"/>
<path d="M159.178 46.5163C166.128 46.5163 171.762 40.2759 171.762 32.5779C171.762 24.8799 166.128 18.6395 159.178 18.6395C152.228 18.6395 146.594 24.8799 146.594 32.5779C146.594 40.2759 152.228 46.5163 159.178 46.5163Z" fill="#FFCDD3"/>
<path opacity="0.1" d="M164.823 32.8212C164.729 33.6962 164.747 34.6212 164.371 35.3979C163.844 36.4855 162.71 36.9803 161.762 37.6275C157.917 40.2505 156.777 46.1518 158.002 50.9652C158.435 52.6685 159.119 54.397 158.835 56.1385C158.347 59.1312 155.269 60.6827 152.534 60.9485C149.799 61.2142 146.936 60.7232 144.378 61.8284C140.082 63.6847 138.19 69.2656 134.538 72.3845C130.291 76.0121 124.44 75.7874 119.09 76.2072C117.112 76.3624 115.105 76.6262 113.162 76.1879C111.219 75.7496 109.301 74.452 108.615 72.3913C107.646 69.4837 109.41 66.3309 111.459 64.2202C113.508 62.1096 116.009 60.3289 117.168 57.5085C118.728 53.7174 117.467 48.9291 119.429 45.3745C119.785 44.6533 120.346 44.0836 121.024 43.7541C121.888 43.3947 122.847 43.6431 123.769 43.6782C127.341 43.8142 130.388 40.6577 132.048 37.1507C133.707 33.6437 134.412 29.6741 135.929 26.0891C137.647 22.0319 140.508 18.4515 144.228 16.6905C146.408 15.6588 148.786 15.2799 151.062 14.5459C153.648 13.7115 156.117 12.4127 158.767 11.872C161.416 11.3312 164.417 11.6881 166.354 13.7618C168.177 15.7137 168.709 18.7762 170.452 20.8161C171.11 21.5872 171.956 22.2393 172.273 23.241C173.024 25.6141 169.38 25.8142 168.165 26.7644C167.262 27.4621 166.499 28.3605 165.924 29.403C165.349 30.4455 164.974 31.6094 164.823 32.8212Z" fill="black"/>
<path d="M164.245 32.5008C164.15 33.3758 164.168 34.3008 163.792 35.0775C163.266 36.1651 162.131 36.66 161.183 37.3071C157.339 39.9301 156.199 45.8314 157.423 50.6448C157.857 52.3481 158.54 54.0766 158.256 55.8181C157.768 58.8108 154.691 60.3623 151.956 60.6281C149.221 60.8939 146.357 60.4028 143.799 61.508C139.503 63.3643 137.612 68.9452 133.96 72.0641C129.712 75.6917 123.862 75.467 118.512 75.8868C116.534 76.042 114.526 76.3058 112.583 75.8675C110.64 75.4292 108.723 74.1316 108.036 72.0709C107.068 69.1633 108.832 66.0105 110.88 63.8999C112.929 61.7892 115.43 60.0085 116.59 57.1882C118.149 53.3971 116.889 48.6087 118.85 45.0541C119.207 44.3329 119.768 43.7632 120.446 43.4338C121.309 43.0744 122.268 43.3227 123.19 43.3578C126.763 43.4939 129.81 40.3373 131.469 36.8303C133.128 33.3233 133.833 29.3537 135.351 25.7687C137.068 21.7116 139.93 18.1311 143.65 16.3701C145.829 15.3384 148.208 14.9596 150.483 14.2255C153.07 13.3911 155.539 12.0924 158.188 11.5516C160.837 11.0108 163.839 11.3677 165.776 13.4415C167.599 15.3933 168.13 18.4559 169.873 20.4958C170.532 21.2668 171.378 21.9189 171.695 22.9206C172.445 25.2937 168.802 25.4939 167.587 26.444C166.684 27.1417 165.921 28.0401 165.345 29.0826C164.77 30.1251 164.395 31.289 164.245 32.5008Z" fill="#3161DF"/>
<path d="M17.2057 247.486C17.2057 247.486 7.77797 228.727 19.4912 213.783C31.2044 198.84 44.9174 207.106 44.9174 207.106C44.9174 207.106 62.0587 216.009 58.0591 237.312C58.0591 237.312 55.7735 248.122 48.917 247.486H17.2057Z" fill="#3161DF"/>
<path opacity="0.2" d="M17.2057 247.486C17.2057 247.486 7.77797 228.727 19.4912 213.783C31.2044 198.84 44.9174 207.106 44.9174 207.106C44.9174 207.106 62.0587 216.009 58.0591 237.312C58.0591 237.312 55.7735 248.122 48.917 247.486H17.2057Z" fill="white"/>
<path d="M32.0139 247.513L42.3462 212.511" stroke="#535461" stroke-miterlimit="10"/>
<path d="M51.774 217.917C51.774 217.917 46.4544 215.131 41.1149 216.683C41.1149 216.683 38.3467 209.014 32.0615 207.742" stroke="#535461" stroke-miterlimit="10"/>
<path d="M54.3452 229.999C54.3452 229.999 45.2993 222.723 38.6804 224.93C38.6804 224.93 31.2045 215.055 26.0621 215.691" stroke="#535461" stroke-miterlimit="10"/>
<path d="M52.3453 243.035C52.3453 243.035 44.6137 236.811 35.0522 237.221C35.0522 237.221 27.7761 227.455 20.9196 226.819" stroke="#535461" stroke-miterlimit="10"/>
<path d="M36.1414 247.513C34.9562 246.89 33.7195 246.397 32.4487 246.04C32.4487 246.04 26.4906 237.418 14.5631 240.226" stroke="#535461" stroke-miterlimit="10"/>
<path d="M119.196 247.486C119.196 247.486 128.624 230.317 105.198 204.881C81.7712 179.445 83.1996 174.675 85.1994 170.86C85.1994 170.86 66.344 173.404 70.3436 204.881C74.3433 236.358 91.4845 247.486 91.4845 247.486H119.196Z" fill="#3161DF"/>
<path d="M105.912 247.486C105.912 247.486 98.9125 224.912 88.342 211.24C77.7716 197.568 79.7714 174.993 85.1995 170.86" stroke="#535461" stroke-width="2" stroke-miterlimit="10"/>
<path d="M273.531 44.1224C269.321 48.8773 269.044 56.1711 269.044 56.1711C269.044 56.1711 275.593 55.756 279.803 51.0012C284.013 46.2463 284.29 38.9525 284.29 38.9525C284.29 38.9525 277.741 39.3676 273.531 44.1224Z" fill="#3161DF"/>
<path d="M22.9828 116.615C18.7728 121.37 18.496 128.664 18.496 128.664C18.496 128.664 25.045 128.249 29.255 123.494C33.465 118.739 33.7418 111.445 33.7418 111.445C33.7418 111.445 27.1928 111.86 22.9828 116.615Z" fill="#FC6681"/>
<path d="M257.533 132.195C253.323 136.949 253.046 144.243 253.046 144.243C253.046 144.243 259.595 143.828 263.805 139.073C268.015 134.319 268.292 127.025 268.292 127.025C268.292 127.025 261.743 127.44 257.533 132.195Z" fill="#3161DF"/>
<path d="M51.2193 126.969C45.6717 124.43 39.5004 126.905 39.5004 126.905C39.5004 126.905 42.3236 133.495 47.8712 136.033C53.4188 138.571 59.5901 136.096 59.5901 136.096C59.5901 136.096 56.767 129.507 51.2193 126.969Z" fill="#3161DF"/>
<path d="M120.974 117.435C117.768 111.793 111.447 109.84 111.447 109.84C111.447 109.84 110.326 117.033 113.532 122.674C116.739 128.316 123.059 130.269 123.059 130.269C123.059 130.269 124.181 123.076 120.974 117.435Z" fill="#FFD037"/>
<path d="M198.369 143.51C199.737 143.51 200.846 142.276 200.846 140.754C200.846 139.231 199.737 137.997 198.369 137.997C197.002 137.997 195.893 139.231 195.893 140.754C195.893 142.276 197.002 143.51 198.369 143.51Z" fill="#FC6681"/>
<path d="M204.148 172.911C205.516 172.911 206.625 171.677 206.625 170.154C206.625 168.632 205.516 167.398 204.148 167.398C202.78 167.398 201.672 168.632 201.672 170.154C201.672 171.677 202.78 172.911 204.148 172.911Z" fill="#FC6681"/>
<path d="M151.908 179.127C151.908 179.127 142.48 167.363 139.052 181.988C135.623 196.614 133.624 198.522 126.767 194.706C119.911 190.891 112.768 209.014 129.624 222.05C146.48 235.086 137.052 247.963 137.052 247.963H197.332C197.332 247.963 205.331 222.05 187.904 213.147C170.477 204.245 171.049 197.568 171.62 188.665C172.191 179.763 151.908 179.127 151.908 179.127Z" fill="#3161DF"/>
<path d="M143.908 174.653C143.908 174.653 183.048 232.065 169.62 247.963" stroke="#535461" stroke-width="2" stroke-miterlimit="10"/>
<path d="M133.789 195.631C133.789 195.631 143.051 204.404 158.193 199.952C173.334 195.501 169.601 184.082 169.601 184.082" stroke="#535461" stroke-width="2" stroke-miterlimit="10"/>
<path d="M197.175 223.383C197.175 223.383 177.025 212.507 166.894 216.563C140.519 227.124 120.91 198.681 120.91 198.681" stroke="#535461" stroke-width="2" stroke-miterlimit="10"/>
<path d="M138.623 247.486C138.623 247.486 150.908 237.312 135.481 201.701C135.481 201.701 114.911 173.404 135.481 146.696C135.481 146.696 90.6275 147.968 91.4846 194.388C92.3417 240.809 113.911 247.486 113.911 247.486H138.623Z" fill="#3161DF"/>
<path d="M127.148 247.486C127.148 247.486 124.053 223.004 115.768 208.06C114.133 205.041 112.957 201.742 112.287 198.297C109.517 184.743 113.466 170.569 122.411 160.868L135.481 146.696" stroke="#535461" stroke-width="2" stroke-miterlimit="10"/>
<path opacity="0.1" d="M138.623 247.486C138.623 247.486 150.908 237.312 135.481 201.701C135.481 201.701 114.911 173.404 135.481 146.696C135.481 146.696 90.6275 147.968 91.4846 194.388C92.3417 240.809 113.911 247.486 113.911 247.486H138.623Z" fill="black"/>
<path d="M248.738 247.206C248.738 247.206 206.701 236.747 260.188 175.544C260.188 175.544 283.244 199.863 274.786 230.095C271.385 242.25 260.445 249.754 249.365 247.349C249.157 247.304 248.949 247.257 248.738 247.206Z" fill="#3161DF"/>
<path opacity="0.4" d="M248.738 247.206C247.815 246.976 207.607 235.711 260.188 175.544C260.188 175.544 283.244 199.863 274.786 230.095C271.385 242.25 260.445 249.754 249.365 247.349C249.158 247.304 248.949 247.257 248.738 247.206Z" fill="white"/>
<path d="M249.29 247.554C249.29 247.554 271.494 210.327 260.188 175.543" stroke="#535461" stroke-miterlimit="10"/>
<path d="M74.7544 247.206C74.7544 247.206 32.7173 236.747 86.204 175.544C86.204 175.544 109.26 199.863 100.802 230.095C97.4012 242.25 86.4612 249.754 75.381 247.349C75.1735 247.304 74.9647 247.257 74.7544 247.206Z" fill="#3161DF"/>
<path opacity="0.4" d="M74.7544 247.206C73.8314 246.976 33.6227 235.711 86.2039 175.544C86.2039 175.544 109.26 199.863 100.802 230.095C97.4012 242.25 86.4612 249.754 75.381 247.349C75.1735 247.304 74.9647 247.257 74.7544 247.206Z" fill="white"/>
<path d="M75.3063 247.554C75.3063 247.554 97.5098 210.327 86.2039 175.543" stroke="#535461" stroke-miterlimit="10"/>
<path d="M168.746 247.206C168.746 247.206 126.709 236.747 180.195 175.544C180.195 175.544 203.252 199.863 194.793 230.095C191.393 242.25 180.453 249.754 169.372 247.349C169.165 247.304 168.956 247.257 168.746 247.206Z" fill="#3161DF"/>
<path opacity="0.4" d="M168.746 247.206C167.823 246.976 127.614 235.711 180.195 175.544C180.195 175.544 203.252 199.863 194.793 230.095C191.393 242.25 180.453 249.754 169.372 247.349C169.165 247.304 168.956 247.257 168.746 247.206Z" fill="white"/>
<path d="M169.298 247.554C169.298 247.554 191.501 210.327 180.195 175.543" stroke="#535461" stroke-miterlimit="10"/>
<path d="M297.877 247.206C297.877 247.206 255.84 236.747 309.326 175.544C309.326 175.544 332.383 199.863 323.924 230.095C320.524 242.25 309.584 249.754 298.503 247.349C298.296 247.304 298.087 247.257 297.877 247.206Z" fill="#3161DF"/>
<path opacity="0.4" d="M297.877 247.206C296.954 246.976 256.745 235.711 309.326 175.544C309.326 175.544 332.383 199.863 323.924 230.095C320.524 242.25 309.584 249.754 298.503 247.349C298.296 247.304 298.087 247.257 297.877 247.206Z" fill="white"/>
<path d="M298.429 247.554C298.429 247.554 320.632 210.327 309.326 175.543" stroke="#535461" stroke-miterlimit="10"/>
<path d="M219.598 247.206C219.598 247.206 177.561 236.747 231.048 175.544C231.048 175.544 254.104 199.863 245.646 230.095C242.245 242.25 231.305 249.754 220.225 247.349C220.017 247.304 219.809 247.257 219.598 247.206Z" fill="#3161DF"/>
<path opacity="0.4" d="M219.598 247.206C218.675 246.976 178.466 235.711 231.048 175.544C231.048 175.544 254.104 199.863 245.646 230.095C242.245 242.25 231.305 249.754 220.225 247.349C220.017 247.304 219.808 247.257 219.598 247.206Z" fill="white"/>
<path d="M220.15 247.554C220.15 247.554 242.354 210.327 231.048 175.543" stroke="#535461" stroke-miterlimit="10"/>
<path d="M73.3468 243.55C74.5876 242.503 75.7517 241.268 76.1092 239.765C76.2935 238.969 76.1959 238.125 75.8366 237.407C75.4773 236.69 74.8838 236.153 74.1789 235.909C72.4061 235.293 70.5116 236.409 69.0753 237.536C67.639 238.663 65.9929 239.949 64.1131 239.71C66.0606 238.145 66.9863 235.601 66.4494 233.29C66.3577 232.792 66.131 232.337 65.7996 231.986C64.8155 231.031 63.0315 231.441 61.8531 232.194C58.1058 234.587 57.0601 239.209 57.0397 243.369C56.6618 241.869 56.9801 240.305 56.9708 238.766C56.9615 237.227 56.4969 235.52 55.0669 234.694C54.2178 234.203 53.1689 234.107 52.163 234.074C50.4785 234.018 48.6024 234.171 47.452 235.29C46.0227 236.68 46.3934 239.012 47.6369 240.542C48.8804 242.072 50.7718 243.031 52.5129 244.088C53.8398 244.894 55.1817 245.835 55.9975 247.106C56.1014 247.274 56.188 247.455 56.2558 247.645H66.816C69.1366 246.585 71.3302 245.21 73.3468 243.55Z" fill="#3161DF"/>
<path d="M250.188 243.55C251.429 242.503 252.593 241.268 252.95 239.765C253.134 238.969 253.037 238.125 252.677 237.407C252.318 236.69 251.725 236.153 251.02 235.909C249.247 235.293 247.352 236.409 245.916 237.536C244.48 238.663 242.834 239.949 240.954 239.71C242.901 238.145 243.827 235.601 243.29 233.29C243.199 232.792 242.972 232.337 242.641 231.986C241.656 231.031 239.872 231.441 238.694 232.194C234.947 234.587 233.901 239.209 233.881 243.369C233.503 241.869 233.821 240.305 233.812 238.766C233.802 237.227 233.338 235.52 231.908 234.694C231.059 234.203 230.01 234.107 229.004 234.074C227.319 234.018 225.443 234.171 224.293 235.29C222.864 236.68 223.234 239.012 224.478 240.542C225.721 242.072 227.613 243.031 229.354 244.088C230.681 244.894 232.023 245.835 232.838 247.106C232.942 247.274 233.029 247.455 233.097 247.645H243.657C245.977 246.585 248.171 245.21 250.188 243.55Z" fill="#3161DF"/>
<path d="M193.372 220.669C202.608 239.732 222.209 247.915 222.209 247.915C222.209 247.915 226.837 225.191 217.601 206.129C208.365 187.066 188.763 178.883 188.763 178.883C188.763 178.883 184.136 201.607 193.372 220.669Z" fill="#3F3D56"/>
<path d="M199.72 214.398C216.394 225.562 222.816 247.739 222.816 247.739C222.816 247.739 202.203 251.814 185.529 240.649C168.854 229.484 162.432 207.308 162.432 207.308C162.432 207.308 183.045 203.233 199.72 214.398Z" fill="#3161DF"/>
<path d="M139.662 220.669C148.898 239.732 168.5 247.915 168.5 247.915C168.5 247.915 173.127 225.191 163.892 206.129C154.656 187.066 135.054 178.883 135.054 178.883C135.054 178.883 130.426 201.607 139.662 220.669Z" fill="#3F3D56"/>
<path d="M146.01 214.398C162.685 225.562 169.107 247.739 169.107 247.739C169.107 247.739 148.494 251.814 131.82 240.649C115.145 229.484 108.723 207.308 108.723 207.308C108.723 207.308 129.336 203.233 146.01 214.398Z" fill="#3161DF"/>
<path d="M84.7407 156.247C68.763 182.868 72.7288 217.026 72.7288 217.026C72.7288 217.026 102.6 208.022 118.577 181.401C134.555 154.78 130.589 120.622 130.589 120.622C130.589 120.622 100.718 129.626 84.7407 156.247Z" fill="#3F3D56"/>
<path d="M96.4951 161.133C94.9353 193.1 73.3553 217.786 73.3553 217.786C73.3553 217.786 54.3042 190.644 55.864 158.678C57.4238 126.711 79.0038 102.024 79.0038 102.024C79.0038 102.024 98.0549 129.166 96.4951 161.133Z" fill="#FC6681"/>
<path d="M312.199 197.404C312.8 233.656 293.646 246.71 269.761 247.2C269.206 247.212 268.654 247.216 268.104 247.214C266.997 247.21 265.9 247.176 264.815 247.113C243.23 245.857 226.259 232.895 225.7 199.181C225.121 164.292 264.458 119.438 267.408 116.121C267.411 116.121 267.411 116.121 267.414 116.118C267.526 115.991 267.583 115.928 267.583 115.928C267.583 115.928 311.598 161.155 312.199 197.404Z" fill="#3161DF"/>
<path d="M268.095 241.688L283.505 216.765L268.1 244.389L268.104 247.214C266.997 247.21 265.9 247.176 264.815 247.113L265.918 210.811L265.9 210.531L265.928 210.477L266.033 207.047L249.681 180.008L266.038 204.479L266.09 205.205L266.923 177.778L252.844 149.779L267.01 172.959L267.408 116.121L267.411 115.932L267.414 116.118L267.934 160.924L281.185 142.884L267.94 164.783L267.988 189.325L280.252 165.52L267.998 192.934L268.025 206.581L285.845 173.429L268.032 211.341L268.095 241.688Z" fill="#3F3D56"/>
<path d="M245.062 197.404C245.664 233.656 226.509 246.71 202.624 247.2C202.069 247.212 201.517 247.216 200.967 247.214C199.86 247.21 198.764 247.176 197.678 247.113C176.093 245.857 159.122 232.895 158.563 199.181C157.984 164.292 197.321 119.438 200.272 116.121C200.274 116.121 200.274 116.121 200.277 116.118C200.389 115.991 200.446 115.928 200.446 115.928C200.446 115.928 244.461 161.155 245.062 197.404Z" fill="#3161DF"/>
<path d="M200.958 241.688L216.368 216.765L200.963 244.389L200.967 247.214C199.86 247.21 198.764 247.176 197.678 247.113L198.781 210.811L198.763 210.531L198.791 210.477L198.896 207.047L182.545 180.008L198.902 204.479L198.953 205.205L199.786 177.778L185.708 149.779L199.874 172.959L200.272 116.121L200.274 115.932L200.277 116.118L200.797 160.924L214.048 142.884L200.803 164.783L200.851 189.325L213.115 165.52L200.861 192.934L200.888 206.581L218.708 173.429L200.895 211.341L200.958 241.688Z" fill="#3F3D56"/>
<path d="M325.341 198.04C325.942 234.292 306.788 247.346 282.902 247.836C282.348 247.848 281.795 247.852 281.246 247.85C280.138 247.846 279.042 247.812 277.957 247.749C256.371 246.493 239.401 233.531 238.841 199.817C238.263 164.927 277.599 120.074 280.55 116.757C280.553 116.757 280.553 116.757 280.555 116.754C280.667 116.627 280.725 116.564 280.725 116.564C280.725 116.564 324.739 161.791 325.341 198.04Z" fill="#3F3D56"/>
<path d="M281.236 242.324L296.646 217.401L281.241 245.025L281.246 247.85C280.138 247.846 279.042 247.812 277.957 247.749L279.059 211.447L279.041 211.167L279.07 211.113L279.175 207.683L262.823 180.644L279.18 205.115L279.232 205.841L280.065 178.413L265.986 150.415L280.152 173.595L280.55 116.757L280.552 116.567L280.555 116.754L281.076 161.559L294.327 143.52L281.081 165.419L281.13 189.961L293.393 166.156L281.139 193.57L281.167 207.216L298.987 174.065L281.174 211.977L281.236 242.324Z" fill="#FC6681"/>
<path d="M86.5056 197.404C87.1069 233.656 67.9524 246.71 44.0673 247.2C43.5125 247.212 42.9602 247.216 42.4106 247.214C41.3032 247.21 40.2068 247.176 39.1215 247.113C17.5362 245.857 0.565613 232.895 0.00632423 199.181C-0.57248 164.292 38.764 119.438 41.7149 116.121C41.7175 116.121 41.7175 116.121 41.7201 116.118C41.8322 115.991 41.8896 115.928 41.8896 115.928C41.8896 115.928 85.9042 161.155 86.5056 197.404Z" fill="#3161DF"/>
<path d="M42.4012 241.688L57.8112 216.765L42.4062 244.389L42.4106 247.214C41.3032 247.21 40.2068 247.176 39.1215 247.113L40.224 210.811L40.2061 210.531L40.2344 210.477L40.3395 207.047L23.9878 180.008L40.3447 204.479L40.3966 205.205L41.2294 177.778L27.1508 149.779L41.3168 172.959L41.7149 116.121L41.717 115.932L41.7201 116.118L42.2404 160.924L55.4916 142.884L42.246 164.783L42.2946 189.325L54.558 165.52L42.3041 192.934L42.3313 206.581L60.1513 173.429L42.3386 211.341L42.4012 241.688Z" fill="#3F3D56"/>
<path d="M262.292 252.728C252.012 250.79 242.126 249.125 232.634 247.734L236.386 239.637C235.121 239.148 229.561 243.785 229.561 243.785L234.486 220.28C228.122 221.134 224.886 245.134 224.886 245.134L217.776 237.02L221.218 246.143C192.165 242.335 167.074 240.923 145.97 240.872L149.182 233.941C147.916 233.452 142.357 238.089 142.357 238.089L147.282 214.584C140.918 215.439 137.682 239.439 137.682 239.439L130.571 231.324L134.217 240.987C116.525 241.38 102.097 242.725 90.9604 244.257C94.209 233.46 105.245 223.192 105.245 223.192C96.8169 225.981 92.3959 230.656 90.0858 235.014C89.8794 212.737 93.2077 190.595 99.9176 169.605C99.9176 169.605 82.4971 211.795 84.7199 240.114L84.9858 245.143C70.2171 247.496 62.7921 249.945 62.7921 249.945L262.292 252.728Z" fill="#3F3D56"/>
<path d="M295.718 250.821C285.438 248.882 275.552 247.218 266.059 245.827L269.812 237.729C268.546 237.24 262.987 241.877 262.987 241.877L267.912 218.372C261.547 219.227 258.312 243.227 258.312 243.227L251.201 235.112L254.644 244.235C225.591 240.427 200.5 239.015 179.395 238.964L182.607 232.034C181.342 231.545 175.782 236.182 175.782 236.182L180.707 212.677C174.343 213.531 171.107 237.531 171.107 237.531L163.997 229.417L167.643 239.079C149.95 239.473 135.522 240.817 124.386 242.349C127.634 231.552 138.67 221.284 138.67 221.284C130.242 224.074 125.821 228.749 123.511 233.107C123.305 210.83 126.633 188.687 133.343 167.697C133.343 167.697 115.923 209.887 118.145 238.207L118.411 243.235C103.643 245.589 96.2175 248.037 96.2175 248.037L295.718 250.821Z" fill="#3F3D56"/>
<path d="M334 254C323.72 252.062 313.834 250.397 304.341 249.006L308.094 240.909C306.829 240.42 301.269 245.057 301.269 245.057L306.194 221.552C299.83 222.406 296.594 246.406 296.594 246.406L289.484 238.292L292.926 247.414C263.873 243.607 238.782 242.195 217.678 242.144L220.89 235.213C219.624 234.724 214.065 239.361 214.065 239.361L218.989 215.856C212.625 216.71 209.389 240.71 209.389 240.71L202.279 232.596L205.925 242.258C188.232 242.652 173.804 243.996 162.668 245.529C165.917 234.732 176.953 224.464 176.953 224.464C168.525 227.253 164.104 231.928 161.793 236.286C161.587 214.009 164.915 191.866 171.625 170.877C171.625 170.877 154.205 213.067 156.428 241.386L156.694 246.415C141.925 248.768 134.5 251.217 134.5 251.217L334 254Z" fill="#3F3D56"/>
<path d="M207.44 250.821C197.16 248.882 187.274 247.218 177.782 245.827L181.534 237.729C180.269 237.24 174.709 241.877 174.709 241.877L179.634 218.372C173.27 219.227 170.034 243.227 170.034 243.227L162.924 235.112L166.366 244.235C137.313 240.427 112.222 239.015 91.1179 238.964L94.3297 232.034C93.0643 231.545 87.5049 236.182 87.5049 236.182L92.4296 212.677C86.0655 213.531 82.8297 237.531 82.8297 237.531L75.7193 229.417L79.3653 239.079C61.6727 239.473 47.2446 240.817 36.1082 242.349C39.3569 231.552 50.3929 221.284 50.3929 221.284C41.9648 224.074 37.5438 228.749 35.2337 233.107C35.0272 210.83 38.3556 188.687 45.0655 167.697C45.0655 167.697 27.645 209.887 29.8678 238.207L30.1337 243.235C15.365 245.589 7.93994 248.037 7.93994 248.037L207.44 250.821Z" fill="#3F3D56"/>
</g>
<defs>
<clipPath id="clip0">
<rect width="334" height="254" fill="white"/>
</clipPath>
</defs>
</svg>
