<svg width="103" height="139" viewBox="0 0 103 139" fill="none" xmlns="http://www.w3.org/2000/svg">
<path fill-rule="evenodd" clip-rule="evenodd" d="M73.1759 138.613C70.9482 139.05 68.4886 139.017 66.2194 138.981C54.05 138.832 42.0999 133.651 34.3224 125.372C27.7015 118.324 25.8809 109.562 24.5728 100.704C24.4432 99.8244 24.3875 98.9505 24.3144 98.0693C24.2987 97.8801 24.2752 97.7114 24.2501 97.5526C23.7357 97.139 23.4658 96.6569 23.7703 96.1272C22.6371 93.8971 21.6785 91.6105 20.856 89.252C18.435 82.3101 15.9724 75.2362 17.4894 67.9365C17.8438 71.9536 18.5893 76.0613 19.4809 80.0125C19.5322 80.2393 19.5876 80.4643 19.6453 80.6886C19.6512 80.7122 19.6567 80.7359 19.6626 80.7594C19.9783 81.9694 20.3885 83.1431 20.8874 84.2983C20.8927 84.3109 20.8977 84.3234 20.9031 84.3358C20.969 84.4878 21.039 84.6391 21.108 84.7903C21.2509 85.1034 21.3977 85.4159 21.5534 85.7267C21.606 85.8326 21.6566 85.9395 21.7052 86.0472C22.4316 87.6481 22.7383 89.452 23.389 91.1085C23.5447 91.4851 23.7074 91.8604 23.8779 92.2336C23.8879 92.2555 23.8982 92.2774 23.9085 92.2992C24.3693 93.3036 24.8785 94.2958 25.4168 95.2776C25.7095 95.4754 25.8658 95.9659 26.1181 96.4118C26.1703 96.4996 26.5783 97.0855 26.6998 97.423C27.0168 97.9746 27.3327 98.5263 27.652 99.0769C27.6424 99.0737 27.6328 99.0705 27.6233 99.0673C27.9428 99.596 28.2633 100.122 28.5812 100.647C28.6512 100.762 28.7218 100.877 28.7923 100.993C28.9065 101.177 29.0206 101.36 29.1346 101.544C30.2006 103.259 31.3308 104.94 32.5046 106.6C32.9235 107.193 33.9243 108.043 34.1162 108.708C34.1232 108.733 34.1248 108.756 34.1292 108.779C36.6761 111.996 39.6083 114.963 43.1246 117.314C42.6995 116.901 41.7961 115.499 41.5572 115.222C40.8263 114.372 40.0327 113.58 39.2361 112.779C37.8096 111.345 36.4168 109.865 35.1792 108.299C32.916 105.437 30.9634 102.425 29.1177 99.3515C29.1002 99.3334 29.081 99.3164 29.0644 99.2979C28.1368 98.2696 27.5529 96.7154 26.8851 95.5391C29.5278 96.6398 32.4499 97.3569 35.1621 98.3342C37.8668 99.3085 40.4979 100.394 43.038 101.668C46.4141 103.361 49.9163 105.273 53.1062 107.437C56.7618 109.476 59.8336 112.283 62.5452 115.228C65.7533 118.713 68.6935 122.228 70.5118 126.459C71.405 128.539 72.1077 130.707 72.5243 132.9C72.5425 132.996 72.5658 133.099 72.5911 133.207C73.0173 133.965 73.3983 134.739 73.7181 135.532C74.2259 136.788 75.4252 138.171 73.1759 138.613Z" fill="#69A1AC"/>
<path fill-rule="evenodd" clip-rule="evenodd" d="M101.223 91.5159C99.1048 93.5733 95.8693 94.6712 92.8652 95.2974C81.1319 97.7434 69.1 96.1193 58.0779 92.2598C52.0383 90.1451 46.3251 87.0396 41.1161 83.6522C38.1094 81.6968 35.3092 79.4871 33.0527 76.8507C31.5298 75.0712 30.3036 73.142 29.2849 71.1007C28.0434 68.613 26.9066 66.0478 26.0223 63.44C25.6741 62.4131 23.5848 57.0143 25.4867 56.519C25.4407 56.3848 25.4048 56.2552 25.3867 56.136C19.6985 51.1152 15.3491 44.7479 11.2792 38.6999C7.73797 33.4369 4.41144 28.0784 1.69859 22.4355C-1.87295 15.0063 -4.92961 7.34688 -7.43808 -0.4214C-7.97707 -2.09092 -8.4829 -3.76822 -8.979 -5.44908C-9.40176 -6.88279 -9.82523 -8.31638 -10.2473 -9.75025C-10.72 -11.3572 -11.513 -13.1555 -11.6388 -14.8247C-11.7486 -16.2784 -10.348 -16.3469 -9.93185 -14.9643C-9.4292 -13.2946 -9.00937 -11.6041 -8.49653 -9.93526C-7.81564 -7.72044 -7.13146 -5.5063 -6.43804 -3.29475C-1.61927 12.0679 5.46834 26.717 15.0771 40.1744C18.9656 45.6203 23.1187 50.6772 28.0137 55.4443C32.3174 59.6358 37.2042 63.5434 42.0907 67.113C46.84 70.5816 51.7098 73.922 57.1198 76.5719C61.51 78.7221 66.1689 80.4215 70.8948 81.9212C76.8972 83.8259 82.871 85.66 89.1312 86.7776C92.3852 87.3585 95.6629 87.8026 98.9276 88.3303C99.515 88.4252 100.139 88.5059 100.715 88.6377C102.634 89.0773 102.376 90.3957 101.223 91.5159Z" fill="#C1DEE2"/>
<path fill-rule="evenodd" clip-rule="evenodd" d="M43.1269 52.9758C48.0232 52.9758 52.3801 52.4004 56.8915 50.6407C60.7858 49.1219 64.3347 47.1114 67.7803 44.9224C72.627 41.8438 76.4446 38.2608 79.1168 33.5133C80.7133 30.6771 81.8844 26.6638 80.8122 23.5703C79.5493 19.9269 76.0816 16.8882 71.5144 17.5302C68.6903 17.9268 66.1013 19.6174 63.9548 21.2087C61.387 23.1123 59.3315 25.4013 57.6343 27.9436C54.8656 32.0905 53.2386 36.7787 50.8867 41.112C49.7707 43.1687 48.6922 45.2401 47.3555 47.1947C46.6938 48.1626 45.9893 49.1213 44.9854 49.8406C44.4483 50.2254 42.1838 50.8913 43.0498 51.7554C30.3525 51.6046 19.1041 42.7856 16.6666 31.8695C16.4396 30.852 16.2622 29.8263 16.0747 28.8026C15.9564 28.1562 16.0042 25.7724 15.3652 25.3594C13.956 24.4485 14.5483 27.2158 14.6088 27.6142C14.7651 28.644 14.9318 29.6729 15.1068 30.7C16.0586 36.2868 18.8088 41.4805 23.3953 45.4648C28.64 50.0208 35.7165 52.9758 43.1269 52.9758Z" fill="#89C5CC"/>
</svg>
