<svg width="301" height="301" viewBox="0 0 301 301" fill="none" xmlns="http://www.w3.org/2000/svg">
<g opacity="0.2">
<path fill-rule="evenodd" clip-rule="evenodd" d="M139.386 198.478C183.908 198.478 220 161.565 220 116.031C220 70.4964 183.908 33.5834 139.386 33.5834C94.8643 33.5834 58.7722 70.4964 58.7722 116.031C58.7722 161.565 94.8643 198.478 139.386 198.478Z" fill="#FF9B21"/>
<path fill-rule="evenodd" clip-rule="evenodd" d="M188.455 301C196.392 301 202.826 294.42 202.826 286.303C202.826 278.186 196.392 271.606 188.455 271.606C180.519 271.606 174.085 278.186 174.085 286.303C174.085 294.42 180.519 301 188.455 301Z" fill="#2B44FF"/>
<path fill-rule="evenodd" clip-rule="evenodd" d="M126.067 11L143.242 28.5649L126.067 46.1298L108.893 28.5649L126.067 11Z" fill="#2B44FF"/>
<path fill-rule="evenodd" clip-rule="evenodd" d="M78.3999 258.342L86.8118 266.946L78.3999 275.549L69.988 266.946L78.3999 258.342Z" fill="#FF9B21"/>
<path fill-rule="evenodd" clip-rule="evenodd" d="M200.022 33.5834L204.228 37.885L200.022 42.1866L195.816 37.885L200.022 33.5834Z" fill="#2026A2"/>
</g>
<g filter="url(#filter0_d)">
<rect width="87.9767" height="184.964" rx="36.45" transform="matrix(0.999363 -0.0356923 0.0341243 0.999418 43 53.5845)" fill="#F2F2F2"/>
</g>
<path fill-rule="evenodd" clip-rule="evenodd" d="M65.6101 57.3925C55.028 60.3329 47.4258 70.2187 47.8169 81.6735L52.1928 209.833C52.6507 223.245 63.8945 233.73 77.3065 233.251L108.698 232.13C122.11 231.651 132.611 220.39 132.153 206.977L127.777 78.8178C127.389 67.4472 119.249 58.1809 108.608 55.9146C108.356 59.1112 105.739 61.6816 102.458 61.7987L72.1546 62.881C68.8548 62.9989 66.0542 60.5921 65.6101 57.3925ZM71.2645 56.5206L102.671 55.399C102.668 55.3991 102.666 55.3991 102.663 55.3992L71.2722 56.5204C71.2696 56.5205 71.2671 56.5206 71.2645 56.5206Z" fill="#1F28CF"/>
<mask id="mask0" mask-type="alpha" maskUnits="userSpaceOnUse" x="49" y="49" width="119" height="185">
<rect width="111.811" height="180.663" transform="matrix(0.999363 -0.0356923 0.0341243 0.999418 49.6554 53.3469)" fill="white"/>
</mask>
<g mask="url(#mask0)">
<path fill-rule="evenodd" clip-rule="evenodd" d="M131.965 95.1936C133.134 99.671 135.093 103.212 136.702 104.145C140.734 106.484 152.426 94.7096 154.419 87.4837C156.412 80.2579 145.523 65.4956 135.975 74.2824C132.661 77.332 131.25 81.5801 130.987 85.9252L111.408 99.3686L121.758 109.591L131.965 95.1936Z" fill="#B28B67"/>
<path fill-rule="evenodd" clip-rule="evenodd" d="M159.866 84.2367C157.645 86.5893 154.024 86.7276 151.634 84.6065C149.947 83.732 147.992 82.3828 146.019 80.6798C145.547 81.5484 144.903 82.4299 144.066 83.3169C143.326 84.1001 142.457 84.8472 141.505 85.5367C141.564 84.6519 141.327 83.8029 140.782 83.2643C139.256 81.7575 136.984 81.9905 135.699 83.3515C134.068 85.0788 133.864 87.2927 135.195 88.8003C131.536 90.049 127.972 90.1907 126.198 88.4392C122.83 85.1123 124.778 78.1471 129.447 73.2016C129.612 73.0278 129.778 72.8586 129.946 72.6938C128.051 72.3668 126.006 72.3708 123.945 72.3749C119.567 72.3835 115.122 72.3923 111.916 69.226C105.502 62.8909 115.431 47.1607 124.393 56.0117C130.488 62.0311 132.629 65.8996 133.945 69.7935C135.84 68.8295 137.782 68.3633 139.545 68.4402C140.022 68.4031 140.61 68.4978 141.282 68.7113C141.705 68.8298 142.109 68.9865 142.493 69.1821C144.603 70.1362 147.249 71.9527 149.855 74.3526C150.342 74.8008 150.809 75.2525 151.254 75.7041C153.552 73.2851 157.335 73.2247 159.712 75.5726C162.094 77.925 162.163 81.804 159.866 84.2367Z" fill="#191847"/>
<path fill-rule="evenodd" clip-rule="evenodd" d="M40.4774 194.347C40.4774 194.347 60.3179 204.973 75.6236 208.3C90.9293 211.627 105.99 205.181 105.99 205.181C105.99 205.181 86.6341 194.494 73.2756 191.59C59.9171 188.686 40.4774 194.347 40.4774 194.347Z" fill="#1F28CF"/>
<path fill-rule="evenodd" clip-rule="evenodd" d="M86.5923 216.75C86.5 216.512 86.4327 216.26 86.3929 215.994C85.5706 210.497 66.8682 149.058 65.9542 138.37L99.8547 145.74C100.55 153.866 100.863 203.983 100.322 213.85C101.749 229.911 100.99 280.758 101.486 284.4C102.007 288.23 94.1452 290.394 93.1642 285.611C91.6033 277.999 88.44 257.189 87.693 244.741C86.9927 233.07 86.618 222.626 86.5923 216.75Z" fill="#997659"/>
<path fill-rule="evenodd" clip-rule="evenodd" d="M57.4641 217.423C42.9578 217.991 -8.73389 213.483 -12.3992 213.741C-16.1697 214.007 -17.7279 205.83 -12.9966 205.161C-5.46828 204.096 15.0367 202.312 27.2228 202.414C37.0247 202.495 45.9296 202.759 51.8797 203.074C54.8311 186.421 60.8552 146.226 64.0986 137.967L94.0942 144.487C90.984 152.407 66.6697 209.844 63.2202 215.372C62.076 217.365 59.7948 217.859 57.4641 217.423Z" fill="#B28B67"/>
<path fill-rule="evenodd" clip-rule="evenodd" d="M64.1955 137.988C64.1955 137.988 85.2293 136.492 101.715 146.144C101.836 166.2 110.227 175.974 105.874 205.736C83.8352 211.54 62.822 188.821 40.2487 194.246C37.26 179.144 52.3882 147.628 64.1955 137.988Z" fill="#2B44FF"/>
<path fill-rule="evenodd" clip-rule="evenodd" d="M133.357 188.908L128.125 165.256L118.085 170.474L127.233 189.23C127.153 197.672 127.695 201.702 128.859 201.321C129.84 201 130.066 200.084 130.274 199.24C130.436 198.582 130.587 197.968 131.076 197.714C132.193 197.133 134.828 199.641 137.23 202.13C139.631 204.619 139.875 202.783 139.746 201.654C138.484 197.715 136.354 193.466 133.357 188.908ZM36.3095 153.766C39.7216 151.691 63.6336 125.268 63.6336 125.268L74.114 132.289C74.114 132.289 44.0086 157.912 41.9863 159.36C39.3594 161.241 38.718 166.083 38.2831 169.367C38.2158 169.875 38.1535 170.345 38.0895 170.762C36.0119 170.428 35.8032 169.025 35.5832 167.545C35.3347 165.874 35.0718 164.106 32.0851 163.673C30.9312 163.505 29.7762 163.446 28.6478 163.388C24.7499 163.189 21.1691 163.005 19.0472 158.426C18.7108 157.7 18.9412 155.961 21.0864 155.908C26.4311 155.774 34.6415 154.78 36.3095 153.766Z" fill="#B28B67"/>
<path fill-rule="evenodd" clip-rule="evenodd" d="M122.087 100.068L126.918 102.194C122.277 126.265 124.326 152.298 133.068 180.295L107.868 188.424C103.33 153.812 106.394 123.247 122.087 100.068Z" fill="#191847"/>
<path fill-rule="evenodd" clip-rule="evenodd" d="M67.6992 143.286L106.415 169C106.415 169 114.176 126.652 129.005 103.297L118.455 93.7631C99.7039 102.744 85.3252 119.585 67.6992 143.286Z" fill="#DDE3E9"/>
<path fill-rule="evenodd" clip-rule="evenodd" d="M39.3404 148.545C74.5537 102.568 118.199 93.5927 118.199 93.5927L118.203 93.6073C118.206 93.6055 118.209 93.6038 118.213 93.602L118.975 94.1083C120.313 95.0652 123.033 97.0501 123.033 97.0501L120.625 107.161C111.508 122.523 87.3019 171.351 87.3019 171.351L61.9603 154.519C60.6743 156.641 59.4219 158.827 58.2108 161.078L39.3404 148.545Z" fill="#2F3676"/>
<path fill-rule="evenodd" clip-rule="evenodd" d="M61.8361 154.724C67.4217 145.475 73.6481 137.442 79.8869 130.574C74.7419 140.223 69.1634 152.241 68.8962 159.414L61.8361 154.724Z" fill="black" fill-opacity="0.1"/>
<path fill-rule="evenodd" clip-rule="evenodd" d="M77.5521 142.529L93.8393 144.898L90.0663 150.841L77.5521 142.529Z" fill="white" fill-opacity="0.2"/>
</g>
<path fill-rule="evenodd" clip-rule="evenodd" d="M167.214 137.729C164.571 137.922 162.284 137.489 161.474 136.757C159.442 134.921 163.586 126.059 167.115 123.552C170.643 121.045 180.696 124.389 177.759 131.469C176.74 133.926 174.711 135.536 172.412 136.513L168.864 150.158L161.369 146.252L167.214 137.729Z" fill="#B28B67"/>
<path fill-rule="evenodd" clip-rule="evenodd" d="M166.177 117.039C166.61 116.562 167.266 116.302 167.899 116.453C168.052 116.49 168.2 116.549 168.338 116.628C168.387 116.657 168.394 116.679 168.435 116.655C168.466 116.638 168.499 116.572 168.522 116.545C168.593 116.459 168.669 116.377 168.75 116.301C169.027 116.042 169.366 115.862 169.723 115.748C170.392 115.534 171.148 115.54 171.802 115.81C172.16 115.958 172.472 116.193 172.739 116.475C172.877 116.622 173.004 116.78 173.121 116.944C173.157 116.993 173.252 117.194 173.304 117.211C173.361 117.23 173.534 117.151 173.594 117.139C174.333 116.999 175.071 117.177 175.73 117.527C176.474 117.922 177.175 118.335 177.566 119.126C177.648 119.293 177.72 119.466 177.783 119.642C177.816 119.735 177.846 119.829 177.872 119.924C177.888 119.981 177.902 120.039 177.915 120.097C177.936 120.196 177.916 120.214 178.018 120.206C178.411 120.176 178.801 120.27 179.129 120.496C179.324 120.631 179.495 120.8 179.645 120.984C179.696 121.047 179.79 121.239 179.859 121.277C179.928 121.314 180.13 121.286 180.214 121.296C180.671 121.351 181.104 121.532 181.474 121.809C181.857 122.096 182.181 122.479 182.418 122.898C182.531 123.1 182.617 123.303 182.652 123.533C182.667 123.632 182.676 123.733 182.7 123.831C182.715 123.888 182.762 123.964 182.756 124.023C182.76 123.987 183.318 124.047 183.368 124.058C183.634 124.117 183.867 124.255 184.058 124.452C184.418 124.823 184.627 125.342 184.766 125.836C184.837 126.09 184.88 126.351 184.896 126.614C184.903 126.74 184.905 126.866 184.901 126.993C184.899 127.054 184.883 127.123 184.891 127.183C184.901 127.26 184.926 127.275 184.983 127.336C185.274 127.647 185.489 128.03 185.59 128.448C185.693 128.87 185.674 129.315 185.552 129.731C185.545 129.755 185.501 129.85 185.508 129.868C185.517 129.894 185.592 129.924 185.617 129.941C185.705 130.001 185.789 130.066 185.869 130.135C186.017 130.264 186.151 130.409 186.267 130.568C186.719 131.189 186.865 131.987 186.755 132.742C186.64 133.534 186.25 134.307 185.654 134.833C185.558 134.918 185.455 134.995 185.346 135.063C185.279 135.104 185.267 135.098 185.259 135.174C185.251 135.258 185.265 135.352 185.263 135.437C185.254 135.716 185.207 135.992 185.131 136.26C185.006 136.698 184.834 137.138 184.56 137.502C184.432 137.672 184.281 137.823 184.108 137.943C184.019 138.003 183.925 138.056 183.826 138.098C183.775 138.121 183.723 138.14 183.67 138.157C183.64 138.167 183.604 138.171 183.576 138.184C183.507 138.217 183.52 138.168 183.502 138.26C183.476 138.388 183.489 138.536 183.476 138.668C183.462 138.804 183.444 138.939 183.422 139.074C183.377 139.346 183.319 139.618 183.236 139.881C183.077 140.387 182.816 140.878 182.386 141.194C182.202 141.329 181.99 141.421 181.766 141.463C181.657 141.483 181.546 141.491 181.435 141.488C181.378 141.486 181.314 141.465 181.271 141.5C181.224 141.537 181.209 141.652 181.189 141.71C181.019 142.22 180.804 142.737 180.433 143.13C180.092 143.493 179.623 143.726 179.135 143.787C178.187 143.906 177.249 143.383 176.702 142.607C176.559 142.405 176.441 142.184 176.354 141.952C175.661 142.303 174.825 141.845 174.305 141.371C173.657 140.78 173.322 139.936 173.324 139.057C172.558 139.399 171.661 138.691 171.652 137.882C171.649 137.683 171.687 137.486 171.751 137.3C171.784 137.202 171.838 137.113 171.874 137.018C171.92 136.896 171.9 136.744 171.913 136.609C171.937 136.347 171.996 136.094 172.111 135.857C172.171 135.734 172.246 135.622 172.318 135.506C172.383 135.402 172.404 135.284 172.442 135.167C172.617 135.299 172.877 135.368 173.086 135.405C173.291 135.442 173.531 135.382 173.723 135.313C174.169 135.152 174.55 134.836 174.874 134.493C175.585 133.739 176.01 132.611 175.376 131.663C175.081 131.222 173.855 130.584 173.311 130.443C172.74 130.294 171.583 131.148 171.501 131.242C171.45 131.3 171.417 131.387 171.334 131.401C171.152 131.43 171.019 131.145 170.963 131.01C170.866 130.776 170.842 130.519 170.836 130.269C170.822 129.722 170.867 129.168 170.971 128.632C171.051 128.219 171.173 127.813 171.217 127.393C171.262 126.975 171.213 126.555 170.994 126.191C170.755 125.795 170.415 125.474 170.102 125.141C169.792 124.81 169.504 124.453 169.354 124.015C169.321 123.919 169.292 123.82 169.277 123.719C169.265 123.64 169.28 123.507 169.237 123.438C169.169 123.33 168.953 123.406 168.842 123.417C168.297 123.47 167.766 123.664 167.286 123.927C166.808 124.189 166.387 124.462 165.977 124.819C165.673 125.084 165.373 125.47 164.996 125.621C164.828 125.688 163.994 125.347 163.789 125.105C163.585 124.864 163.435 124.434 163.435 124.214C163.436 123.989 163.512 123.782 163.648 123.606C163.727 123.502 163.827 123.418 163.908 123.318C163.976 123.234 164.04 123.154 164.129 123.09C164.296 122.97 164.502 122.928 164.703 122.97C164.606 122.701 164.557 122.414 164.567 122.128C164.577 121.83 164.63 121.489 164.736 121.211C164.821 120.985 164.965 120.78 165.172 120.655C165.389 120.524 165.665 120.509 165.91 120.485C165.741 120.112 165.636 119.712 165.589 119.304C165.497 118.512 165.63 117.642 166.177 117.039Z" fill="#191847"/>
<path fill-rule="evenodd" clip-rule="evenodd" d="M162.168 176.612L144.965 221.143L133.427 258.791H128.871L146.51 176.612L162.168 176.612Z" fill="#997659"/>
<path fill-rule="evenodd" clip-rule="evenodd" d="M165.632 176.612C165.816 192.261 168.487 213.329 168.914 214.304C169.341 215.28 198.383 239.113 198.383 239.113L195.245 242.548C195.245 242.548 160.978 222.113 159.392 219.388C157.806 216.663 152.644 191.583 148.499 176.612H165.632Z" fill="#B28B67"/>
<path fill-rule="evenodd" clip-rule="evenodd" d="M197.418 239.8C197.886 238.722 199.028 238.005 200.076 238.509C200.44 238.684 200.771 238.871 200.981 239.051C201.707 239.674 202.897 241.117 202.897 241.117C202.19 241.979 190.19 256.605 190.19 256.605C190.19 256.605 187.743 255.534 188.655 254.1C189.567 252.666 190.147 251.698 190.147 251.698L192.736 242.448C192.889 241.902 193.452 241.594 193.983 241.766L194.835 242.042C194.835 242.042 196.373 241.31 196.99 240.557C197.144 240.37 197.288 240.1 197.418 239.8Z" fill="#E4E4E4"/>
<path fill-rule="evenodd" clip-rule="evenodd" d="M132.968 257.164C134.108 256.841 135.417 257.272 135.711 258.419C135.811 258.81 135.881 259.181 135.881 259.456C135.881 260.425 135.565 262.286 135.565 262.286C134.466 262.286 115.797 262.286 115.797 262.286C115.797 262.286 115.026 259.68 116.686 259.472C118.347 259.265 119.445 259.097 119.445 259.097L128.011 255.192C128.529 254.955 129.14 255.199 129.353 255.728L129.69 256.564C129.69 256.564 131.227 257.297 132.188 257.297C132.411 257.297 132.683 257.245 132.968 257.164Z" fill="#E4E4E4"/>
<path fill-rule="evenodd" clip-rule="evenodd" d="M150.602 254.913L128.94 252.508L144.994 176.612H164.396L150.602 254.913Z" fill="#69A1AC"/>
<path fill-rule="evenodd" clip-rule="evenodd" d="M193.902 233.573L179.693 250.774C179.693 250.774 157.244 225.698 153.517 218.049C149.791 210.401 146.817 176.612 146.817 176.612H168.66C168.66 176.612 170.284 206.338 170.85 207.721C171.415 209.105 193.902 233.573 193.902 233.573Z" fill="#89C5CC"/>
<path fill-rule="evenodd" clip-rule="evenodd" d="M126.532 153.72L137.505 162.398L132.314 166.55L124.849 156.959C120.45 154.918 118.494 153.629 118.979 153.092C119.389 152.64 119.92 152.744 120.409 152.839C120.791 152.914 121.146 152.984 121.399 152.782C121.977 152.32 121.329 150.272 120.632 148.356C119.935 146.439 120.948 146.76 121.501 147.109C123.233 148.766 124.909 150.97 126.532 153.72ZM179.639 176.263L186.953 176.626C188.573 190.572 189.689 198.272 190.3 199.726C190.748 200.793 194.297 204.151 196.779 206.095C197.775 206.875 197.3 207.779 196.897 208.004C194.355 209.425 192.601 208.253 190.691 206.976C190.138 206.606 189.572 206.228 188.97 205.902C187.412 205.056 186.694 205.801 186.015 206.505C185.414 207.128 184.844 207.718 183.75 207.146C183.859 206.926 183.988 206.681 184.127 206.417C185.024 204.71 186.347 202.192 185.737 200.378C185.424 199.446 183.391 191.408 179.639 176.263Z" fill="#B28B67"/>
<path fill-rule="evenodd" clip-rule="evenodd" d="M167.544 143.352L164.729 142.087C156.775 146.808 150.439 161.408 145.678 162.341C141.176 163.222 135.906 159.914 129.714 155.684L126.471 159.912C130.984 168.324 142.739 177.457 148.878 175.52C158.694 172.423 165.254 154.096 167.544 143.352Z" fill="#DB2721"/>
<path fill-rule="evenodd" clip-rule="evenodd" d="M171.149 184.418C171.149 184.418 153.462 179.908 145.129 177.783C143.94 177.48 144.592 175.781 144.98 174.939C149.457 165.219 159.887 156.17 163.436 141.613L171.235 142.324C174.954 154.118 174.035 167.238 171.149 184.418Z" fill="#DDE3E9"/>
<path fill-rule="evenodd" clip-rule="evenodd" d="M151.728 187.224L175.15 193.197C176.173 187.385 176.459 181.036 176.269 174.726C179.187 185.865 181.929 194.047 184.492 199.273L190.212 199.571C192.132 176.391 185.967 157.35 171.719 142.447L171.633 142.425L168.747 141.689C168.747 141.689 150.051 174.348 151.728 187.224Z" fill="#FF4133"/>
<path fill-rule="evenodd" clip-rule="evenodd" d="M241.934 31.2635C244.589 32.8852 247.197 33.6688 248.422 33.3489C251.492 32.5468 251.775 21.1632 249.399 16.6754C247.023 12.1876 234.809 10.2315 234.193 19.1233C233.98 22.2093 235.258 24.9634 237.148 27.2107L233.76 43.2113H243.6L241.934 31.2635Z" fill="#B28B67"/>
<path fill-rule="evenodd" clip-rule="evenodd" d="M242.425 20.1053C243.277 18.8209 244.094 17.8413 245.157 17.2724C249.483 17.3417 249.989 16.5558 249.989 13.9069C249.29 13.4003 246.825 12.5471 244.064 12.3071C242.656 11.8987 240.987 11.9755 239.38 12.6568C237.396 13.2273 235.716 14.4559 234.974 16.7561C232.289 21.4515 234.327 26.3392 237.073 28.0089C237.804 27.1312 238.442 26.2807 239.011 25.4665C238.554 25.0138 238.27 24.382 238.27 23.6831C238.27 22.3063 239.371 21.1901 240.73 21.1901C240.83 21.1901 240.928 21.1962 241.025 21.2079C241.086 22.9293 241.338 28.7532 241.999 30.7762C242.778 33.1612 247.324 33.7467 248.91 33.7467C250.28 33.7467 250.233 32.4325 250.199 31.4905C250.195 31.3549 250.19 31.227 250.19 31.1118C250.19 30.8712 249.881 30.8718 249.532 30.8725C249.079 30.8734 248.559 30.8745 248.559 30.3476C248.559 29.7734 249.342 29.3329 250.042 28.9387C250.48 28.6928 250.885 28.4649 251.048 28.2338C251.562 27.5047 251.735 26.5213 250.959 26.5213C250.536 26.5213 249.954 26.769 249.254 27.0669C248.198 27.5166 246.873 28.081 245.415 28.081C243.006 28.081 242.433 20.2048 242.425 20.1053Z" fill="#191847"/>
<path fill-rule="evenodd" clip-rule="evenodd" d="M230.48 77.6972L245.345 130.559L256.19 169.521H264.1L252.575 77.6972H230.48Z" fill="#191847"/>
<path fill-rule="evenodd" clip-rule="evenodd" d="M226.505 77.6972C226.161 104.943 224.989 119.803 224.628 122.279C224.267 124.754 218.808 140.502 208.252 169.521H216.447C229.885 141.682 237.387 125.934 238.952 122.279C240.516 118.623 245.346 103.763 252.62 77.6972H226.505Z" fill="#2F3676"/>
<path fill-rule="evenodd" clip-rule="evenodd" d="M207.52 177L207.93 168.275L216.54 168.275C222.664 172.637 232.53 175.338 232.53 175.338V177H216.95L211.62 176.169V177H207.52Z" fill="#191847"/>
<path fill-rule="evenodd" clip-rule="evenodd" d="M255.08 177L255.49 168.275L264.1 168.275C270.224 172.637 280.09 175.338 280.09 175.338V177H264.51L259.18 176.169V177H255.08Z" fill="#191847"/>
<path fill-rule="evenodd" clip-rule="evenodd" d="M198.649 92.7729C200.178 90.4962 209.024 66.2861 209.024 66.2861L216.285 67.3548C216.285 67.3548 204.593 93.0631 203.749 94.5469C202.652 96.4744 203.622 99.64 204.28 101.787C204.382 102.119 204.476 102.426 204.554 102.701C203.172 103.106 202.646 102.304 202.092 101.459C201.466 100.504 200.803 99.4942 198.829 100.104C198.067 100.339 197.334 100.642 196.618 100.937C194.146 101.958 191.874 102.896 189.265 100.703C188.852 100.355 188.503 99.2186 189.818 98.5561C193.093 96.9058 197.902 93.8859 198.649 92.7729ZM277.444 81.5204L265.067 70.8873L261.685 77.9077L274.229 84.2523C277.583 88.8608 279.501 90.8188 279.984 90.1263C280.39 89.5425 280.145 88.9515 279.918 88.4072C279.742 87.9831 279.578 87.5874 279.742 87.2453C280.119 86.4641 282.567 86.7227 284.881 87.0688C287.194 87.4148 286.588 86.3181 286.063 85.7605C283.789 84.1521 280.915 82.7388 277.444 81.5204Z" fill="#B28B67"/>
<path fill-rule="evenodd" clip-rule="evenodd" d="M239.375 36.2859L243.875 34.7779C249.979 50.2302 259.082 65.181 274.291 77.8095L270.53 84.3853C257.163 76.4057 244.51 70.207 239.375 58.2333C237.652 54.2146 239.234 41.091 239.375 36.2859Z" fill="#C5CFD6"/>
<path fill-rule="evenodd" clip-rule="evenodd" d="M223.92 79.7747C223.92 79.7747 243.255 81.8521 254.357 79.7747C255.274 79.6031 255.419 78.0472 254.993 76.9913C248.371 60.5475 243.83 46.1994 243.83 34.7779C242.007 35.7091 237.45 35.057 237.45 35.057C229.285 46.8272 225.532 60.3322 223.92 79.7747Z" fill="#323337"/>
<path fill-rule="evenodd" clip-rule="evenodd" d="M235.11 34.0704C235.321 33.9265 235.432 33.8549 235.432 33.8549L235.42 34.0704H238.823C238.994 35.0894 239.244 38.8664 239.609 44.3738C240.937 64.3869 243.779 107.25 249.828 123.653H208.088C208.969 105.004 215.754 82.7025 222.782 63.7659C217.596 68.995 211.539 77.7607 206.643 92.3527L198.825 90.3189C206.793 55.5258 230.136 37.5821 234.666 34.3795C234.71 34.2759 234.754 34.1729 234.798 34.0704H235.11Z" fill="#DDE3E9"/>
<defs>
<filter id="filter0_d" x="0.222168" y="39.7217" width="159.788" height="253.442" filterUnits="userSpaceOnUse" color-interpolation-filters="sRGB">
<feFlood flood-opacity="0" result="BackgroundImageFix"/>
<feColorMatrix in="SourceAlpha" type="matrix" values="0 0 0 0 0 0 0 0 0 0 0 0 0 0 0 0 0 0 127 0"/>
<feOffset dx="-10" dy="22"/>
<feGaussianBlur stdDeviation="17"/>
<feColorMatrix type="matrix" values="0 0 0 0 0 0 0 0 0 0 0 0 0 0 0 0 0 0 0.1 0"/>
<feBlend mode="normal" in2="BackgroundImageFix" result="effect1_dropShadow"/>
<feBlend mode="normal" in="SourceGraphic" in2="effect1_dropShadow" result="shape"/>
</filter>
</defs>
</svg>
