<svg width="100" height="106" viewBox="0 0 100 106" fill="none" xmlns="http://www.w3.org/2000/svg">
<path d="M72.6512 -0.000305176H72.4157C63.0454 -0.000305176 54.7586 5.52702 49.9918 13.6832C45.2251 5.52702 36.9382 -0.000305176 27.5679 -0.000305176H27.3324C20.3003 0.0743991 13.5788 3.23978 8.62853 8.80797C3.67825 14.3762 0.899264 21.8972 0.895447 29.7366C0.895447 39.4716 4.72016 53.2847 12.178 64.6509C26.3872 86.3086 49.9918 105.257 49.9918 105.257C49.9918 105.257 73.5964 86.3121 87.8024 64.6509C95.2635 53.2847 99.0851 39.4716 99.0851 29.7366C99.0812 21.8978 96.3027 14.3773 91.3531 8.80919C86.4035 3.24111 79.6827 0.0753156 72.6512 -0.000305176ZM69.2818 66.3171C68.2146 66.3126 67.1737 65.9484 66.2955 65.2725C65.4174 64.5966 64.7431 63.6404 64.3612 62.5295H58.7591C58.3902 62.527 58.0313 62.3961 57.7323 62.1551C57.4334 61.9141 57.2094 61.5751 57.0917 61.1853L55.3709 55.406L49.9259 76.6157C49.8198 77.0239 49.5978 77.3829 49.2932 77.6385C48.9886 77.8941 48.6178 78.0327 48.2365 78.0334H48.1266C47.7287 78.0119 47.3495 77.8389 47.0523 77.5433C46.7551 77.2477 46.5579 76.8473 46.4937 76.4091L40.8822 38.7855L36.7812 61.0488C36.6871 61.4718 36.4687 61.8474 36.1608 62.1158C35.8529 62.3842 35.4732 62.5298 35.0823 62.5295H27.1911C26.9546 62.5407 26.7184 62.4984 26.4969 62.4052C26.2754 62.312 26.0731 62.1698 25.9022 61.9871C25.7313 61.8045 25.5953 61.5852 25.5024 61.3424C25.4094 61.0996 25.3615 60.8384 25.3615 60.5745C25.3615 60.3106 25.4094 60.0494 25.5024 59.8066C25.5953 59.5638 25.7313 59.3445 25.9022 59.1619C26.0731 58.9792 26.2754 58.837 26.4969 58.7438C26.7184 58.6506 26.9546 58.6083 27.1911 58.6195H33.7007L39.51 28.6865C39.6053 28.2439 39.8356 27.852 40.1615 27.5778C40.4874 27.3036 40.8885 27.1641 41.2965 27.1831C41.7044 27.2021 42.0937 27.3785 42.3979 27.6821C42.7021 27.9857 42.9022 28.3976 42.9641 28.8475L48.6949 67.2272L53.5747 48.2509C53.6763 47.8512 53.8912 47.4989 54.1872 47.2466C54.4831 46.9942 54.8444 46.8554 55.217 46.8507H55.2516C55.6206 46.8508 55.9802 46.9809 56.2791 47.2222C56.5779 47.4636 56.8008 47.804 56.9159 48.1949L60.0278 58.63H64.2921C64.5953 57.6031 65.1471 56.6896 65.8866 55.9903C66.6261 55.291 67.5245 54.833 68.4827 54.667C69.441 54.5009 70.4217 54.6333 71.3168 55.0493C72.2118 55.4654 72.9863 56.149 73.5548 57.0248C74.1233 57.9006 74.4637 58.9344 74.5384 60.0123C74.6131 61.0901 74.4193 62.17 73.9782 63.1327C73.5371 64.0954 72.866 64.9036 72.0389 65.468C71.2118 66.0324 70.261 66.3311 69.2912 66.3311L69.2818 66.3171Z" fill="#3161DF"/>
</svg>
